{
.appVersion = "895";
copyright = "Copyright © 2013 by Andrew Paglinawan. All rights reserved.";
customParameters = (
{
name = description;
value = "Copyright © 2013 by Andrew Paglinawan. All rights reserved.";
},
{
name = licenseURL;
value = "http://scripts.sil.org/OFL_web";
},
{
name = vendorID;
value = "AP  ";
},
{
name = panose;
value = (
0,
0,
4,
0,
0,
0,
0,
0,
0,
0
);
},
{
name = unicodeRanges;
value = (
0,
1,
2
);
},
{
name = codePageRanges;
value = (
1252,
1250,
1254,
1257
);
},
{
name = glyphOrder;
value = (
.notdef,
A,
Aacute,
Abreve,
Acircumflex,
Adieresis,
Agrave,
Amacron,
Aogonek,
Aring,
Atilde,
AE,
B,
C,
Cacute,
Ccaron,
Ccedilla,
Cdotaccent,
D,
Eth,
Dcaron,
Dcroat,
E,
Eacute,
Ecaron,
Ecircumflex,
Edieresis,
Edotaccent,
Egrave,
Emacron,
Eogonek,
F,
G,
Gbreve,
Gcommaaccent,
Gdotaccent,
H,
Hbar,
I,
IJ,
Iacute,
Icircumflex,
Idieresis,
Idotaccent,
Igrave,
Imacron,
Iogonek,
J,
K,
Kcommaaccent,
L,
Lacute,
Lcaron,
Lcommaaccent,
Ldot,
Lslash,
M,
N,
Nacute,
Ncaron,
Ncommaaccent,
Eng,
Ntilde,
O,
Oacute,
Ocircumflex,
Odieresis,
Ograve,
Ohungarumlaut,
Omacron,
Oslash,
Otilde,
OE,
P,
Thorn,
Q,
R,
Racute,
Rcaron,
Rcommaaccent,
S,
Sacute,
Scaron,
Scedilla,
Scommaaccent,
T,
Tbar,
Tcaron,
Tcedilla,
uni021A,
U,
Uacute,
Ucircumflex,
Udieresis,
Ugrave,
Uhungarumlaut,
Umacron,
Uogonek,
Uring,
V,
W,
Wacute,
Wcircumflex,
Wdieresis,
Wgrave,
X,
Y,
Yacute,
Ycircumflex,
Ydieresis,
Ygrave,
Z,
Zacute,
Zcaron,
Zdotaccent,
A.ss01,
E.ss01,
M.ss01,
N.ss01,
Q.ss01,
R.ss01,
U.ss01,
W.ss01,
a,
aacute,
abreve,
acircumflex,
adieresis,
agrave,
amacron,
aogonek,
aring,
atilde,
ae,
b,
c,
cacute,
ccaron,
ccedilla,
cdotaccent,
d,
eth,
dcaron,
dcroat,
e,
eacute,
ecaron,
ecircumflex,
edieresis,
edotaccent,
egrave,
emacron,
eogonek,
f,
g,
gbreve,
gcommaaccent,
gdotaccent,
h,
hbar,
i,
dotlessi,
iacute,
icircumflex,
idieresis,
i.loclTRK,
igrave,
ij,
imacron,
iogonek,
j,
dotlessj,
k,
kcommaaccent,
l,
lacute,
lcaron,
lcommaaccent,
ldot,
lslash,
m,
n,
nacute,
ncaron,
ncommaaccent,
eng,
ntilde,
o,

glyphs = (
{
glyphname = .notdef;
lastChange = "2016-07-14 20:15:00 +0000";
layers = (
{
layerId = "254266E2-2911-423D-9D37-8CC6105656EE";
paths = (
{
closed = 1;
nodes = (
"40 35 LINE SMOOTH",
"40 12 OFFCURVE",
"52 0 OFFCURVE",
"75 0 CURVE SMOOTH",
"509 0 LINE SMOOTH",
"532 0 OFFCURVE",
"544 12 OFFCURVE",
"544 35 CURVE SMOOTH",
"544 665 LINE SMOOTH",
"544 688 OFFCURVE",
"532 700 OFFCURVE",
"509 700 CURVE SMOOTH",
"75 700 LINE SMOOTH",
"52 700 OFFCURVE",
"40 688 OFFCURVE",
"40 665 CURVE SMOOTH"
);
},
{
closed = 1;
nodes = (
"509 670 LINE SMOOTH",
"512 670 OFFCURVE",
"514 668 OFFCURVE",
"514 665 CURVE SMOOTH",
"514 67 LINE SMOOTH",
"514 62 OFFCURVE",
"511 61 OFFCURVE",
"508 65 CURVE",
"92 664 LINE SMOOTH",
"90 667 OFFCURVE",
"91 670 OFFCURVE",
"95 670 CURVE SMOOTH"
);
},
{
closed = 1;
nodes = (
"70 633 LINE SMOOTH",
"70 638 OFFCURVE",
"73 639 OFFCURVE",
"76 635 CURVE",
"491 36 LINE SMOOTH",
"493 33 OFFCURVE",
"492 30 OFFCURVE",
"488 30 CURVE SMOOTH",
"75 30 LINE SMOOTH",
"72 30 OFFCURVE",
"70 32 OFFCURVE",
"70 35 CURVE SMOOTH"
);
}
);
width = 584;
},
{
layerId = "8816CCA3-DDF9-4C51-BD56-64EE3675A105";
paths = (
{
closed = 1;
nodes = (
"40 35 LINE SMOOTH",
"40 12 OFFCURVE",
"52 0 OFFCURVE",
"75 0 CURVE SMOOTH",
"509 0 LINE SMOOTH",
"532 0 OFFCURVE",
"544 12 OFFCURVE",
"544 35 CURVE SMOOTH",
"544 665 LINE SMOOTH",
"544 688 OFFCURVE",
"532 700 OFFCURVE",
"509 700 CURVE SMOOTH",
"75 700 LINE SMOOTH",
"52 700 OFFCURVE",
"40 688 OFFCURVE",
"40 665 CURVE SMOOTH"
);
},
{
closed = 1;
nodes = (
"509 670 LINE SMOOTH",
"512 670 OFFCURVE",
"514 668 OFFCURVE",
"514 665 CURVE SMOOTH",
"514 67 LINE SMOOTH",
"514 62 OFFCURVE",
"511 61 OFFCURVE",
"508 65 CURVE",
"92 664 LINE SMOOTH",
"90 667 OFFCURVE",
"91 670 OFFCURVE",
"95 670 CURVE SMOOTH"
);
},
{
closed = 1;
nodes = (
"70 633 LINE SMOOTH",
"70 638 OFFCURVE",
"73 639 OFFCURVE",
"76 635 CURVE",
"491 36 LINE SMOOTH",
"493 33 OFFCURVE",
"492 30 OFFCURVE",
"488 30 CURVE SMOOTH",
"75 30 LINE SMOOTH",
"72 30 OFFCURVE",
"70 32 OFFCURVE",
"70 35 CURVE SMOOTH"
);
}
);
width = 584;
}
);
note = .notdef;
},
{
glyphname = A;
lastChange = "2016-07-14 20:24:03 +0000";
layers = (
{
anchors = (
{
name = bottom;
position = "{325, 0}";
},
{
name = ogonek;
position = "{584, 10}";
},
{
name = top;
position = "{325, 700}";
}
);
layerId = "254266E2-2911-423D-9D37-8CC6105656EE";
paths = (
{
closed = 1;
nodes = (
"312 657 LINE",
"573 13 LINE SMOOTH",
"577 2 OFFCURVE",
"589 -3 OFFCURVE",
"601 1 CURVE SMOOTH",
"612 5 OFFCURVE",
"617 16 OFFCURVE",
"613 27 CURVE SMOOTH",
"344 689 LINE",
"341 698 OFFCURVE",
"333 703 OFFCURVE",
"324 702 CURVE",
"316 703 OFFCURVE",
"308 698 OFFCURVE",
"305 689 CURVE",
"36 27 LINE SMOOTH",
"32 16 OFFCURVE",
"37 5 OFFCURVE",
"48 1 CURVE SMOOTH",
"59 -3 OFFCURVE",
"70 2 OFFCURVE",
"74 13 CURVE SMOOTH",
"327 649 LINE"
);
},
{
closed = 1;
nodes = (
"490 217 LINE",
"480 257 LINE",
"156 257 LINE",
"142 217 LINE"
);
}
);
width = 649;
},
{
layerId = "8816CCA3-DDF9-4C51-BD56-64EE3675A105";
paths = (
{
closed = 1;
nodes = (
"303 531 LINE",
"513 37 LINE SMOOTH",
"527 4 OFFCURVE",
"557 -13 OFFCURVE",
"589 0 CURVE SMOOTH",
"622 13 OFFCURVE",
"638 46 OFFCURVE",
"624 79 CURVE SMOOTH",
"378 664 LINE SMOOTH",
"368 689 OFFCURVE",
"346 704 OFFCURVE",
"322 704 CURVE",
"296 706 OFFCURVE",
"273 691 OFFCURVE",
"262 664 CURVE SMOOTH",
"18 79 LINE",
"7 46 OFFCURVE",
"20 13 OFFCURVE",
"47 1 CURVE",
"78 -11 OFFCURVE",
"109 4 OFFCURVE",
"121 37 CURVE",
"332 537 LINE"
);
},
{
closed = 1;
nodes = (
"491 157 LINE",
"472 272 LINE",
"202 272 LINE",
"171 157 LINE"
);
}
);
width = 643;
}
);
leftKerningGroup = A;
note = A;
rightKerningGroup = A;
unicode = 0041;
},
{
glyphname = Aogonek;
lastChange = "2016-07-18 23:50:23 +0000";
layers = (
{
anchors = (
{
name = _ogonek;
position = "{665, 10}";
}
);
components = (
{
name = A;
}
);
layerId = "254266E2-2911-423D-9D37-8CC6105656EE";
paths = (
{
closed = 1;
nodes = (
"530 9 OFFCURVE",
"486 -31 OFFCURVE",
"486 -93 CURVE",
"486 -149 OFFCURVE",
"530 -185 OFFCURVE",
"574 -185 CURVE",
"615 -185 OFFCURVE",
"646 -163 OFFCURVE",
"646 -136 CURVE",
"646 -129 OFFCURVE",
"641 -122 OFFCURVE",
"632 -122 CURVE",
"615 -122 OFFCURVE",
"617 -148 OFFCURVE",
"579 -148 CURVE",
"551 -148 OFFCURVE",
"524 -125 OFFCURVE",
"524 -85 CURVE",
"524 -46 OFFCURVE",
"559 -9 OFFCURVE",
"595 0 CURVE",
"591 23 LINE",
"572 23 LINE"
);
}
);
width = 649;
},
{
components = (
{
name = A;
},
{
name = ogonekcomb.case;
}
);
layerId = "8816CCA3-DDF9-4C51-BD56-64EE3675A105";
width = 600;
}
);
unicode = 0104;
},
{
glyphname = AE;
lastChange = "2016-07-18 23:49:11 +0000";
layers = (
{
anchors = (
{
name = bottom;
position = "{466, 0}";
},
{
name = top;
position = "{633, 700}";
}
);
layerId = "254266E2-2911-423D-9D37-8CC6105656EE";
paths = (
{
closed = 1;
nodes = (
"508 40 LINE SMOOTH",
"505 40 OFFCURVE",
"514 27 OFFCURVE",
"514 30 CURVE SMOOTH",
"514 300 LINE SMOOTH",
"514 303 OFFCURVE",
"503 291 OFFCURVE",
"506 291 CURVE SMOOTH",
"816 291 LINE SMOOTH",
"827 291 OFFCURVE",
"836 299 OFFCURVE",
"836 311 CURVE SMOOTH",
"836 322 OFFCURVE",
"827 331 OFFCURVE",
"816 331 CURVE SMOOTH",
"508 331 LINE SMOOTH",
"505 331 OFFCURVE",
"514 318 OFFCURVE",
"514 321 CURVE SMOOTH",
"514 670 LINE SMOOTH",
"514 673 OFFCURVE",
"504 660 OFFCURVE",
"507 660 CURVE SMOOTH",
"861 660 LINE SMOOTH",
"872 660 OFFCURVE",
"881 668 OFFCURVE",
"881 680 CURVE SMOOTH",
"881 691 OFFCURVE",
"872 700 OFFCURVE",
"861 700 CURVE SMOOTH",
"492 700 LINE SMOOTH",
"485 700 OFFCURVE",
"479 697 OFFCURVE",
"474 691 CURVE",
"15 37 LINE SMOOTH",
"9 28 OFFCURVE",
"11 16 OFFCURVE",
"20 9 CURVE SMOOTH",
"29 2 OFFCURVE",
"41 5 OFFCURVE",
"48 14 CURVE",
"162 177 LINE",
"474 177 LINE",
"474 20 LINE SMOOTH",
"474 9 OFFCURVE",
"483 0 OFFCURVE",
"494 0 CURVE SMOOTH",
"861 0 LINE SMOOTH",
"872 0 OFFCURVE",
"881 8 OFFCURVE",
"881 20 CURVE SMOOTH",
"881 31 OFFCURVE",
"872 40 OFFCURVE",
"861 40 CURVE SMOOTH"
);
},
{
closed = 1;
nodes = (
"474 621 LINE",
"474 217 LINE",
"191 217 LINE"
);
}
);
width = 931;
},
{
layerId = "8816CCA3-DDF9-4C51-BD56-64EE3675A105";
paths = (
{
closed = 1;
nodes = (
"547 120 LINE SMOOTH",
"541 120 OFFCURVE",
"537 124 OFFCURVE",
"537 130 CURVE SMOOTH",
"537 240 LINE SMOOTH",
"537 247 OFFCURVE",
"541 250 OFFCURVE",
"547 250 CURVE SMOOTH",
"758 250 LINE SMOOTH",
"793 250 OFFCURVE",
"819 275 OFFCURVE",
"819 309 CURVE SMOOTH",
"819 344 OFFCURVE",
"793 370 OFFCURVE",
"758 370 CURVE SMOOTH",
"547 370 LINE SMOOTH",
"541 370 OFFCURVE",
"537 374 OFFCURVE",
"537 380 CURVE SMOOTH",
"537 570 LINE SMOOTH",
"537 577 OFFCURVE",
"540 580 OFFCURVE",
"547 580 CURVE SMOOTH",
"803 580 LINE SMOOTH",
"838 580 OFFCURVE",
"864 605 OFFCURVE",
"864 639 CURVE SMOOTH",
"864 674 OFFCURVE",
"838 700 OFFCURVE",
"803 700 CURVE SMOOTH",
"481 700 LINE",
"460 703 OFFCURVE",
"439 694 OFFCURVE",
"425 674 CURVE SMOOTH",
"17 97 LINE SMOOTH",
"-3 68 OFFCURVE",
"2 32 OFFCURVE",
"30 13 CURVE SMOOTH",
"59 -8 OFFCURVE",
"95 -2 OFFCURVE",
"115 27 CURVE SMOOTH",
"190 133 LINE",
"191 135 OFFCURVE",
"193 136 OFFCURVE",
"196 136 CURVE SMOOTH",
"412 136 LINE SMOOTH",
"415 136 OFFCURVE",
"417 134 OFFCURVE",
"417 131 CURVE SMOOTH",
"417 61 LINE SMOOTH",
"417 26 OFFCURVE",
"443 0 OFFCURVE",
"478 0 CURVE SMOOTH",
"803 0 LINE SMOOTH",
"838 0 OFFCURVE",
"864 25 OFFCURVE",
"864 59 CURVE SMOOTH",
"864 94 OFFCURVE",
"838 120 OFFCURVE",
"803 120 CURVE SMOOTH"
);
},
{
closed = 1;
nodes = (
"284 256 LINE SMOOTH",
"280 256 OFFCURVE",
"279 259 OFFCURVE",
"281 262 CURVE SMOOTH",
"411 445 LINE SMOOTH",
"414 449 OFFCURVE",
"417 448 OFFCURVE",
"417 444 CURVE SMOOTH",
"417 261 LINE SMOOTH",
"417 258 OFFCURVE",
"415 256 OFFCURVE",
"412 256 CURVE SMOOTH"
);
}
);
width = 909;
}
);
leftMetricsKey = "+10";
note = AE;
rightMetricsKey = "+10";
unicode = 00C6;
},
{
glyphname = B;
lastChange = "2016-07-14 20:24:03 +0000";
layers = (
{
anchors = (
{
name = bottom;
position = "{325, 0}";
},
{
name = top;
position = "{325, 700}";
}
);
layerId = "254266E2-2911-423D-9D37-8CC6105656EE";
paths = (
{
closed = 1;
nodes = (
"120 700 LINE",
"109 700 OFFCURVE",
"100 691 OFFCURVE",
"100 680 CURVE",
"100 20 LINE",
"100 9 OFFCURVE",
"109 0 OFFCURVE",
"120 0 CURVE",
"396 0 LINE",
"509 0 OFFCURVE",
"600 62 OFFCURVE",
"600 189 CURVE",
"600 308 OFFCURVE",
"518 370 OFFCURVE",
"414 370 CURVE",
"421 358 LINE",
"514 365 OFFCURVE",
"565 447 OFFCURVE",
"565 530 CURVE",
"565 634 OFFCURVE",
"496 700 OFFCURVE",
"389 700 CURVE"
);
},
{
closed = 1;
nodes = (
"473 660 OFFCURVE",
"523 608 OFFCURVE",
"523 531 CURVE",
"523 431 OFFCURVE",
"463 380 OFFCURVE",
"384 379 CURVE",
"132 379 LINE",
"142 362 LINE",
"142 679 LINE",
"131 660 LINE",
"384 660 LINE"
);
},
{
closed = 1;
nodes = (
"485 338 OFFCURVE",
"558 293 OFFCURVE",
"558 189 CURVE",
"558 85 OFFCURVE",
"485 40 OFFCURVE",
"391 40 CURVE",
"137 40 LINE",
"142 32 LINE",
"142 344 LINE",
"138 338 LINE",
"391 338 LINE"
);
}
);
width = 650;
},
{
layerId = "8816CCA3-DDF9-4C51-BD56-64EE3675A105";
paths = (
{
closed = 1;
nodes = (
"136 700 LINE",
"101 700 OFFCURVE",
"75 674 OFFCURVE",
"75 639 CURVE",
"75 61 LINE",
"75 26 OFFCURVE",
"101 0 OFFCURVE",
"136 0 CURVE",
"385 0 LINE",
"484 0 OFFCURVE",
"615 36 OFFCURVE",
"615 213 CURVE",
"615 373 OFFCURVE",
"462 410 OFFCURVE",
"380 410 CURVE",
"376 365 LINE",
"508 365 OFFCURVE",
"578 428 OFFCURVE",
"578 522 CURVE",
"578 639 OFFCURVE",
"516 700 OFFCURVE",
"388 700 CURVE"
);
},
{
closed = 1;
nodes = (
"417 580 OFFCURVE",
"448 557 OFFCURVE",
"448 500 CURVE",
"448 452 OFFCURVE",
"411 426 OFFCURVE",
"373 426 CURVE",
"193 426 LINE",
"205 417 LINE",
"205 596 LINE",
"192 580 LINE",
"370 580 LINE"
);
},
{
closed = 1;
nodes = (
"419 306 OFFCURVE",
"485 302 OFFCURVE",
"485 213 CURVE",
"485 148 OFFCURVE",
"446 120 OFFCURVE",
"385 120 CURVE",
"195 120 LINE",
"205 110 LINE",
"205 314 LINE",
"196 306 LINE",
"378 306 LINE"
);
}
);
width = 655;
}
);
leftMetricsKey = H;
note = B;
rightKerningGroup = B;
rightMetricsKey = O;
unicode = 0042;
},
{
glyphname = C;
lastChange = "2016-07-14 20:43:15 +0000";
layers = (
{
anchors = (
{
name = bottom;
position = "{331, 0}";
},
{
name = top;
position = "{399, 700}";
}
);
layerId = "254266E2-2911-423D-9D37-8CC6105656EE";
paths = (
{
closed = 1;
nodes = (
"558 684 OFFCURVE",
"480 710 OFFCURVE",
"399 710 CURVE",
"208 710 OFFCURVE",
"50 557 OFFCURVE",
"50 350 CURVE",
"50 143 OFFCURVE",
"208 -10 OFFCURVE",
"399 -10 CURVE",
"480 -10 OFFCURVE",
"570 23 OFFCURVE",
"619 58 CURVE",
"628 65 OFFCURVE",
"630 77 OFFCURVE",
"623 86 CURVE",
"616 95 OFFCURVE",
"604 97 OFFCURVE",
"595 90 CURVE",
"539 52 OFFCURVE",
"474 28 OFFCURVE",
"399 28 CURVE",
"229 28 OFFCURVE",
"90 161 OFFCURVE",
"90 350 CURVE",
"90 539 OFFCURVE",
"229 672 OFFCURVE",
"399 672 CURVE",
"473 672 OFFCURVE",
"540 647 OFFCURVE",
"596 609 CURVE",
"605 603 OFFCURVE",
"616 604 OFFCURVE",
"623 613 CURVE",
"630 624 OFFCURVE",
"628 634 OFFCURVE",
"618 642 CURVE"
);
}
);
width = 662;
},
{
layerId = "8816CCA3-DDF9-4C51-BD56-64EE3675A105";
paths = (
{
closed = 1;
nodes = (
"516 691 OFFCURVE",
"459 705 OFFCURVE",
"400 705 CURVE",
"191 705 OFFCURVE",
"40 556 OFFCURVE",
"40 350 CURVE",
"40 112 OFFCURVE",
"209 -10 OFFCURVE",
"400 -10 CURVE",
"457 -10 OFFCURVE",
"514 3 OFFCURVE",
"566 29 CURVE",
"599 45 OFFCURVE",
"608 85 OFFCURVE",
"582 119 CURVE",
"563 143 OFFCURVE",
"534 146 OFFCURVE",
"506 133 CURVE",
"473 116 OFFCURVE",
"436 110 OFFCURVE",
"400 110 CURVE",
"269 110 OFFCURVE",
"160 187 OFFCURVE",
"160 350 CURVE",
"160 489 OFFCURVE",
"257 585 OFFCURVE",
"400 585 CURVE",
"438 585 OFFCURVE",
"474 577 OFFCURVE",
"506 562 CURVE",
"534 548 OFFCURVE",
"563 550 OFFCURVE",
"581 574 CURVE",
"606 605 OFFCURVE",
"600 648 OFFCURVE",
"565 666 CURVE"
);
}
);
width = 627;
}
);
leftKerningGroup = C;
leftMetricsKey = O;
note = C;
unicode = 0043;
},
{
glyphname = D;
lastChange = "2016-07-14 20:42:51 +0000";
layers = (
{
anchors = (
{
name = bottom;
position = "{360, 0}";
},
{
name = center;
position = "{360, 350}";
},
{
name = top;
position = "{313, 700}";
}
);
layerId = "254266E2-2911-423D-9D37-8CC6105656EE";
paths = (
{
closed = 1;
nodes = (
"120 700 LINE SMOOTH",
"109 700 OFFCURVE",
"100 691 OFFCURVE",
"100 680 CURVE SMOOTH",
"100 20 LINE SMOOTH",
"100 9 OFFCURVE",
"109 0 OFFCURVE",
"120 0 CURVE SMOOTH",
"380 0 LINE SMOOTH",
"581 0 OFFCURVE",
"670 158 OFFCURVE",
"670 350 CURVE SMOOTH",
"670 532 OFFCURVE",
"581 700 OFFCURVE",
"380 700 CURVE SMOOTH"
);
},
{
closed = 1;
nodes = (
"136 40 LINE",
"142 31 LINE",
"142 668 LINE",
"136 660 LINE",
"370 660 LINE SMOOTH",
"553 660 OFFCURVE",
"628 513 OFFCURVE",
"628 350 CURVE SMOOTH",
"628 177 OFFCURVE",
"553 40 OFFCURVE",
"370 40 CURVE SMOOTH"
);
}
);
width = 720;
},
{
layerId = "8816CCA3-DDF9-4C51-BD56-64EE3675A105";
paths = (
{
closed = 1;
nodes = (
"136 700 LINE SMOOTH",
"101 700 OFFCURVE",
"75 674 OFFCURVE",
"75 639 CURVE SMOOTH",
"75 61 LINE SMOOTH",
"75 26 OFFCURVE",
"101 0 OFFCURVE",
"136 0 CURVE SMOOTH",
"375 0 LINE SMOOTH",
"568 0 OFFCURVE",
"675 156 OFFCURVE",
"675 350 CURVE SMOOTH",
"675 543 OFFCURVE",
"568 700 OFFCURVE",
"375 700 CURVE SMOOTH"
);
},
{
closed = 1;
nodes = (
"199 120 LINE",
"205 109 LINE",
"205 589 LINE",
"195 580 LINE",
"365 580 LINE SMOOTH",
"491 580 OFFCURVE",
"545 476 OFFCURVE",
"545 350 CURVE SMOOTH",
"545 223 OFFCURVE",
"491 120 OFFCURVE",
"365 120 CURVE SMOOTH"
);
}
);
width = 715;
}
);
leftMetricsKey = H;
note = D;
rightKerningGroup = D;
rightMetricsKey = O;
unicode = 0044;
},
{
glyphname = Eth;
lastChange = "2016-07-12 18:02:28 +0000";
layers = (
{
layerId = "254266E2-2911-423D-9D37-8CC6105656EE";
paths = (
{
closed = 1;
nodes = (
"134 700 LINE SMOOTH",
"123 700 OFFCURVE",
"114 691 OFFCURVE",
"114 680 CURVE SMOOTH",
"114 370 LINE",
"48 370 LINE SMOOTH",
"34 370 OFFCURVE",
"24 363 OFFCURVE",
"24 350 CURVE SMOOTH",
"24 336 OFFCURVE",
"33 330 OFFCURVE",
"48 330 CURVE SMOOTH",
"114 330 LINE",
"114 20 LINE SMOOTH",
"114 9 OFFCURVE",
"123 0 OFFCURVE",
"134 0 CURVE SMOOTH",
"354 0 LINE SMOOTH",
"555 0 OFFCURVE",
"644 158 OFFCURVE",
"644 350 CURVE SMOOTH",
"644 532 OFFCURVE",
"555 700 OFFCURVE",
"354 700 CURVE SMOOTH"
);
},
{
closed = 1;
nodes = (
"159 40 LINE SMOOTH",
"156 40 OFFCURVE",
"154 42 OFFCURVE",
"154 45 CURVE SMOOTH",
"154 330 LINE",
"268 330 LINE SMOOTH",
"282 330 OFFCURVE",
"292 338 OFFCURVE",
"292 350 CURVE SMOOTH",
"292 364 OFFCURVE",
"282 370 OFFCURVE",
"268 370 CURVE SMOOTH",
"154 370 LINE",
"154 655 LINE SMOOTH",
"154 658 OFFCURVE",
"156 660 OFFCURVE",
"159 660 CURVE SMOOTH",
"344 660 LINE SMOOTH",
"527 660 OFFCURVE",
"604 513 OFFCURVE",
"604 350 CURVE SMOOTH",
"604 177 OFFCURVE",
"527 40 OFFCURVE",
"344 40 CURVE SMOOTH"
);
}
);
width = 659;
},
{
layerId = "8816CCA3-DDF9-4C51-BD56-64EE3675A105";
paths = (
{
closed = 1;
nodes = (
"146 700 LINE SMOOTH",
"111 700 OFFCURVE",
"85 674 OFFCURVE",
"85 639 CURVE SMOOTH",
"85 415 LINE SMOOTH",
"85 412 OFFCURVE",
"83 410 OFFCURVE",
"80 410 CURVE SMOOTH",
"67 410 LINE SMOOTH",
"32 410 OFFCURVE",
"6 385 OFFCURVE",
"6 351 CURVE SMOOTH",
"6 316 OFFCURVE",
"32 291 OFFCURVE",
"67 291 CURVE SMOOTH",
"80 291 LINE SMOOTH",
"83 291 OFFCURVE",
"85 289 OFFCURVE",
"85 286 CURVE SMOOTH",
"85 61 LINE SMOOTH",
"85 26 OFFCURVE",
"111 0 OFFCURVE",
"146 0 CURVE SMOOTH",
"345 0 LINE SMOOTH",
"538 0 OFFCURVE",
"645 156 OFFCURVE",
"645 350 CURVE SMOOTH",
"645 543 OFFCURVE",
"538 700 OFFCURVE",
"345 700 CURVE SMOOTH"
);
},
{
closed = 1;
nodes = (
"215 120 LINE SMOOTH",
"209 120 OFFCURVE",
"205 124 OFFCURVE",
"205 130 CURVE SMOOTH",
"205 286 LINE SMOOTH",
"205 289 OFFCURVE",
"207 291 OFFCURVE",
"210 291 CURVE SMOOTH",
"241 291 LINE SMOOTH",
"276 291 OFFCURVE",
"302 315 OFFCURVE",
"302 349 CURVE SMOOTH",
"302 384 OFFCURVE",
"276 410 OFFCURVE",
"241 410 CURVE SMOOTH",
"210 410 LINE SMOOTH",
"207 410 OFFCURVE",
"205 412 OFFCURVE",
"205 415 CURVE SMOOTH",
"205 570 LINE SMOOTH",
"205 577 OFFCURVE",
"209 580 OFFCURVE",
"215 580 CURVE SMOOTH",
"345 580 LINE SMOOTH",
"471 580 OFFCURVE",
"525 476 OFFCURVE",
"525 350 CURVE SMOOTH",
"525 223 OFFCURVE",
"471 120 OFFCURVE",
"345 120 CURVE SMOOTH"
);
}
);
width = 690;
}
);
leftMetricsKey = "+10";
note = Eth;
rightMetricsKey = "+10";
unicode = 00D0;
},
{
glyphname = E;
lastChange = "2016-07-18 23:48:25 +0000";
layers = (
{
anchors = (
{
name = bottom;
position = "{320, 0}";
},
{
name = ogonek;
position = "{510, 10}";
},
{
name = top;
position = "{322, 700}";
},
{
name = topleft;
position = "{20, 700}";
}
);
layerId = "254266E2-2911-423D-9D37-8CC6105656EE";
paths = (
{
closed = 1;
nodes = (
"109 700 OFFCURVE",
"100 691 OFFCURVE",
"100 680 CURVE SMOOTH",
"100 20 LINE SMOOTH",
"100 9 OFFCURVE",
"109 0 OFFCURVE",
"120 0 CURVE SMOOTH",
"497 0 LINE SMOOTH",
"508 0 OFFCURVE",
"517 8 OFFCURVE",
"517 20 CURVE SMOOTH",
"517 31 OFFCURVE",
"508 40 OFFCURVE",
"497 40 CURVE SMOOTH",
"138 40 LINE",
"142 35 LINE",
"142 352 LINE",
"132 341 LINE",
"452 341 LINE SMOOTH",
"463 341 OFFCURVE",
"472 349 OFFCURVE",
"472 361 CURVE SMOOTH",
"472 372 OFFCURVE",
"463 381 OFFCURVE",
"452 381 CURVE SMOOTH",
"130 381 LINE",
"142 367 LINE",
"142 677 LINE",
"132 660 LINE",
"497 660 LINE SMOOTH",
"508 660 OFFCURVE",
"517 668 OFFCURVE",
"517 680 CURVE SMOOTH",
"517 691 OFFCURVE",
"508 700 OFFCURVE",
"497 700 CURVE SMOOTH",
"120 700 LINE SMOOTH"
);
}
);
width = 567;
},
{
layerId = "8816CCA3-DDF9-4C51-BD56-64EE3675A105";
paths = (
{
closed = 1;
nodes = (
"101 700 OFFCURVE",
"75 674 OFFCURVE",
"75 639 CURVE",
"75 61 LINE",
"75 26 OFFCURVE",
"101 0 OFFCURVE",
"136 0 CURVE",
"471 0 LINE",
"506 0 OFFCURVE",
"532 25 OFFCURVE",
"532 59 CURVE",
"532 94 OFFCURVE",
"506 120 OFFCURVE",
"471 120 CURVE",
"197 120 LINE",
"205 111 LINE",
"205 303 LINE",
"200 295 LINE",
"426 295 LINE",
"461 295 OFFCURVE",
"487 320 OFFCURVE",
"487 354 CURVE",
"487 389 OFFCURVE",
"461 415 OFFCURVE",
"426 415 CURVE",
"197 415 LINE",
"205 407 LINE",
"205 597 LINE",
"196 580 LINE",
"471 580 LINE",
"506 580 OFFCURVE",
"532 605 OFFCURVE",
"532 639 CURVE",
"532 674 OFFCURVE",
"506 700 OFFCURVE",
"471 700 CURVE",
"136 700 LINE"
);
}
);
width = 572;
}
);
leftMetricsKey = H;
note = E;
rightKerningGroup = E;
unicode = 0045;
},
{
glyphname = Eogonek;
lastChange = "2016-07-14 20:40:27 +0000";
layers = (
{
anchors = (
{
name = top;
position = "{304, 700}";
}
);
components = (
{
name = E;
},
{
name = ogonekcomb.case;
transform = "{1, 0, 0, 1, 281, 0}";
}
);
layerId = "254266E2-2911-423D-9D37-8CC6105656EE";
width = 567;
},
{
layerId = "8816CCA3-DDF9-4C51-BD56-64EE3675A105";
paths = (
{
closed = 1;
nodes = (
"215 120 LINE SMOOTH",
"209 120 OFFCURVE",
"205 124 OFFCURVE",
"205 130 CURVE SMOOTH",
"205 240 LINE SMOOTH",
"205 247 OFFCURVE",
"209 250 OFFCURVE",
"215 250 CURVE SMOOTH",
"426 250 LINE SMOOTH",
"461 250 OFFCURVE",
"487 275 OFFCURVE",
"487 309 CURVE SMOOTH",
"487 344 OFFCURVE",
"461 370 OFFCURVE",
"426 370 CURVE SMOOTH",
"215 370 LINE SMOOTH",
"209 370 OFFCURVE",
"205 374 OFFCURVE",
"205 380 CURVE SMOOTH",
"205 570 LINE SMOOTH",
"205 577 OFFCURVE",
"208 580 OFFCURVE",
"215 580 CURVE SMOOTH",
"471 580 LINE SMOOTH",
"506 580 OFFCURVE",
"532 605 OFFCURVE",
"532 639 CURVE SMOOTH",
"532 674 OFFCURVE",
"506 700 OFFCURVE",
"471 700 CURVE SMOOTH",
"146 700 LINE SMOOTH",
"111 700 OFFCURVE",
"85 674 OFFCURVE",
"85 639 CURVE SMOOTH",
"85 61 LINE SMOOTH",
"85 26 OFFCURVE",
"111 0 OFFCURVE",
"146 0 CURVE SMOOTH",
"315 0 LINE",
"292 -23 OFFCURVE",
"276 -54 OFFCURVE",
"276 -95 CURVE SMOOTH",
"276 -189 OFFCURVE",
"378 -232 OFFCURVE",
"471 -192 CURVE SMOOTH",
"492 -183 OFFCURVE",
"497 -164 OFFCURVE",
"489 -147 CURVE SMOOTH",
"481 -130 OFFCURVE",
"464 -126 OFFCURVE",
"446 -134 CURVE SMOOTH",
"410 -150 OFFCURVE",
"376 -126 OFFCURVE",
"370 -96 CURVE SMOOTH",
"364 -67 OFFCURVE",
"370 -34 OFFCURVE",
"423 0 CURVE",
"471 0 LINE SMOOTH",
"506 0 OFFCURVE",
"532 25 OFFCURVE",
"532 59 CURVE SMOOTH",
"532 94 OFFCURVE",
"506 120 OFFCURVE",
"471 120 CURVE SMOOTH"
);
}
);
width = 577;
}
);
leftMetricsKey = E;
note = Eogonek;
rightMetricsKey = E;
unicode = 0118;
},
{
glyphname = F;
lastChange = "2016-07-14 20:24:03 +0000";
layers = (
{
anchors = (
{
name = bottom;
position = "{284, 0}";
},
{
name = top;
position = "{284, 700}";
}
);
layerId = "254266E2-2911-423D-9D37-8CC6105656EE";
paths = (
{
closed = 1;
nodes = (
"497 660 LINE SMOOTH",
"508 660 OFFCURVE",
"517 668 OFFCURVE",
"517 680 CURVE SMOOTH",
"517 691 OFFCURVE",
"508 700 OFFCURVE",
"497 700 CURVE SMOOTH",
"120 700 LINE SMOOTH",
"109 700 OFFCURVE",
"100 691 OFFCURVE",
"100 680 CURVE SMOOTH",
"100 20 LINE SMOOTH",
"100 9 OFFCURVE",
"108 0 OFFCURVE",
"120 0 CURVE SMOOTH",
"132 0 OFFCURVE",
"140 9 OFFCURVE",
"140 20 CURVE SMOOTH",
"140 352 LINE",
"134 344 LINE",
"452 344 LINE SMOOTH",
"463 344 OFFCURVE",
"472 352 OFFCURVE",
"472 364 CURVE SMOOTH",
"472 375 OFFCURVE",
"463 384 OFFCURVE",
"452 384 CURVE SMOOTH",
"136 384 LINE",
"140 376 LINE",
"140 664 LINE",
"137 660 LINE"
);
}
);
width = 567;
},
{
layerId = "8816CCA3-DDF9-4C51-BD56-64EE3675A105";
paths = (
{
closed = 1;
nodes = (
"461 580 LINE",
"496 580 OFFCURVE",
"522 605 OFFCURVE",
"522 639 CURVE",
"522 674 OFFCURVE",
"496 700 OFFCURVE",
"461 700 CURVE",
"136 700 LINE",
"101 700 OFFCURVE",
"75 674 OFFCURVE",
"75 639 CURVE",
"75 61 LINE",
"75 26 OFFCURVE",
"102 0 OFFCURVE",
"140 0 CURVE",
"178 0 OFFCURVE",
"205 26 OFFCURVE",
"205 61 CURVE",
"205 298 LINE",
"196 289 LINE",
"416 289 LINE",
"451 289 OFFCURVE",
"477 314 OFFCURVE",
"477 348 CURVE",
"477 383 OFFCURVE",
"451 409 OFFCURVE",
"416 409 CURVE",
"198 409 LINE",
"205 396 LINE",
"205 592 LINE",
"196 580 LINE"
);
}
);
width = 562;
}
);
leftMetricsKey = H;
note = F;
rightKerningGroup = F;
unicode = 0046;
},
{
glyphname = G;
lastChange = "2016-07-18 23:47:54 +0000";
layers = (
{
anchors = (
{
name = bottom;
position = "{347, 0}";
},
{
name = top;
position = "{377, 700}";
}
);
layerId = "254266E2-2911-423D-9D37-8CC6105656EE";
paths = (
{
closed = 1;
nodes = (
"486 -10 OFFCURVE",
"561 16 OFFCURVE",
"620 56 CURVE",
"627 61 OFFCURVE",
"629 69 OFFCURVE",
"629 74 CURVE",
"629 325 LINE",
"629 336 OFFCURVE",
"621 345 OFFCURVE",
"609 345 CURVE",
"409 345 LINE",
"398 345 OFFCURVE",
"389 337 OFFCURVE",
"389 325 CURVE",
"389 314 OFFCURVE",
"398 305 OFFCURVE",
"409 305 CURVE",
"603 305 LINE",
"589 318 LINE",
"589 68 LINE",
"593 86 LINE",
"543 53 OFFCURVE",
"475 30 OFFCURVE",
"409 30 CURVE",
"223 30 OFFCURVE",
"92 164 OFFCURVE",
"92 350 CURVE",
"92 536 OFFCURVE",
"223 670 OFFCURVE",
"409 670 CURVE",
"474 670 OFFCURVE",
"533 651 OFFCURVE",
"583 623 CURVE",
"587 621 OFFCURVE",
"591 619 OFFCURVE",
"596 619 CURVE",
"603 619 OFFCURVE",
"615 625 OFFCURVE",
"615 639 CURVE",
"615 646 OFFCURVE",
"612 652 OFFCURVE",
"606 656 CURVE",
"552 692 OFFCURVE",
"482 710 OFFCURVE",
"409 710 CURVE",
"201 710 OFFCURVE",
"50 559 OFFCURVE",
"50 350 CURVE",
"50 141 OFFCURVE",
"201 -10 OFFCURVE",
"409 -10 CURVE"
);
}
);
width = 694;
},
{
layerId = "8816CCA3-DDF9-4C51-BD56-64EE3675A105";
paths = (
{
closed = 1;
nodes = (
"485 -10 OFFCURVE",
"559 13 OFFCURVE",
"620 51 CURVE",
"636 61 OFFCURVE",
"651 78 OFFCURVE",
"651 105 CURVE",
"651 317 LINE",
"651 352 OFFCURVE",
"626 378 OFFCURVE",
"591 378 CURVE",
"427 378 LINE",
"392 378 OFFCURVE",
"366 353 OFFCURVE",
"366 318 CURVE",
"366 283 OFFCURVE",
"392 258 OFFCURVE",
"427 258 CURVE",
"538 258 LINE",
"521 273 LINE",
"521 102 LINE",
"530 132 LINE",
"499 118 OFFCURVE",
"445 110 OFFCURVE",
"405 110 CURVE",
"275 110 OFFCURVE",
"170 219 OFFCURVE",
"170 350 CURVE",
"170 482 OFFCURVE",
"275 590 OFFCURVE",
"405 590 CURVE",
"446 590 OFFCURVE",
"484 581 OFFCURVE",
"517 567 CURVE",
"528 562 OFFCURVE",
"539 559 OFFCURVE",
"550 559 CURVE",
"583 559 OFFCURVE",
"607 589 OFFCURVE",
"607 621 CURVE",
"607 640 OFFCURVE",
"597 659 OFFCURVE",
"577 670 CURVE",
"528 697 OFFCURVE",
"467 710 OFFCURVE",
"405 710 CURVE",
"203 710 OFFCURVE",
"40 549 OFFCURVE",
"40 350 CURVE",
"40 151 OFFCURVE",
"203 -10 OFFCURVE",
"405 -10 CURVE"
);
}
);
width = 696;
}
);
leftKerningGroup = C;
leftMetricsKey = O;
note = G;
rightKerningGroup = G;
unicode = 0047;
},
{
glyphname = H;
lastChange = "2016-07-14 20:24:03 +0000";
layers = (
{
anchors = (
{
name = bottom;
position = "{360, 0}";
},
{
name = center;
position = "{360, 350}";
},
{
name = top;
position = "{360, 700}";
},
{
name = topleft;
position = "{20, 700}";
}
);
background = {
paths = (
{
closed = 1;
nodes = (
"587 700 OFFCURVE",
"579 691 OFFCURVE",
"579 680 CURVE SMOOTH",
"579 385 LINE SMOOTH",
"579 382 OFFCURVE",
"577 380 OFFCURVE",
"574 380 CURVE SMOOTH",
"145 380 LINE SMOOTH",
"142 380 OFFCURVE",
"140 382 OFFCURVE",
"140 385 CURVE SMOOTH",
"140 680 LINE SMOOTH",
"140 691 OFFCURVE",
"132 700 OFFCURVE",
"120 700 CURVE SMOOTH",
"109 700 OFFCURVE",
"100 691 OFFCURVE",
"100 680 CURVE SMOOTH",
"100 20 LINE SMOOTH",
"100 9 OFFCURVE",
"108 0 OFFCURVE",
"120 0 CURVE SMOOTH",
"131 0 OFFCURVE",
"140 9 OFFCURVE",
"140 20 CURVE SMOOTH",
"140 335 LINE SMOOTH",
"140 338 OFFCURVE",
"142 340 OFFCURVE",
"145 340 CURVE SMOOTH",
"574 340 LINE SMOOTH",
"577 340 OFFCURVE",
"579 338 OFFCURVE",
"579 335 CURVE SMOOTH",
"579 20 LINE SMOOTH",
"579 9 OFFCURVE",
"587 0 OFFCURVE",
"599 0 CURVE SMOOTH",
"610 0 OFFCURVE",
"619 9 OFFCURVE",
"619 20 CURVE SMOOTH",
"619 680 LINE SMOOTH",
"619 691 OFFCURVE",
"611 700 OFFCURVE",
"599 700 CURVE SMOOTH"
);
}
);
};
layerId = "254266E2-2911-423D-9D37-8CC6105656EE";
paths = (
{
closed = 1;
nodes = (
"109 700 OFFCURVE",
"100 691 OFFCURVE",
"100 679 CURVE SMOOTH",
"100 21 LINE SMOOTH",
"100 9 OFFCURVE",
"108 0 OFFCURVE",
"121 0 CURVE SMOOTH",
"132 0 OFFCURVE",
"141 9 OFFCURVE",
"142 21 CURVE",
"142 679 LINE SMOOTH",
"142 691 OFFCURVE",
"133 700 OFFCURVE",
"121 700 CURVE SMOOTH"
);
},
{
closed = 1;
nodes = (
"587 700 OFFCURVE",
"578 691 OFFCURVE",
"578 679 CURVE SMOOTH",
"578 21 LINE SMOOTH",
"578 9 OFFCURVE",
"586 0 OFFCURVE",
"599 0 CURVE SMOOTH",
"610 0 OFFCURVE",
"619 9 OFFCURVE",
"620 21 CURVE",
"620 679 LINE SMOOTH",
"620 691 OFFCURVE",
"611 700 OFFCURVE",
"599 700 CURVE SMOOTH"
);
},
{
closed = 1;
nodes = (
"110 340 LINE",
"599 340 LINE",
"601 380 LINE",
"116 380 LINE"
);
}
);
width = 720;
},
{
background = {
paths = (
{
closed = 1;
nodes = (
"539 419 LINE SMOOTH",
"539 413 OFFCURVE",
"535 409 OFFCURVE",
"529 409 CURVE SMOOTH",
"210 409 LINE SMOOTH",
"204 409 OFFCURVE",
"200 412 OFFCURVE",
"200 419 CURVE SMOOTH",
"200 639 LINE SMOOTH",
"200 674 OFFCURVE",
"175 700 OFFCURVE",
"140 700 CURVE SMOOTH",
"105 700 OFFCURVE",
"80 674 OFFCURVE",
"80 639 CURVE SMOOTH",
"80 61 LINE SMOOTH",
"80 26 OFFCURVE",
"105 0 OFFCURVE",
"140 0 CURVE SMOOTH",
"175 0 OFFCURVE",
"200 26 OFFCURVE",
"200 61 CURVE SMOOTH",
"200 279 LINE SMOOTH",
"200 286 OFFCURVE",
"204 289 OFFCURVE",
"210 289 CURVE SMOOTH",
"529 289 LINE SMOOTH",
"536 289 OFFCURVE",
"539 286 OFFCURVE",
"539 279 CURVE SMOOTH",
"539 61 LINE SMOOTH",
"539 26 OFFCURVE",
"564 0 OFFCURVE",
"599 0 CURVE SMOOTH",
"634 0 OFFCURVE",
"659 26 OFFCURVE",
"659 61 CURVE SMOOTH",
"659 639 LINE SMOOTH",
"659 674 OFFCURVE",
"634 700 OFFCURVE",
"599 700 CURVE SMOOTH",
"564 700 OFFCURVE",
"539 674 OFFCURVE",
"539 639 CURVE SMOOTH"
);
}
);
};
layerId = "8816CCA3-DDF9-4C51-BD56-64EE3675A105";
paths = (
{
closed = 1;
nodes = (
"103 700 OFFCURVE",
"75 674 OFFCURVE",
"75 639 CURVE SMOOTH",
"75 61 LINE SMOOTH",
"75 26 OFFCURVE",
"102 0 OFFCURVE",
"139 0 CURVE SMOOTH",
"177 0 OFFCURVE",
"205 26 OFFCURVE",
"205 61 CURVE SMOOTH",
"205 639 LINE SMOOTH",
"205 674 OFFCURVE",
"178 700 OFFCURVE",
"141 700 CURVE SMOOTH"
);
},
{
closed = 1;
nodes = (
"542 700 OFFCURVE",
"514 674 OFFCURVE",
"514 639 CURVE SMOOTH",
"514 61 LINE SMOOTH",
"514 26 OFFCURVE",
"541 0 OFFCURVE",
"578 0 CURVE SMOOTH",
"616 0 OFFCURVE",
"644 26 OFFCURVE",
"644 61 CURVE SMOOTH",
"644 639 LINE SMOOTH",
"644 674 OFFCURVE",
"617 700 OFFCURVE",
"580 700 CURVE SMOOTH"
);
},
{
closed = 1;
nodes = (
"138 290 LINE",
"580 290 LINE",
"580 409 LINE",
"138 409 LINE"
);
}
);
width = 719;
}
);
leftMetricsKey = H;
note = H;
rightMetricsKey = H;
unicode = 0048;
},
{
glyphname = Hbar;
lastChange = "2016-07-14 20:44:33 +0000";
layers = (
{
components = (
{
name = H;
transform = "{1, 0, 0, 1, 60, 0}";
}
);
layerId = "254266E2-2911-423D-9D37-8CC6105656EE";
paths = (
{
closed = 1;
nodes = (
"721 489 LINE SMOOTH",
"732 489 OFFCURVE",
"741 497 OFFCURVE",
"741 509 CURVE SMOOTH",
"741 520 OFFCURVE",
"732 529 OFFCURVE",
"721 529 CURVE SMOOTH",
"120 529 LINE SMOOTH",
"109 529 OFFCURVE",
"100 521 OFFCURVE",
"100 509 CURVE SMOOTH",
"100 498 OFFCURVE",
"109 489 OFFCURVE",
"120 489 CURVE SMOOTH"
);
}
);
width = 841;
},
{
layerId = "8816CCA3-DDF9-4C51-BD56-64EE3675A105";
paths = (
{
closed = 1;
nodes = (
"687 560 LINE SMOOTH",
"684 560 OFFCURVE",
"682 562 OFFCURVE",
"682 565 CURVE SMOOTH",
"682 639 LINE SMOOTH",
"682 674 OFFCURVE",
"657 700 OFFCURVE",
"622 700 CURVE SMOOTH",
"587 700 OFFCURVE",
"562 674 OFFCURVE",
"562 639 CURVE SMOOTH",
"562 565 LINE SMOOTH",
"562 562 OFFCURVE",
"560 560 OFFCURVE",
"557 560 CURVE SMOOTH",
"248 560 LINE SMOOTH",
"245 560 OFFCURVE",
"243 562 OFFCURVE",
"243 565 CURVE SMOOTH",
"243 639 LINE SMOOTH",
"243 674 OFFCURVE",
"218 700 OFFCURVE",
"183 700 CURVE SMOOTH",
"148 700 OFFCURVE",
"123 674 OFFCURVE",
"123 639 CURVE SMOOTH",
"123 565 LINE SMOOTH",
"123 562 OFFCURVE",
"121 560 OFFCURVE",
"118 560 CURVE SMOOTH",
"91 560 LINE SMOOTH",
"61 560 OFFCURVE",
"40 539 OFFCURVE",
"40 511 CURVE SMOOTH",
"40 481 OFFCURVE",
"61 460 OFFCURVE",
"91 460 CURVE SMOOTH",
"118 460 LINE SMOOTH",
"121 460 OFFCURVE",
"123 458 OFFCURVE",
"123 455 CURVE SMOOTH",
"123 61 LINE SMOOTH",
"123 26 OFFCURVE",
"148 0 OFFCURVE",
"183 0 CURVE SMOOTH",
"218 0 OFFCURVE",
"243 26 OFFCURVE",
"243 61 CURVE SMOOTH",
"243 240 LINE SMOOTH",
"243 247 OFFCURVE",
"247 250 OFFCURVE",
"253 250 CURVE SMOOTH",
"552 250 LINE SMOOTH",
"559 250 OFFCURVE",
"562 247 OFFCURVE",
"562 240 CURVE SMOOTH",
"562 61 LINE SMOOTH",
"562 26 OFFCURVE",
"587 0 OFFCURVE",
"622 0 CURVE SMOOTH",
"657 0 OFFCURVE",
"682 26 OFFCURVE",
"682 61 CURVE SMOOTH",
"682 455 LINE SMOOTH",
"682 458 OFFCURVE",
"684 460 OFFCURVE",
"687 460 CURVE SMOOTH",
"714 460 LINE SMOOTH",
"744 460 OFFCURVE",
"765 481 OFFCURVE",
"765 509 CURVE SMOOTH",
"765 539 OFFCURVE",
"744 560 OFFCURVE",
"714 560 CURVE SMOOTH"
);
},
{
closed = 1;
nodes = (
"562 380 LINE SMOOTH",
"562 374 OFFCURVE",
"558 370 OFFCURVE",
"552 370 CURVE SMOOTH",
"253 370 LINE SMOOTH",
"247 370 OFFCURVE",
"243 373 OFFCURVE",
"243 380 CURVE SMOOTH",
"243 455 LINE SMOOTH",
"243 458 OFFCURVE",
"245 460 OFFCURVE",
"248 460 CURVE SMOOTH",
"557 460 LINE SMOOTH",
"560 460 OFFCURVE",
"562 458 OFFCURVE",
"562 455 CURVE SMOOTH"
);
}
);
width = 805;
}
);
leftMetricsKey = H;
note = Hbar;
rightMetricsKey = H;
unicode = 0126;
},
{
glyphname = I;
lastChange = "2016-07-14 20:24:03 +0000";
layers = (
{
anchors = (
{
name = bottom;
position = "{121, 0}";
},
{
name = ogonek;
position = "{218, 10}";
},
{
name = top;
position = "{121, 700}";
},
{
name = topleft;
position = "{20, 700}";
}
);
layerId = "254266E2-2911-423D-9D37-8CC6105656EE";
paths = (
{
closed = 1;
nodes = (
"142 679 LINE SMOOTH",
"142 691 OFFCURVE",
"133 700 OFFCURVE",
"121 700 CURVE SMOOTH",
"109 700 OFFCURVE",
"100 691 OFFCURVE",
"100 679 CURVE SMOOTH",
"100 21 LINE SMOOTH",
"100 9 OFFCURVE",
"108 0 OFFCURVE",
"121 0 CURVE SMOOTH",
"132 0 OFFCURVE",
"141 9 OFFCURVE",
"142 21 CURVE"
);
}
);
width = 242;
},
{
layerId = "8816CCA3-DDF9-4C51-BD56-64EE3675A105";
paths = (
{
closed = 1;
nodes = (
"205 639 LINE",
"205 674 OFFCURVE",
"178 700 OFFCURVE",
"141 700 CURVE",
"103 700 OFFCURVE",
"75 674 OFFCURVE",
"75 639 CURVE",
"75 61 LINE",
"75 26 OFFCURVE",
"102 0 OFFCURVE",
"139 0 CURVE",
"177 0 OFFCURVE",
"205 26 OFFCURVE",
"205 61 CURVE"
);
}
);
width = 280;
}
);
leftMetricsKey = H;
note = I;
rightMetricsKey = H;
unicode = 0049;
},
{
glyphname = IJ;
lastChange = "2016-07-15 15:41:17 +0000";
layers = (
{
anchors = (
{
name = bottom;
position = "{137, 0}";
},
{
name = ogonek;
position = "{234, 10}";
},
{
name = top;
position = "{483, 700}";
},
{
name = topleft;
position = "{137, 700}";
}
);
components = (
{
name = J;
transform = "{1, 0, 0, 1, 25, 0}";
}
);
layerId = "254266E2-2911-423D-9D37-8CC6105656EE";
paths = (
{
closed = 1;
nodes = (
"158 679 LINE SMOOTH",
"158 691 OFFCURVE",
"149 700 OFFCURVE",
"137 700 CURVE SMOOTH",
"125 700 OFFCURVE",
"116 691 OFFCURVE",
"116 679 CURVE SMOOTH",
"116 251 LINE SMOOTH",
"116 239 OFFCURVE",
"124 230 OFFCURVE",
"137 230 CURVE SMOOTH",
"148 230 OFFCURVE",
"157 239 OFFCURVE",
"158 251 CURVE"
);
}
);
width = 603;
},
{
layerId = "8816CCA3-DDF9-4C51-BD56-64EE3675A105";
paths = (
{
closed = 1;
nodes = (
"205 639 LINE SMOOTH",
"205 674 OFFCURVE",
"180 700 OFFCURVE",
"146 700 CURVE SMOOTH",
"111 700 OFFCURVE",
"85 674 OFFCURVE",
"85 639 CURVE SMOOTH",
"85 61 LINE SMOOTH",
"85 26 OFFCURVE",
"110 0 OFFCURVE",
"144 0 CURVE SMOOTH",
"179 0 OFFCURVE",
"205 26 OFFCURVE",
"205 61 CURVE SMOOTH"
);
},
{
closed = 1;
nodes = (
"383 32 OFFCURVE",
"452 0 OFFCURVE",
"528 0 CURVE SMOOTH",
"656 0 OFFCURVE",
"757 107 OFFCURVE",
"757 229 CURVE SMOOTH",
"757 639 LINE SMOOTH",
"757 674 OFFCURVE",
"732 700 OFFCURVE",
"698 700 CURVE SMOOTH",
"663 700 OFFCURVE",
"637 674 OFFCURVE",
"637 639 CURVE SMOOTH",
"637 229 LINE SMOOTH",
"637 171 OFFCURVE",
"588 120 OFFCURVE",
"528 120 CURVE SMOOTH",
"495 120 OFFCURVE",
"470 129 OFFCURVE",
"444 153 CURVE SMOOTH",
"420 176 OFFCURVE",
"393 191 OFFCURVE",
"361 172 CURVE SMOOTH",
"334 156 OFFCURVE",
"318 123 OFFCURVE",
"342 89 CURVE SMOOTH"
);
}
);
width = 842;
}
);
leftMetricsKey = H;
note = IJ;
rightMetricsKey = H;
unicode = 0132;
},
{
glyphname = Iogonek;
lastChange = "2016-07-14 20:40:27 +0000";
layers = (
{
components = (
{
name = I;
},
{
name = ogonekcomb.case;
transform = "{1, 0, 0, 1, -11, 0}";
}
);
layerId = "254266E2-2911-423D-9D37-8CC6105656EE";
width = 242;
},
{
layerId = "8816CCA3-DDF9-4C51-BD56-64EE3675A105";
paths = (
{
closed = 1;
nodes = (
"206 -130 OFFCURVE",
"189 -126 OFFCURVE",
"171 -134 CURVE SMOOTH",
"135 -150 OFFCURVE",
"101 -126 OFFCURVE",
"95 -96 CURVE SMOOTH",
"89 -67 OFFCURVE",
"95 -34 OFFCURVE",
"148 0 CURVE",
"181 2 OFFCURVE",
"205 28 OFFCURVE",
"205 61 CURVE SMOOTH",
"205 639 LINE SMOOTH",
"205 674 OFFCURVE",
"180 700 OFFCURVE",
"146 700 CURVE SMOOTH",
"111 700 OFFCURVE",
"85 674 OFFCURVE",
"85 639 CURVE SMOOTH",
"85 61 LINE SMOOTH",
"85 53 OFFCURVE",
"86 45 OFFCURVE",
"89 38 CURVE",
"47 14 OFFCURVE",
"1 -27 OFFCURVE",
"1 -95 CURVE SMOOTH",
"1 -189 OFFCURVE",
"103 -232 OFFCURVE",
"196 -192 CURVE SMOOTH",
"217 -183 OFFCURVE",
"222 -164 OFFCURVE",
"214 -147 CURVE SMOOTH"
);
}
);
width = 290;
}
);
leftMetricsKey = "+10";
note = Iogonek;
rightMetricsKey = "+10";
unicode = 012E;
},
{
glyphname = J;
lastChange = "2016-07-15 15:36:59 +0000";
layers = (
{
anchors = (
{
name = bottom;
position = "{289, 0}";
},
{
name = top;
position = "{458, 700}";
}
);
layerId = "254266E2-2911-423D-9D37-8CC6105656EE";
paths = (
{
closed = 1;
nodes = (
"445 700 OFFCURVE",
"436 691 OFFCURVE",
"436 680 CURVE",
"436 199 LINE",
"436 96 OFFCURVE",
"370 30 OFFCURVE",
"267 30 CURVE",
"197 30 OFFCURVE",
"139 77 OFFCURVE",
"114 144 CURVE",
"109 154 OFFCURVE",
"100 159 OFFCURVE",
"90 156 CURVE",
"78 152 OFFCURVE",
"72 140 OFFCURVE",
"77 129 CURVE",
"110 48 OFFCURVE",
"180 -10 OFFCURVE",
"267 -10 CURVE",
"393 -10 OFFCURVE",
"478 74 OFFCURVE",
"478 199 CURVE",
"478 680 LINE",
"478 691 OFFCURVE",
"470 700 OFFCURVE",
"458 700 CURVE"
);
}
);
width = 578;
},
{
layerId = "8816CCA3-DDF9-4C51-BD56-64EE3675A105";
paths = (
{
closed = 1;
nodes = (
"93 22 OFFCURVE",
"162 -10 OFFCURVE",
"238 -10 CURVE",
"372 -10 OFFCURVE",
"477 97 OFFCURVE",
"477 219 CURVE",
"477 639 LINE",
"477 674 OFFCURVE",
"450 700 OFFCURVE",
"413 700 CURVE",
"375 700 OFFCURVE",
"347 674 OFFCURVE",
"347 639 CURVE",
"347 219 LINE",
"347 161 OFFCURVE",
"298 110 OFFCURVE",
"238 110 CURVE",
"205 110 OFFCURVE",
"180 119 OFFCURVE",
"154 143 CURVE",
"130 166 OFFCURVE",
"103 181 OFFCURVE",
"71 162 CURVE",
"44 146 OFFCURVE",
"28 113 OFFCURVE",
"52 79 CURVE"
);
}
);
width = 552;
}
);
leftKerningGroup = J;
note = J;
rightKerningGroup = J;
rightMetricsKey = H;
unicode = 004A;
},
{
glyphname = K;
lastChange = "2016-07-14 20:46:22 +0000";
layers = (
{
anchors = (
{
name = bottom;
position = "{300, 0}";
},
{
name = top;
position = "{341, 700}";
}
);
layerId = "254266E2-2911-423D-9D37-8CC6105656EE";
paths = (
{
closed = 1;
nodes = (
"290 376 LINE",
"592 2 LINE SMOOTH",
"596 -3 OFFCURVE",
"601 -5 OFFCURVE",
"606 -5 CURVE SMOOTH",
"614 -5 OFFCURVE",
"629 0 OFFCURVE",
"629 16 CURVE SMOOTH",
"629 21 OFFCURVE",
"627 26 OFFCURVE",
"624 30 CURVE SMOOTH",
"322 408 LINE"
);
},
{
closed = 1;
nodes = (
"602 662 LINE SMOOTH",
"606 666 OFFCURVE",
"608 671 OFFCURVE",
"608 676 CURVE SMOOTH",
"608 681 OFFCURVE",
"606 686 OFFCURVE",
"602 690 CURVE SMOOTH",
"598 694 OFFCURVE",
"593 696 OFFCURVE",
"588 696 CURVE SMOOTH",
"583 696 OFFCURVE",
"578 694 OFFCURVE",
"574 690 CURVE SMOOTH",
"127 271 LINE",
"136 228 LINE"
);
},
{
closed = 1;
nodes = (
"142 679 LINE SMOOTH",
"142 691 OFFCURVE",
"133 700 OFFCURVE",
"121 700 CURVE SMOOTH",
"109 700 OFFCURVE",
"100 691 OFFCURVE",
"100 679 CURVE SMOOTH",
"100 21 LINE SMOOTH",
"100 9 OFFCURVE",
"108 0 OFFCURVE",
"121 0 CURVE SMOOTH",
"132 0 OFFCURVE",
"141 9 OFFCURVE",
"142 21 CURVE"
);
}
);
width = 682;
},
{
layerId = "8816CCA3-DDF9-4C51-BD56-64EE3675A105";
paths = (
{
closed = 1;
nodes = (
"187 206 LINE",
"606 607 LINE SMOOTH",
"632 631 OFFCURVE",
"629 665 OFFCURVE",
"605 689 CURVE SMOOTH",
"580 714 OFFCURVE",
"545 707 OFFCURVE",
"520 682 CURVE SMOOTH",
"182 349 LINE"
);
},
{
closed = 1;
nodes = (
"281 327 LINE",
"512 23 LINE SMOOTH",
"533 -5 OFFCURVE",
"572 -6 OFFCURVE",
"598 15 CURVE SMOOTH",
"626 37 OFFCURVE",
"632 76 OFFCURVE",
"611 104 CURVE SMOOTH",
"372 420 LINE"
);
},
{
closed = 1;
nodes = (
"205 639 LINE",
"205 674 OFFCURVE",
"178 700 OFFCURVE",
"141 700 CURVE",
"103 700 OFFCURVE",
"75 674 OFFCURVE",
"75 639 CURVE",
"75 61 LINE",
"75 26 OFFCURVE",
"102 0 OFFCURVE",
"139 0 CURVE",
"177 0 OFFCURVE",
"205 26 OFFCURVE",
"205 61 CURVE"
);
}
);
width = 655;
}
);
leftMetricsKey = H;
note = K;
rightKerningGroup = K;
unicode = 004B;
},
{
glyphname = Kcommaaccent;
lastChange = "2016-07-14 20:46:22 +0000";
layers = (
{
components = (
{
name = K;
},
{
name = commaaccentcomb.case;
transform = "{1, 0, 0, 1, 216, 0}";
}
);
layerId = "254266E2-2911-423D-9D37-8CC6105656EE";
width = 682;
},
{
layerId = "8816CCA3-DDF9-4C51-BD56-64EE3675A105";
paths = (
{
closed = 1;
nodes = (
"413 367 LINE SMOOTH",
"409 372 OFFCURVE",
"410 377 OFFCURVE",
"414 382 CURVE",
"631 597 LINE SMOOTH",
"656 622 OFFCURVE",
"657 658 OFFCURVE",
"633 682 CURVE SMOOTH",
"608 707 OFFCURVE",
"572 707 OFFCURVE",
"547 682 CURVE SMOOTH",
"217 354 LINE SMOOTH",
"211 348 OFFCURVE",
"205 350 OFFCURVE",
"205 359 CURVE SMOOTH",
"205 639 LINE SMOOTH",
"205 674 OFFCURVE",
"180 700 OFFCURVE",
"146 700 CURVE SMOOTH",
"111 700 OFFCURVE",
"85 674 OFFCURVE",
"85 639 CURVE SMOOTH",
"85 61 LINE SMOOTH",
"85 26 OFFCURVE",
"110 0 OFFCURVE",
"144 0 CURVE SMOOTH",
"179 0 OFFCURVE",
"205 26 OFFCURVE",
"205 61 CURVE SMOOTH",
"205 166 LINE SMOOTH",
"205 172 OFFCURVE",
"206 175 OFFCURVE",
"210 179 CURVE SMOOTH",
"314 282 LINE SMOOTH",
"319 287 OFFCURVE",
"324 287 OFFCURVE",
"329 282 CURVE",
"542 23 LINE SMOOTH",
"564 -4 OFFCURVE",
"600 -8 OFFCURVE",
"626 13 CURVE SMOOTH",
"653 36 OFFCURVE",
"656 72 OFFCURVE",
"634 99 CURVE SMOOTH"
);
},
{
closed = 1;
nodes = (
"286 -351 OFFCURVE",
"312 -361 OFFCURVE",
"343 -351 CURVE SMOOTH",
"408 -331 OFFCURVE",
"442 -284 OFFCURVE",
"442 -195 CURVE SMOOTH",
"442 -140 LINE SMOOTH",
"442 -105 OFFCURVE",
"416 -79 OFFCURVE",
"381 -79 CURVE SMOOTH",
"370 -79 LINE SMOOTH",
"335 -79 OFFCURVE",
"309 -105 OFFCURVE",
"309 -140 CURVE SMOOTH",
"309 -155 LINE SMOOTH",
"309 -190 OFFCURVE",
"330 -216 OFFCURVE",
"360 -216 CURVE",
"363 -251 OFFCURVE",
"351 -276 OFFCURVE",
"323 -293 CURVE SMOOTH",
"297 -309 OFFCURVE",
"278 -320 OFFCURVE",
"282 -336 CURVE SMOOTH"
);
}
);
width = 680;
}
);
leftMetricsKey = "+10";
note = Kcommaaccent;
rightMetricsKey = "+10";
unicode = 0136;
},
{
glyphname = L;
lastChange = "2016-07-18 23:46:14 +0000";
layers = (
{
anchors = (
{
name = bottom;
position = "{286, 0}";
},
{
name = center;
position = "{261, 350}";
},
{
name = top;
position = "{111, 700}";
},
{
name = topright;
position = "{502, 700}";
}
);
layerId = "254266E2-2911-423D-9D37-8CC6105656EE";
paths = (
{
closed = 1;
nodes = (
"124 40 LINE",
"142 22 LINE",
"142 680 LINE",
"142 691 OFFCURVE",
"133 700 OFFCURVE",
"121 700 CURVE",
"109 700 OFFCURVE",
"100 691 OFFCURVE",
"100 680 CURVE",
"100 20 LINE",
"100 9 OFFCURVE",
"108 0 OFFCURVE",
"120 0 CURVE",
"487 0 LINE",
"498 0 OFFCURVE",
"507 8 OFFCURVE",
"507 20 CURVE",
"507 31 OFFCURVE",
"498 40 OFFCURVE",
"487 40 CURVE"
);
}
);
width = 522;
},
{
layerId = "8816CCA3-DDF9-4C51-BD56-64EE3675A105";
paths = (
{
closed = 1;
nodes = (
"183 120 LINE",
"205 103 LINE",
"205 639 LINE",
"205 674 OFFCURVE",
"178 700 OFFCURVE",
"141 700 CURVE",
"103 700 OFFCURVE",
"75 674 OFFCURVE",
"75 639 CURVE",
"75 61 LINE",
"75 26 OFFCURVE",
"101 0 OFFCURVE",
"136 0 CURVE",
"461 0 LINE",
"496 0 OFFCURVE",
"522 25 OFFCURVE",
"522 59 CURVE",
"522 94 OFFCURVE",
"496 120 OFFCURVE",
"461 120 CURVE"
);
}
);
width = 562;
}
);
leftMetricsKey = H;
note = L;
rightKerningGroup = L;
unicode = 004C;
},
{
glyphname = Lcaron;
lastChange = "2016-07-18 23:45:10 +0000";
layers = (
{
components = (
{
name = caronalt;
transform = "{1, 0, 0, 1, 373, 0}";
}
);
layerId = "254266E2-2911-423D-9D37-8CC6105656EE";
paths = (
{
closed = 1;
nodes = (
"145 40 LINE SMOOTH",
"142 40 OFFCURVE",
"140 42 OFFCURVE",
"140 45 CURVE SMOOTH",
"140 680 LINE SMOOTH",
"140 691 OFFCURVE",
"132 700 OFFCURVE",
"120 700 CURVE SMOOTH",
"109 700 OFFCURVE",
"100 691 OFFCURVE",
"100 680 CURVE SMOOTH",
"100 20 LINE SMOOTH",
"100 9 OFFCURVE",
"108 0 OFFCURVE",
"120 0 CURVE SMOOTH",
"487 0 LINE SMOOTH",
"498 0 OFFCURVE",
"507 8 OFFCURVE",
"507 20 CURVE SMOOTH",
"507 31 OFFCURVE",
"498 40 OFFCURVE",
"487 40 CURVE SMOOTH"
);
}
);
width = 523;
},
{
layerId = "8816CCA3-DDF9-4C51-BD56-64EE3675A105";
paths = (
{
closed = 1;
nodes = (
"215 120 LINE SMOOTH",
"209 120 OFFCURVE",
"205 124 OFFCURVE",
"205 130 CURVE SMOOTH",
"205 639 LINE SMOOTH",
"205 674 OFFCURVE",
"180 700 OFFCURVE",
"146 700 CURVE SMOOTH",
"111 700 OFFCURVE",
"85 674 OFFCURVE",
"85 639 CURVE SMOOTH",
"85 61 LINE SMOOTH",
"85 26 OFFCURVE",
"111 0 OFFCURVE",
"146 0 CURVE SMOOTH",
"471 0 LINE SMOOTH",
"506 0 OFFCURVE",
"532 25 OFFCURVE",
"532 59 CURVE SMOOTH",
"532 94 OFFCURVE",
"506 120 OFFCURVE",
"471 120 CURVE SMOOTH"
);
}
);
width = 542;
}
);
leftMetricsKey = H;
note = Lcaron;
rightMetricsKey = L;
unicode = 013D;
},
{
glyphname = Lcommaaccent;
lastChange = "2016-07-18 23:46:14 +0000";
layers = (
{
components = (
{
name = L;
},
{
name = commaaccentcomb.case;
transform = "{1, 0, 0, 1, 202, 0}";
}
);
layerId = "254266E2-2911-423D-9D37-8CC6105656EE";
width = 522;
},
{
layerId = "8816CCA3-DDF9-4C51-BD56-64EE3675A105";
paths = (
{
closed = 1;
nodes = (
"215 120 LINE SMOOTH",
"209 120 OFFCURVE",
"205 124 OFFCURVE",
"205 130 CURVE SMOOTH",
"205 639 LINE SMOOTH",
"205 674 OFFCURVE",
"180 700 OFFCURVE",
"146 700 CURVE SMOOTH",
"111 700 OFFCURVE",
"85 674 OFFCURVE",
"85 639 CURVE SMOOTH",
"85 61 LINE SMOOTH",
"85 26 OFFCURVE",
"111 0 OFFCURVE",
"146 0 CURVE SMOOTH",
"471 0 LINE SMOOTH",
"506 0 OFFCURVE",
"532 25 OFFCURVE",
"532 59 CURVE SMOOTH",
"532 94 OFFCURVE",
"506 120 OFFCURVE",
"471 120 CURVE SMOOTH"
);
},
{
closed = 1;
nodes = (
"211 -351 OFFCURVE",
"237 -361 OFFCURVE",
"268 -351 CURVE SMOOTH",
"333 -331 OFFCURVE",
"367 -284 OFFCURVE",
"367 -195 CURVE SMOOTH",
"367 -140 LINE SMOOTH",
"367 -105 OFFCURVE",
"341 -79 OFFCURVE",
"306 -79 CURVE SMOOTH",
"295 -79 LINE SMOOTH",
"260 -79 OFFCURVE",
"234 -105 OFFCURVE",
"234 -140 CURVE SMOOTH",
"234 -155 LINE SMOOTH",
"234 -190 OFFCURVE",
"255 -216 OFFCURVE",
"285 -216 CURVE",
"288 -251 OFFCURVE",
"276 -276 OFFCURVE",
"248 -293 CURVE SMOOTH",
"222 -309 OFFCURVE",
"203 -320 OFFCURVE",
"207 -336 CURVE SMOOTH"
);
}
);
width = 542;
}
);
leftMetricsKey = "+10";
note = Lcommaaccent;
rightMetricsKey = "+10";
unicode = 013B;
},
{
glyphname = Ldot;
lastChange = "2016-07-18 23:44:30 +0000";
layers = (
{
components = (
{
name = L;
},
{
name = periodcentered;
transform = "{1, 0, 0, 1, 380, 0}";
}
);
layerId = "254266E2-2911-423D-9D37-8CC6105656EE";
width = 537;
},
{
layerId = "8816CCA3-DDF9-4C51-BD56-64EE3675A105";
paths = (
{
closed = 1;
nodes = (
"215 120 LINE SMOOTH",
"209 120 OFFCURVE",
"205 124 OFFCURVE",
"205 130 CURVE SMOOTH",
"205 639 LINE SMOOTH",
"205 674 OFFCURVE",
"180 700 OFFCURVE",
"146 700 CURVE SMOOTH",
"111 700 OFFCURVE",
"85 674 OFFCURVE",
"85 639 CURVE SMOOTH",
"85 61 LINE SMOOTH",
"85 26 OFFCURVE",
"111 0 OFFCURVE",
"146 0 CURVE SMOOTH",
"471 0 LINE SMOOTH",
"506 0 OFFCURVE",
"532 25 OFFCURVE",
"532 59 CURVE SMOOTH",
"532 94 OFFCURVE",
"506 120 OFFCURVE",
"471 120 CURVE SMOOTH"
);
},
{
closed = 1;
nodes = (
"296 342 LINE SMOOTH",
"296 303 OFFCURVE",
"317 282 OFFCURVE",
"356 282 CURVE SMOOTH",
"369 282 LINE SMOOTH",
"408 282 OFFCURVE",
"429 303 OFFCURVE",
"429 342 CURVE SMOOTH",
"429 359 LINE SMOOTH",
"429 398 OFFCURVE",
"408 419 OFFCURVE",
"369 419 CURVE SMOOTH",
"356 419 LINE SMOOTH",
"317 419 OFFCURVE",
"296 398 OFFCURVE",
"296 359 CURVE SMOOTH"
);
}
);
width = 542;
}
);
leftMetricsKey = L;
note = Ldot;
unicode = 013F;
},
{
glyphname = Lslash;
lastChange = "2016-07-18 23:46:56 +0000";
layers = (
{
layerId = "254266E2-2911-423D-9D37-8CC6105656EE";
paths = (
{
closed = 1;
nodes = (
"184 40 LINE SMOOTH",
"181 40 OFFCURVE",
"179 42 OFFCURVE",
"179 45 CURVE SMOOTH",
"179 394 LINE",
"278 438 LINE SMOOTH",
"291 443 OFFCURVE",
"294 452 OFFCURVE",
"288 464 CURVE SMOOTH",
"284 476 OFFCURVE",
"275 479 OFFCURVE",
"262 474 CURVE SMOOTH",
"179 437 LINE",
"179 680 LINE SMOOTH",
"179 691 OFFCURVE",
"171 700 OFFCURVE",
"159 700 CURVE SMOOTH",
"148 700 OFFCURVE",
"139 691 OFFCURVE",
"139 680 CURVE SMOOTH",
"139 419 LINE",
"62 386 LINE SMOOTH",
"51 381 OFFCURVE",
"48 372 OFFCURVE",
"52 360 CURVE SMOOTH",
"58 348 OFFCURVE",
"67 345 OFFCURVE",
"78 350 CURVE SMOOTH",
"139 376 LINE",
"139 20 LINE SMOOTH",
"139 9 OFFCURVE",
"147 0 OFFCURVE",
"159 0 CURVE SMOOTH",
"526 0 LINE SMOOTH",
"537 0 OFFCURVE",
"546 8 OFFCURVE",
"546 20 CURVE SMOOTH",
"546 31 OFFCURVE",
"537 40 OFFCURVE",
"526 40 CURVE SMOOTH"
);
}
);
width = 561;
},
{
layerId = "8816CCA3-DDF9-4C51-BD56-64EE3675A105";
paths = (
{
closed = 1;
nodes = (
"273 120 LINE SMOOTH",
"267 120 OFFCURVE",
"263 124 OFFCURVE",
"263 130 CURVE SMOOTH",
"263 341 LINE SMOOTH",
"263 344 OFFCURVE",
"264 346 OFFCURVE",
"267 347 CURVE",
"398 405 LINE SMOOTH",
"426 417 OFFCURVE",
"437 445 OFFCURVE",
"425 471 CURVE SMOOTH",
"413 498 OFFCURVE",
"385 509 OFFCURVE",
"358 497 CURVE SMOOTH",
"269 458 LINE",
"265 456 OFFCURVE",
"263 458 OFFCURVE",
"263 461 CURVE SMOOTH",
"263 639 LINE SMOOTH",
"263 674 OFFCURVE",
"238 700 OFFCURVE",
"204 700 CURVE SMOOTH",
"169 700 OFFCURVE",
"143 674 OFFCURVE",
"143 639 CURVE SMOOTH",
"143 406 LINE SMOOTH",
"143 403 OFFCURVE",
"142 401 OFFCURVE",
"139 400 CURVE",
"64 367 LINE SMOOTH",
"36 355 OFFCURVE",
"25 327 OFFCURVE",
"37 301 CURVE SMOOTH",
"49 274 OFFCURVE",
"77 263 OFFCURVE",
"104 275 CURVE SMOOTH",
"137 290 LINE",
"141 291 OFFCURVE",
"143 290 OFFCURVE",
"143 286 CURVE SMOOTH",
"143 61 LINE SMOOTH",
"143 26 OFFCURVE",
"169 0 OFFCURVE",
"204 0 CURVE SMOOTH",
"529 0 LINE SMOOTH",
"564 0 OFFCURVE",
"590 25 OFFCURVE",
"590 59 CURVE SMOOTH",
"590 94 OFFCURVE",
"564 120 OFFCURVE",
"529 120 CURVE SMOOTH"
);
}
);
width = 542;
}
);
note = Lslash;
unicode = 0141;
},
{
glyphname = M;
lastChange = "2016-07-14 20:24:03 +0000";
layers = (
{
anchors = (
{
name = bottom;
position = "{415, 0}";
},
{
name = top;
position = "{415, 700}";
}
);
layerId = "254266E2-2911-423D-9D37-8CC6105656EE";
paths = (
{
closed = 1;
nodes = (
"107 700 OFFCURVE",
"100 689 OFFCURVE",
"100 680 CURVE",
"100 20 LINE",
"100 9 OFFCURVE",
"108 0 OFFCURVE",
"120 0 CURVE",
"131 0 OFFCURVE",
"140 9 OFFCURVE",
"140 20 CURVE",
"140 643 LINE",
"124 643 LINE",
"399 228 LINE SMOOTH",
"402 223 OFFCURVE",
"408 220 OFFCURVE",
"415 220 CURVE SMOOTH",
"421 220 OFFCURVE",
"426 223 OFFCURVE",
"429 228 CURVE SMOOTH",
"698 635 LINE",
"687 635 LINE",
"687 20 LINE",
"687 9 OFFCURVE",
"696 0 OFFCURVE",
"708 0 CURVE",
"719 0 OFFCURVE",
"729 9 OFFCURVE",
"729 20 CURVE",
"729 680 LINE",
"729 690 OFFCURVE",
"722 699 OFFCURVE",
"711 700 CURVE",
"704 701 OFFCURVE",
"697 698 OFFCURVE",
"692 691 CURVE",
"405 264 LINE",
"425 264 LINE",
"138 691 LINE",
"133 698 OFFCURVE",
"125 700 OFFCURVE",
"119 700 CURVE"
);
}
);
width = 829;
},
{
layerId = "8816CCA3-DDF9-4C51-BD56-64EE3675A105";
paths = (
{
closed = 1;
nodes = (
"103 701 OFFCURVE",
"75 673 OFFCURVE",
"75 640 CURVE",
"75 61 LINE",
"75 26 OFFCURVE",
"100 0 OFFCURVE",
"134 0 CURVE",
"169 0 OFFCURVE",
"195 26 OFFCURVE",
"195 61 CURVE",
"195 567 LINE",
"164 494 LINE",
"355 212 LINE",
"367 197 OFFCURVE",
"386 185 OFFCURVE",
"404 186 CURVE",
"423 185 OFFCURVE",
"442 197 OFFCURVE",
"454 212 CURVE",
"658 503 LINE",
"614 532 LINE",
"614 61 LINE",
"614 26 OFFCURVE",
"642 0 OFFCURVE",
"680 0 CURVE",
"717 0 OFFCURVE",
"744 26 OFFCURVE",
"744 61 CURVE",
"744 640 LINE",
"744 676 OFFCURVE",
"714 701 OFFCURVE",
"682 701 CURVE",
"663 701 OFFCURVE",
"645 690 OFFCURVE",
"633 674 CURVE SMOOTH",
"384 322 LINE",
"434 320 LINE",
"191 674 LINE SMOOTH",
"180 690 OFFCURVE",
"157 701 OFFCURVE",
"138 701 CURVE"
);
}
);
width = 819;
}
);
leftMetricsKey = H;
note = M;
rightMetricsKey = H;
unicode = 004D;
},
{
glyphname = N;
lastChange = "2016-07-14 20:24:03 +0000";
layers = (
{
anchors = (
{
name = bottom;
position = "{363, 0}";
},
{
name = top;
position = "{363, 700}";
}
);
layerId = "254266E2-2911-423D-9D37-8CC6105656EE";
paths = (
{
closed = 1;
nodes = (
"596 700 OFFCURVE",
"587 692 OFFCURVE",
"587 681 CURVE",
"587 43 LINE",
"595 63 LINE",
"133 693 LINE",
"129 698 OFFCURVE",
"123 700 OFFCURVE",
"118 700 CURVE",
"110 700 OFFCURVE",
"100 695 OFFCURVE",
"100 680 CURVE",
"100 17 LINE",
"100 8 OFFCURVE",
"107 0 OFFCURVE",
"119 0 CURVE",
"129 0 OFFCURVE",
"138 8 OFFCURVE",
"138 17 CURVE",
"138 649 LINE",
"124 642 LINE",
"588 8 LINE",
"592 3 OFFCURVE",
"598 0 OFFCURVE",
"604 0 CURVE",
"615 0 OFFCURVE",
"625 7 OFFCURVE",
"625 22 CURVE",
"625 681 LINE",
"625 692 OFFCURVE",
"618 700 OFFCURVE",
"606 700 CURVE"
);
}
);
width = 725;
},
{
layerId = "8816CCA3-DDF9-4C51-BD56-64EE3675A105";
paths = (
{
closed = 1;
nodes = (
"571 700 OFFCURVE",
"546 676 OFFCURVE",
"546 644 CURVE",
"546 180 LINE",
"568 192 LINE",
"187 678 LINE",
"177 692 OFFCURVE",
"155 700 OFFCURVE",
"136 700 CURVE",
"101 700 OFFCURVE",
"75 674 OFFCURVE",
"75 639 CURVE",
"75 56 LINE",
"75 24 OFFCURVE",
"99 0 OFFCURVE",
"131 0 CURVE",
"164 0 OFFCURVE",
"189 24 OFFCURVE",
"189 56 CURVE",
"189 532 LINE",
"159 516 LINE",
"552 17 LINE",
"561 6 OFFCURVE",
"582 0 OFFCURVE",
"599 0 CURVE",
"634 0 OFFCURVE",
"660 26 OFFCURVE",
"660 61 CURVE",
"660 644 LINE",
"660 676 OFFCURVE",
"636 700 OFFCURVE",
"604 700 CURVE"
);
}
);
width = 735;
}
);
leftMetricsKey = H;
note = N;
rightMetricsKey = H;
unicode = 004E;
},
{
glyphname = Ncommaaccent;
lastChange = "2016-07-14 20:40:27 +0000";
layers = (
{
components = (
{
name = N;
},
{
name = commaaccentcomb.case;
transform = "{1, 0, 0, 1, 279, 0}";
}
);
layerId = "254266E2-2911-423D-9D37-8CC6105656EE";
width = 725;
},
{
layerId = "8816CCA3-DDF9-4C51-BD56-64EE3675A105";
paths = (
{
closed = 1;
nodes = (
"570 236 LINE SMOOTH",
"570 227 OFFCURVE",
"564 225 OFFCURVE",
"558 232 CURVE SMOOTH",
"196 674 LINE",
"192 678 LINE",
"182 692 OFFCURVE",
"165 700 OFFCURVE",
"146 700 CURVE SMOOTH",
"111 700 OFFCURVE",
"85 674 OFFCURVE",
"85 639 CURVE SMOOTH",
"85 61 LINE SMOOTH",
"85 26 OFFCURVE",
"110 0 OFFCURVE",
"144 0 CURVE SMOOTH",
"179 0 OFFCURVE",
"205 26 OFFCURVE",
"205 61 CURVE SMOOTH",
"205 461 LINE SMOOTH",
"205 470 OFFCURVE",
"211 472 OFFCURVE",
"217 465 CURVE SMOOTH",
"577 27 LINE",
"580 24 OFFCURVE",
"583 20 OFFCURVE",
"587 17 CURVE",
"597 7 OFFCURVE",
"612 0 OFFCURVE",
"629 0 CURVE SMOOTH",
"664 0 OFFCURVE",
"690 26 OFFCURVE",
"690 61 CURVE SMOOTH",
"690 639 LINE SMOOTH",
"690 674 OFFCURVE",
"665 700 OFFCURVE",
"631 700 CURVE SMOOTH",
"596 700 OFFCURVE",
"570 674 OFFCURVE",
"570 639 CURVE SMOOTH"
);
},
{
closed = 1;
nodes = (
"330 -351 OFFCURVE",
"356 -361 OFFCURVE",
"387 -351 CURVE SMOOTH",
"452 -331 OFFCURVE",
"486 -284 OFFCURVE",
"486 -195 CURVE SMOOTH",
"486 -140 LINE SMOOTH",
"486 -105 OFFCURVE",
"460 -79 OFFCURVE",
"425 -79 CURVE SMOOTH",
"414 -79 LINE SMOOTH",
"379 -79 OFFCURVE",
"353 -105 OFFCURVE",
"353 -140 CURVE SMOOTH",
"353 -155 LINE SMOOTH",
"353 -190 OFFCURVE",
"374 -216 OFFCURVE",
"404 -216 CURVE",
"407 -251 OFFCURVE",
"395 -276 OFFCURVE",
"367 -293 CURVE SMOOTH",
"341 -309 OFFCURVE",
"322 -320 OFFCURVE",
"326 -336 CURVE SMOOTH"
);
}
);
width = 775;
}
);
leftMetricsKey = "+10";
note = Ncommaaccent;
rightMetricsKey = "+10";
unicode = 0145;
},
{
glyphname = Eng;
lastChange = "2016-07-12 18:02:28 +0000";
layers = (
{
layerId = "254266E2-2911-423D-9D37-8CC6105656EE";
paths = (
{
closed = 1;
nodes = (
"635 42 LINE",
"635 676 LINE SMOOTH",
"635 687 OFFCURVE",
"627 696 OFFCURVE",
"615 696 CURVE SMOOTH",
"604 696 OFFCURVE",
"595 687 OFFCURVE",
"595 676 CURVE SMOOTH",
"595 89 LINE SMOOTH",
"595 84 OFFCURVE",
"592 83 OFFCURVE",
"589 87 CURVE SMOOTH",
"127 691 LINE",
"126 692 LINE",
"125 694 OFFCURVE",
"123 696 OFFCURVE",
"120 697 CURVE",
"116 700 OFFCURVE",
"112 701 OFFCURVE",
"107 700 CURVE SMOOTH",
"97 698 OFFCURVE",
"90 690 OFFCURVE",
"90 680 CURVE SMOOTH",
"90 20 LINE SMOOTH",
"90 9 OFFCURVE",
"98 0 OFFCURVE",
"110 0 CURVE SMOOTH",
"121 0 OFFCURVE",
"130 9 OFFCURVE",
"130 20 CURVE SMOOTH",
"130 612 LINE SMOOTH",
"130 617 OFFCURVE",
"133 618 OFFCURVE",
"136 614 CURVE SMOOTH",
"596 11 LINE",
"595 -44 LINE SMOOTH",
"595 -111 OFFCURVE",
"574 -160 OFFCURVE",
"459 -160 CURVE SMOOTH",
"447 -160 OFFCURVE",
"438 -168 OFFCURVE",
"438 -180 CURVE SMOOTH",
"438 -192 OFFCURVE",
"447 -200 OFFCURVE",
"460 -200 CURVE SMOOTH",
"601 -200 OFFCURVE",
"635 -123 OFFCURVE",
"635 -44 CURVE SMOOTH",
"635 -13 OFFCURVE",
"636 13 OFFCURVE",
"636 42 CURVE"
);
}
);
width = 727;
},
{
layerId = "8816CCA3-DDF9-4C51-BD56-64EE3675A105";
paths = (
{
closed = 1;
nodes = (
"596 700 OFFCURVE",
"570 674 OFFCURVE",
"570 639 CURVE SMOOTH",
"570 236 LINE SMOOTH",
"570 227 OFFCURVE",
"564 225 OFFCURVE",
"558 232 CURVE SMOOTH",
"196 674 LINE",
"192 678 LINE",
"182 692 OFFCURVE",
"165 700 OFFCURVE",
"146 700 CURVE SMOOTH",
"111 700 OFFCURVE",
"85 674 OFFCURVE",
"85 639 CURVE SMOOTH",
"85 61 LINE SMOOTH",
"85 26 OFFCURVE",
"110 0 OFFCURVE",
"144 0 CURVE SMOOTH",
"179 0 OFFCURVE",
"205 26 OFFCURVE",
"205 61 CURVE SMOOTH",
"205 461 LINE SMOOTH",
"205 470 OFFCURVE",
"211 472 OFFCURVE",
"217 465 CURVE SMOOTH",
"568 38 LINE",
"569 36 OFFCURVE",
"570 35 OFFCURVE",
"570 32 CURVE SMOOTH",
"570 -19 LINE SMOOTH",
"570 -69 OFFCURVE",
"549 -89 OFFCURVE",
"507 -90 CURVE SMOOTH",
"473 -91 OFFCURVE",
"449 -116 OFFCURVE",
"449 -148 CURVE SMOOTH",
"449 -180 OFFCURVE",
"476 -200 OFFCURVE",
"513 -200 CURVE SMOOTH",
"600 -201 OFFCURVE",
"690 -156 OFFCURVE",
"690 -14 CURVE SMOOTH",
"690 639 LINE SMOOTH",
"690 674 OFFCURVE",
"665 700 OFFCURVE",
"631 700 CURVE SMOOTH"
);
}
);
width = 734;
}
);
leftMetricsKey = "+10";
note = Eng;
rightMetricsKey = "+10";
unicode = 014A;
},
{
glyphname = O;
lastChange = "2016-07-14 20:24:03 +0000";
layers = (
{
anchors = (
{
name = bottom;
position = "{384, 0}";
},
{
name = center;
position = "{384, 350}";
},
{
name = ogonek;
position = "{691, 10}";
},
{
name = top;
position = "{384, 700}";
},
{
name = topleft;
position = "{20, 700}";
},
{
name = topright;
position = "{748, 700}";
}
);
layerId = "254266E2-2911-423D-9D37-8CC6105656EE";
paths = (
{
closed = 1;
nodes = (
"718 563 OFFCURVE",
"579 710 OFFCURVE",
"384 710 CURVE",
"189 710 OFFCURVE",
"50 563 OFFCURVE",
"50 350 CURVE",
"50 137 OFFCURVE",
"189 -10 OFFCURVE",
"384 -10 CURVE",
"579 -10 OFFCURVE",
"718 137 OFFCURVE",
"718 350 CURVE"
);
},
{
closed = 1;
nodes = (
"676 159 OFFCURVE",
"555 30 OFFCURVE",
"384 30 CURVE",
"213 30 OFFCURVE",
"92 159 OFFCURVE",
"92 350 CURVE",
"92 541 OFFCURVE",
"213 670 OFFCURVE",
"384 670 CURVE",
"555 670 OFFCURVE",
"676 541 OFFCURVE",
"676 350 CURVE"
);
}
);
width = 768;
},
{
layerId = "8816CCA3-DDF9-4C51-BD56-64EE3675A105";
paths = (
{
closed = 1;
nodes = (
"719 549 OFFCURVE",
"577 710 OFFCURVE",
"379 710 CURVE",
"181 710 OFFCURVE",
"40 549 OFFCURVE",
"40 350 CURVE",
"40 151 OFFCURVE",
"181 -10 OFFCURVE",
"379 -10 CURVE",
"577 -10 OFFCURVE",
"719 151 OFFCURVE",
"719 350 CURVE"
);
},
{
closed = 1;
nodes = (
"589 216 OFFCURVE",
"502 110 OFFCURVE",
"379 110 CURVE",
"255 110 OFFCURVE",
"170 215 OFFCURVE",
"170 350 CURVE",
"170 485 OFFCURVE",
"255 590 OFFCURVE",
"379 590 CURVE",
"502 590 OFFCURVE",
"589 484 OFFCURVE",
"589 350 CURVE"
);
}
);
width = 759;
}
);
leftKerningGroup = C;
leftMetricsKey = O;
note = O;
rightKerningGroup = D;
rightMetricsKey = O;
unicode = 004F;
},
{
glyphname = Oslash;
lastChange = "2016-07-14 20:24:03 +0000";
layers = (
{
anchors = (
{
name = bottom;
position = "{361, 0}";
},
{
name = top;
position = "{361, 700}";
}
);
layerId = "254266E2-2911-423D-9D37-8CC6105656EE";
paths = (
{
closed = 1;
nodes = (
"684 707 LINE SMOOTH",
"690 714 OFFCURVE",
"685 720 OFFCURVE",
"673 720 CURVE SMOOTH",
"655 720 LINE SMOOTH",
"646 720 OFFCURVE",
"644 718 OFFCURVE",
"634 706 CURVE SMOOTH",
"568 628 LINE",
"566 625 OFFCURVE",
"564 625 OFFCURVE",
"561 627 CURVE",
"506 673 OFFCURVE",
"436 700 OFFCURVE",
"361 700 CURVE SMOOTH",
"179 700 OFFCURVE",
"32 543 OFFCURVE",
"32 350 CURVE SMOOTH",
"32 255 OFFCURVE",
"68 168 OFFCURVE",
"126 104 CURVE",
"128 102 OFFCURVE",
"128 100 OFFCURVE",
"126 97 CURVE",
"40 -6 LINE",
"31 -18 OFFCURVE",
"35 -20 OFFCURVE",
"50 -20 CURVE SMOOTH",
"68 -20 LINE SMOOTH",
"78 -20 OFFCURVE",
"78 -20 OFFCURVE",
"90 -6 CURVE SMOOTH",
"154 71 LINE",
"156 74 OFFCURVE",
"158 74 OFFCURVE",
"161 72 CURVE",
"216 27 OFFCURVE",
"286 0 OFFCURVE",
"361 0 CURVE SMOOTH",
"543 0 OFFCURVE",
"690 157 OFFCURVE",
"690 350 CURVE SMOOTH",
"690 445 OFFCURVE",
"654 532 OFFCURVE",
"596 595 CURVE",
"594 597 OFFCURVE",
"594 599 OFFCURVE",
"596 602 CURVE"
);
},
{
closed = 1;
nodes = (
"72 521 OFFCURVE",
"202 660 OFFCURVE",
"361 660 CURVE SMOOTH",
"426 660 OFFCURVE",
"487 636 OFFCURVE",
"536 596 CURVE",
"539 594 OFFCURVE",
"539 592 OFFCURVE",
"537 589 CURVE",
"158 136 LINE",
"156 134 OFFCURVE",
"154 133 OFFCURVE",
"151 136 CURVE",
"103 192 OFFCURVE",
"72 267 OFFCURVE",
"72 350 CURVE SMOOTH"
);
},
{
closed = 1;
nodes = (
"296 40 OFFCURVE",
"235 64 OFFCURVE",
"187 103 CURVE",
"184 105 OFFCURVE",
"184 107 OFFCURVE",
"186 110 CURVE",
"564 563 LINE",
"566 565 OFFCURVE",
"568 566 OFFCURVE",
"571 563 CURVE",
"619 507 OFFCURVE",
"650 432 OFFCURVE",
"650 350 CURVE SMOOTH",
"650 179 OFFCURVE",
"520 40 OFFCURVE",
"361 40 CURVE SMOOTH"
);
}
);
width = 721;
},
{
layerId = "8816CCA3-DDF9-4C51-BD56-64EE3675A105";
paths = (
{
closed = 1;
nodes = (
"684 667 LINE SMOOTH",
"702 690 OFFCURVE",
"700 719 OFFCURVE",
"678 737 CURVE SMOOTH",
"655 756 OFFCURVE",
"625 753 OFFCURVE",
"606 730 CURVE SMOOTH",
"549 659 LINE",
"547 657 OFFCURVE",
"544 656 OFFCURVE",
"542 658 CURVE",
"491 691 OFFCURVE",
"432 710 OFFCURVE",
"369 710 CURVE SMOOTH",
"187 710 OFFCURVE",
"40 553 OFFCURVE",
"40 360 CURVE SMOOTH",
"40 274 OFFCURVE",
"69 196 OFFCURVE",
"117 135 CURVE",
"119 132 OFFCURVE",
"119 130 OFFCURVE",
"117 128 CURVE",
"56 52 LINE SMOOTH",
"38 29 OFFCURVE",
"40 0 OFFCURVE",
"62 -18 CURVE SMOOTH",
"85 -37 OFFCURVE",
"115 -34 OFFCURVE",
"134 -11 CURVE SMOOTH",
"191 60 LINE",
"193 62 OFFCURVE",
"196 62 OFFCURVE",
"198 61 CURVE",
"248 29 OFFCURVE",
"306 10 OFFCURVE",
"369 10 CURVE SMOOTH",
"551 10 OFFCURVE",
"699 167 OFFCURVE",
"699 360 CURVE SMOOTH",
"699 445 OFFCURVE",
"670 523 OFFCURVE",
"622 584 CURVE",
"620 586 OFFCURVE",
"620 589 OFFCURVE",
"622 591 CURVE"
);
},
{
closed = 1;
nodes = (
"160 489 OFFCURVE",
"256 590 OFFCURVE",
"369 590 CURVE SMOOTH",
"403 590 OFFCURVE",
"436 581 OFFCURVE",
"465 564 CURVE",
"468 563 OFFCURVE",
"468 560 OFFCURVE",
"466 557 CURVE",
"202 232 LINE",
"200 229 OFFCURVE",
"197 229 OFFCURVE",
"195 233 CURVE",
"173 269 OFFCURVE",
"160 312 OFFCURVE",
"160 360 CURVE SMOOTH"
);
},
{
closed = 1;
nodes = (
"336 130 OFFCURVE",
"304 139 OFFCURVE",
"275 155 CURVE",
"272 156 OFFCURVE",
"272 159 OFFCURVE",
"274 162 CURVE",
"537 486 LINE",
"540 489 OFFCURVE",
"542 489 OFFCURVE",
"544 486 CURVE",
"566 450 OFFCURVE",
"579 407 OFFCURVE",
"579 360 CURVE SMOOTH",
"579 232 OFFCURVE",
"482 130 OFFCURVE",
"369 130 CURVE SMOOTH"
);
}
);
width = 739;
}
);
leftMetricsKey = "+10";
note = Oslash;
rightMetricsKey = "+10";
unicode = 00D8;
},
{
glyphname = OE;
lastChange = "2016-07-14 20:24:03 +0000";
layers = (
{
anchors = (
{
name = bottom;
position = "{483, 0}";
},
{
name = top;
position = "{483, 700}";
}
);
layerId = "254266E2-2911-423D-9D37-8CC6105656EE";
paths = (
{
closed = 1;
nodes = (
"564 40 LINE",
"570 33 LINE",
"570 297 LINE",
"564 291 LINE",
"872 291 LINE SMOOTH",
"883 291 OFFCURVE",
"892 299 OFFCURVE",
"892 311 CURVE SMOOTH",
"892 322 OFFCURVE",
"883 331 OFFCURVE",
"872 331 CURVE SMOOTH",
"564 331 LINE",
"570 320 LINE",
"570 664 LINE",
"565 660 LINE",
"917 660 LINE SMOOTH",
"928 660 OFFCURVE",
"937 668 OFFCURVE",
"937 680 CURVE SMOOTH",
"937 691 OFFCURVE",
"928 700 OFFCURVE",
"917 700 CURVE SMOOTH",
"329 700 LINE SMOOTH",
"128 700 OFFCURVE",
"39 532 OFFCURVE",
"39 350 CURVE SMOOTH",
"39 158 OFFCURVE",
"128 0 OFFCURVE",
"329 0 CURVE SMOOTH",
"549 0 LINE",
"550 0 LINE",
"917 0 LINE SMOOTH",
"928 0 OFFCURVE",
"937 8 OFFCURVE",
"937 20 CURVE SMOOTH",
"937 31 OFFCURVE",
"928 40 OFFCURVE",
"917 40 CURVE SMOOTH"
);
},
{
closed = 1;
nodes = (
"529 30 LINE",
"536 40 LINE",
"339 40 LINE SMOOTH",
"156 40 OFFCURVE",
"79 177 OFFCURVE",
"79 350 CURVE SMOOTH",
"79 513 OFFCURVE",
"156 660 OFFCURVE",
"339 660 CURVE SMOOTH",
"533 660 LINE",
"529 666 LINE"
);
}
);
width = 965;
},
{
layerId = "8816CCA3-DDF9-4C51-BD56-64EE3675A105";
paths = (
{
closed = 1;
nodes = (
"599 120 LINE",
"605 111 LINE",
"605 270 LINE",
"593 250 LINE",
"826 250 LINE SMOOTH",
"861 250 OFFCURVE",
"887 275 OFFCURVE",
"887 309 CURVE SMOOTH",
"887 344 OFFCURVE",
"861 370 OFFCURVE",
"826 370 CURVE SMOOTH",
"593 370 LINE",
"605 355 LINE",
"605 601 LINE",
"594 580 LINE",
"871 580 LINE SMOOTH",
"906 580 OFFCURVE",
"932 605 OFFCURVE",
"932 639 CURVE SMOOTH",
"932 674 OFFCURVE",
"906 700 OFFCURVE",
"871 700 CURVE SMOOTH",
"546 700 LINE",
"345 700 LINE SMOOTH",
"152 700 OFFCURVE",
"45 543 OFFCURVE",
"45 350 CURVE SMOOTH",
"45 156 OFFCURVE",
"152 0 OFFCURVE",
"345 0 CURVE SMOOTH",
"544 0 LINE",
"871 0 LINE SMOOTH",
"906 0 OFFCURVE",
"932 25 OFFCURVE",
"932 59 CURVE SMOOTH",
"932 94 OFFCURVE",
"906 120 OFFCURVE",
"871 120 CURVE SMOOTH"
);
},
{
closed = 1;
nodes = (
"345 120 LINE SMOOTH",
"219 120 OFFCURVE",
"165 223 OFFCURVE",
"165 350 CURVE SMOOTH",
"165 476 OFFCURVE",
"219 580 OFFCURVE",
"345 580 CURVE SMOOTH",
"498 580 LINE",
"485 598 LINE",
"485 104 LINE",
"500 120 LINE"
);
}
);
width = 977;
}
);
leftMetricsKey = "+10";
note = OE;
rightMetricsKey = "+10";
unicode = 0152;
},
{
glyphname = P;
lastChange = "2016-07-14 20:24:03 +0000";
layers = (
{
anchors = (
{
name = bottom;
position = "{297, 0}";
},
{
name = top;
position = "{297, 700}";
}
);
layerId = "254266E2-2911-423D-9D37-8CC6105656EE";
paths = (
{
closed = 1;
nodes = (
"120 700 LINE",
"109 700 OFFCURVE",
"100 691 OFFCURVE",
"100 680 CURVE",
"100 20 LINE",
"100 9 OFFCURVE",
"108 0 OFFCURVE",
"121 0 CURVE",
"132 0 OFFCURVE",
"142 9 OFFCURVE",
"142 20 CURVE",
"142 318 LINE",
"138 311 LINE",
"360 311 LINE",
"474 311 OFFCURVE",
"549 396 OFFCURVE",
"549 509 CURVE",
"549 622 OFFCURVE",
"474 700 OFFCURVE",
"360 700 CURVE"
);
},
{
closed = 1;
nodes = (
"138 351 LINE",
"142 348 LINE",
"142 665 LINE",
"139 660 LINE",
"360 660 LINE",
"451 660 OFFCURVE",
"507 600 OFFCURVE",
"507 509 CURVE",
"507 418 OFFCURVE",
"451 351 OFFCURVE",
"360 351 CURVE"
);
}
);
width = 594;
},
{
layerId = "8816CCA3-DDF9-4C51-BD56-64EE3675A105";
paths = (
{
closed = 1;
nodes = (
"136 700 LINE SMOOTH",
"101 700 OFFCURVE",
"75 674 OFFCURVE",
"75 639 CURVE SMOOTH",
"75 61 LINE SMOOTH",
"75 26 OFFCURVE",
"100 0 OFFCURVE",
"134 0 CURVE SMOOTH",
"169 0 OFFCURVE",
"195 26 OFFCURVE",
"195 61 CURVE SMOOTH",
"195 268 LINE",
"185 250 LINE",
"364 250 LINE SMOOTH",
"468 250 OFFCURVE",
"563 351 OFFCURVE",
"563 475 CURVE SMOOTH",
"563 600 OFFCURVE",
"468 700 OFFCURVE",
"364 700 CURVE SMOOTH"
);
},
{
closed = 1;
nodes = (
"184 370 LINE",
"195 354 LINE",
"195 598 LINE",
"183 580 LINE",
"364 580 LINE SMOOTH",
"402 580 OFFCURVE",
"443 533 OFFCURVE",
"443 475 CURVE SMOOTH",
"443 418 OFFCURVE",
"402 370 OFFCURVE",
"364 370 CURVE SMOOTH"
);
}
);
width = 603;
}
);
leftMetricsKey = H;
note = P;
rightKerningGroup = P;
unicode = 0050;
},
{
glyphname = Thorn;
lastChange = "2016-07-18 23:43:58 +0000";
layers = (
{
anchors = (
{
name = bottom;
position = "{262, 0}";
},
{
name = top;
position = "{262, 700}";
}
);
layerId = "254266E2-2911-423D-9D37-8CC6105656EE";
paths = (
{
closed = 1;
nodes = (
"140 720 LINE SMOOTH",
"140 731 OFFCURVE",
"132 740 OFFCURVE",
"120 740 CURVE SMOOTH",
"109 740 OFFCURVE",
"100 731 OFFCURVE",
"100 720 CURVE SMOOTH",
"100 20 LINE SMOOTH",
"100 9 OFFCURVE",
"108 0 OFFCURVE",
"120 0 CURVE SMOOTH",
"131 0 OFFCURVE",
"140 9 OFFCURVE",
"140 20 CURVE SMOOTH"
);
},
{
closed = 1;
nodes = (
"127 198 LINE",
"349 198 LINE",
"463 198 OFFCURVE",
"538 283 OFFCURVE",
"538 396 CURVE",
"538 509 OFFCURVE",
"463 587 OFFCURVE",
"349 587 CURVE",
"109 587 LINE",
"128 547 LINE",
"349 547 LINE",
"440 547 OFFCURVE",
"496 487 OFFCURVE",
"496 396 CURVE",
"496 305 OFFCURVE",
"440 238 OFFCURVE",
"349 238 CURVE",
"127 238 LINE"
);
}
);
width = 583;
},
{
layerId = "8816CCA3-DDF9-4C51-BD56-64EE3675A105";
paths = (
{
closed = 1;
nodes = (
"534 576 OFFCURVE",
"383 589 OFFCURVE",
"205 590 CURVE",
"205 679 LINE SMOOTH",
"205 714 OFFCURVE",
"181 740 OFFCURVE",
"146 740 CURVE SMOOTH",
"111 740 OFFCURVE",
"85 714 OFFCURVE",
"85 679 CURVE SMOOTH",
"85 61 LINE SMOOTH",
"85 26 OFFCURVE",
"109 0 OFFCURVE",
"144 0 CURVE SMOOTH",
"179 0 OFFCURVE",
"205 26 OFFCURVE",
"205 61 CURVE SMOOTH",
"205 152 LINE",
"375 153 OFFCURVE",
"534 166 OFFCURVE",
"534 371 CURVE SMOOTH"
);
},
{
closed = 1;
nodes = (
"205 470 LINE",
"343 471 OFFCURVE",
"414 469 OFFCURVE",
"414 371 CURVE SMOOTH",
"414 272 OFFCURVE",
"343 271 OFFCURVE",
"205 272 CURVE"
);
}
);
width = 564;
}
);
leftMetricsKey = H;
note = Thorn;
rightMetricsKey = P;
unicode = 00DE;
},
{
glyphname = Q;
lastChange = "2016-07-14 20:55:32 +0000";
layers = (
{
anchors = (
{
name = bottom;
position = "{391, 0}";
},
{
name = top;
position = "{391, 700}";
}
);
layerId = "254266E2-2911-423D-9D37-8CC6105656EE";
paths = (
{
closed = 1;
nodes = (
"215 -60 LINE",
"208 -63 OFFCURVE",
"204 -70 OFFCURVE",
"204 -77 CURVE",
"204 -89 OFFCURVE",
"213 -98 OFFCURVE",
"224 -98 CURVE",
"241 -98 OFFCURVE",
"264 -76 OFFCURVE",
"301 -76 CURVE",
"425 -76 OFFCURVE",
"464 -165 OFFCURVE",
"621 -165 CURVE",
"696 -165 OFFCURVE",
"797 -122 OFFCURVE",
"797 -82 CURVE",
"797 -72 OFFCURVE",
"791 -65 OFFCURVE",
"780 -65 CURVE SMOOTH",
"765 -65 OFFCURVE",
"755 -83 OFFCURVE",
"736 -94 CURVE SMOOTH",
"715 -106 OFFCURVE",
"678 -127 OFFCURVE",
"621 -127 CURVE",
"493 -127 OFFCURVE",
"437 -40 OFFCURVE",
"320 -40 CURVE",
"321 -48 LINE",
"468 0 LINE",
"376 -4 LINE"
);
},
{
closed = 1;
nodes = (
"718 563 OFFCURVE",
"579 710 OFFCURVE",
"384 710 CURVE",
"189 710 OFFCURVE",
"50 563 OFFCURVE",
"50 350 CURVE",
"50 137 OFFCURVE",
"189 -10 OFFCURVE",
"384 -10 CURVE",
"579 -10 OFFCURVE",
"718 137 OFFCURVE",
"718 350 CURVE"
);
},
{
closed = 1;
nodes = (
"676 159 OFFCURVE",
"555 30 OFFCURVE",
"384 30 CURVE",
"213 30 OFFCURVE",
"92 159 OFFCURVE",
"92 350 CURVE",
"92 541 OFFCURVE",
"213 670 OFFCURVE",
"384 670 CURVE",
"555 670 OFFCURVE",
"676 541 OFFCURVE",
"676 350 CURVE"
);
}
);
width = 782;
},
{
layerId = "8816CCA3-DDF9-4C51-BD56-64EE3675A105";
paths = (
{
closed = 1;
nodes = (
"308 -56 LINE",
"502 16 LINE",
"412 38 LINE",
"205 -39 LINE",
"183 -47 OFFCURVE",
"170 -64 OFFCURVE",
"170 -91 CURVE",
"170 -121 OFFCURVE",
"196 -151 OFFCURVE",
"229 -151 CURVE",
"277 -151 OFFCURVE",
"284 -125 OFFCURVE",
"322 -125 CURVE",
"402 -125 OFFCURVE",
"413 -200 OFFCURVE",
"578 -200 CURVE",
"632 -200 OFFCURVE",
"709 -169 OFFCURVE",
"755 -135 CURVE",
"772 -123 OFFCURVE",
"780 -104 OFFCURVE",
"780 -86 CURVE",
"780 -56 OFFCURVE",
"751 -28 OFFCURVE",
"723 -28 CURVE",
"681 -28 OFFCURVE",
"660 -91 OFFCURVE",
"585 -91 CURVE",
"498 -91 OFFCURVE",
"458 -23 OFFCURVE",
"365 -23 CURVE"
);
},
{
closed = 1;
nodes = (
"719 549 OFFCURVE",
"577 710 OFFCURVE",
"379 710 CURVE",
"181 710 OFFCURVE",
"40 549 OFFCURVE",
"40 350 CURVE",
"40 151 OFFCURVE",
"181 -10 OFFCURVE",
"379 -10 CURVE",
"577 -10 OFFCURVE",
"719 151 OFFCURVE",
"719 350 CURVE"
);
},
{
closed = 1;
nodes = (
"589 216 OFFCURVE",
"502 110 OFFCURVE",
"379 110 CURVE",
"255 110 OFFCURVE",
"170 215 OFFCURVE",
"170 350 CURVE",
"170 485 OFFCURVE",
"255 590 OFFCURVE",
"379 590 CURVE",
"502 590 OFFCURVE",
"589 484 OFFCURVE",
"589 350 CURVE"
);
}
);
width = 755;
}
);
leftKerningGroup = C;
leftMetricsKey = O;
note = Q;
rightKerningGroup = D;
unicode = 0051;
},
{
glyphname = R;
lastChange = "2016-07-14 20:24:03 +0000";
layers = (
{
anchors = (
{
name = bottom;
position = "{337, 0}";
},
{
name = top;
position = "{337, 700}";
}
);
layerId = "254266E2-2911-423D-9D37-8CC6105656EE";
paths = (
{
closed = 1;
nodes = (
"133 0 OFFCURVE",
"142 9 OFFCURVE",
"142 20 CURVE",
"142 325 LINE",
"133 313 LINE",
"386 313 LINE",
"443 313 OFFCURVE",
"532 294 OFFCURVE",
"532 170 CURVE",
"532 49 OFFCURVE",
"563 19 OFFCURVE",
"591 3 CURVE",
"602 -3 OFFCURVE",
"614 3 OFFCURVE",
"618 15 CURVE",
"621 25 OFFCURVE",
"616 34 OFFCURVE",
"608 39 CURVE",
"588 52 OFFCURVE",
"574 73 OFFCURVE",
"574 170 CURVE",
"574 284 OFFCURVE",
"496 347 OFFCURVE",
"416 347 CURVE",
"462 339 LINE",
"538 360 OFFCURVE",
"592 427 OFFCURVE",
"592 519 CURVE",
"592 623 OFFCURVE",
"512 700 OFFCURVE",
"394 700 CURVE",
"120 700 LINE",
"109 700 OFFCURVE",
"100 691 OFFCURVE",
"100 680 CURVE",
"100 20 LINE",
"100 9 OFFCURVE",
"108 0 OFFCURVE",
"121 0 CURVE"
);
},
{
closed = 1;
nodes = (
"142 342 LINE",
"142 667 LINE",
"137 660 LINE",
"389 660 LINE",
"488 660 OFFCURVE",
"550 599 OFFCURVE",
"550 518 CURVE",
"550 419 OFFCURVE",
"478 360 OFFCURVE",
"399 353 CURVE",
"132 353 LINE"
);
}
);
width = 674;
},
{
layerId = "8816CCA3-DDF9-4C51-BD56-64EE3675A105";
paths = (
{
closed = 1;
nodes = (
"187 0 OFFCURVE",
"205 26 OFFCURVE",
"205 61 CURVE",
"205 278 LINE",
"190 255 LINE",
"387 255 LINE",
"447 255 OFFCURVE",
"478 223 OFFCURVE",
"478 177 CURVE",
"478 73 OFFCURVE",
"515 30 OFFCURVE",
"550 10 CURVE",
"572 -3 OFFCURVE",
"618 -9 OFFCURVE",
"640 17 CURVE",
"662 42 OFFCURVE",
"653 81 OFFCURVE",
"624 98 CURVE",
"598 112 OFFCURVE",
"602 143 OFFCURVE",
"595 194 CURVE",
"590 247 OFFCURVE",
"563 293 OFFCURVE",
"507 324 CURVE",
"506 301 LINE",
"572 333 OFFCURVE",
"623 409 OFFCURVE",
"623 485 CURVE",
"623 610 OFFCURVE",
"528 700 OFFCURVE",
"424 700 CURVE",
"136 700 LINE",
"101 700 OFFCURVE",
"75 674 OFFCURVE",
"75 639 CURVE",
"75 61 LINE",
"75 26 OFFCURVE",
"112 0 OFFCURVE",
"149 0 CURVE"
);
},
{
closed = 1;
nodes = (
"205 340 LINE",
"205 612 LINE",
"193 580 LINE",
"419 580 LINE",
"455 580 OFFCURVE",
"493 540 OFFCURVE",
"493 482 CURVE",
"493 413 OFFCURVE",
"455 364 OFFCURVE",
"419 364 CURVE",
"191 364 LINE"
);
}
);
width = 687;
}
);
leftMetricsKey = H;
note = R;
rightKerningGroup = R;
unicode = 0052;
},
{
glyphname = Rcommaaccent;
lastChange = "2016-07-14 20:40:27 +0000";
layers = (
{
components = (
{
name = R;
},
{
name = commaaccentcomb.case;
transform = "{1, 0, 0, 1, 253, 0}";
}
);
layerId = "254266E2-2911-423D-9D37-8CC6105656EE";
width = 674;
},
{
layerId = "8816CCA3-DDF9-4C51-BD56-64EE3675A105";
paths = (
{
closed = 1;
nodes = (
"146 700 LINE SMOOTH",
"111 700 OFFCURVE",
"85 674 OFFCURVE",
"85 639 CURVE SMOOTH",
"85 61 LINE SMOOTH",
"85 26 OFFCURVE",
"110 0 OFFCURVE",
"144 0 CURVE SMOOTH",
"179 0 OFFCURVE",
"205 26 OFFCURVE",
"205 61 CURVE SMOOTH",
"205 265 LINE SMOOTH",
"205 272 OFFCURVE",
"209 275 OFFCURVE",
"215 275 CURVE SMOOTH",
"337 275 LINE SMOOTH",
"397 275 OFFCURVE",
"428 239 OFFCURVE",
"428 187 CURVE SMOOTH",
"428 77 OFFCURVE",
"465 31 OFFCURVE",
"500 10 CURVE SMOOTH",
"522 -3 OFFCURVE",
"568 -9 OFFCURVE",
"590 17 CURVE SMOOTH",
"612 42 OFFCURVE",
"603 81 OFFCURVE",
"574 98 CURVE SMOOTH",
"548 113 OFFCURVE",
"551 148 OFFCURVE",
"545 204 CURVE SMOOTH",
"540 247 OFFCURVE",
"529 281 OFFCURVE",
"481 316 CURVE",
"475 320 OFFCURVE",
"475 326 OFFCURVE",
"481 330 CURVE",
"534 362 OFFCURVE",
"573 417 OFFCURVE",
"573 485 CURVE SMOOTH",
"573 610 OFFCURVE",
"478 700 OFFCURVE",
"374 700 CURVE SMOOTH"
);
},
{
closed = 1;
nodes = (
"215 384 LINE SMOOTH",
"209 384 OFFCURVE",
"205 388 OFFCURVE",
"205 394 CURVE SMOOTH",
"205 570 LINE SMOOTH",
"205 577 OFFCURVE",
"209 580 OFFCURVE",
"215 580 CURVE SMOOTH",
"374 580 LINE SMOOTH",
"412 580 OFFCURVE",
"453 540 OFFCURVE",
"453 482 CURVE SMOOTH",
"453 425 OFFCURVE",
"412 384 OFFCURVE",
"374 384 CURVE SMOOTH"
);
},
{
closed = 1;
nodes = (
"262 -351 OFFCURVE",
"288 -361 OFFCURVE",
"319 -351 CURVE SMOOTH",
"384 -331 OFFCURVE",
"418 -284 OFFCURVE",
"418 -195 CURVE SMOOTH",
"418 -140 LINE SMOOTH",
"418 -105 OFFCURVE",
"392 -79 OFFCURVE",
"357 -79 CURVE SMOOTH",
"346 -79 LINE SMOOTH",
"311 -79 OFFCURVE",
"285 -105 OFFCURVE",
"285 -140 CURVE SMOOTH",
"285 -155 LINE SMOOTH",
"285 -190 OFFCURVE",
"306 -216 OFFCURVE",
"336 -216 CURVE",
"339 -251 OFFCURVE",
"327 -276 OFFCURVE",
"299 -293 CURVE SMOOTH",
"273 -309 OFFCURVE",
"254 -320 OFFCURVE",
"258 -336 CURVE SMOOTH"
);
}
);
width = 637;
}
);
leftMetricsKey = H;
note = Rcommaaccent;
rightMetricsKey = R;
unicode = 0156;
},
{
glyphname = S;
lastChange = "2016-07-14 20:24:03 +0000";
layers = (
{
anchors = (
{
name = bottom;
position = "{275, 0}";
},
{
name = top;
position = "{275, 700}";
}
);
layerId = "254266E2-2911-423D-9D37-8CC6105656EE";
paths = (
{
closed = 1;
nodes = (
"416 -9 OFFCURVE",
"499 72 OFFCURVE",
"499 163 CURVE",
"499 304 OFFCURVE",
"391 340 OFFCURVE",
"289 376 CURVE",
"202 407 OFFCURVE",
"111 444 OFFCURVE",
"111 536 CURVE SMOOTH",
"111 621 OFFCURVE",
"190 670 OFFCURVE",
"288 670 CURVE",
"360 670 OFFCURVE",
"421 639 OFFCURVE",
"457 592 CURVE",
"461 587 OFFCURVE",
"466 586 OFFCURVE",
"470 586 CURVE",
"482 586 OFFCURVE",
"494 597 OFFCURVE",
"494 607 CURVE",
"494 611 OFFCURVE",
"491 618 OFFCURVE",
"484 628 CURVE",
"442 682 OFFCURVE",
"364 710 OFFCURVE",
"288 710 CURVE",
"152 710 OFFCURVE",
"68 633 OFFCURVE",
"68 535 CURVE SMOOTH",
"68 407 OFFCURVE",
"170 372 OFFCURVE",
"269 335 CURVE",
"363 300 OFFCURVE",
"454 267 OFFCURVE",
"456 165 CURVE",
"456 83 OFFCURVE",
"381 30 OFFCURVE",
"279 30 CURVE",
"201 30 OFFCURVE",
"127 62 OFFCURVE",
"74 124 CURVE",
"68 131 OFFCURVE",
"63 133 OFFCURVE",
"57 133 CURVE",
"46 133 OFFCURVE",
"35 120 OFFCURVE",
"35 110 CURVE",
"35 102 OFFCURVE",
"38 98 OFFCURVE",
"41 95 CURVE",
"110 26 OFFCURVE",
"179 -11 OFFCURVE",
"283 -10 CURVE"
);
}
);
width = 550;
},
{
layerId = "8816CCA3-DDF9-4C51-BD56-64EE3675A105";
paths = (
{
closed = 1;
nodes = (
"435 -10 OFFCURVE",
"557 69 OFFCURVE",
"557 199 CURVE",
"557 335 OFFCURVE",
"477 380 OFFCURVE",
"316 409 CURVE SMOOTH",
"223 426 OFFCURVE",
"169 449 OFFCURVE",
"169 510 CURVE",
"169 559 OFFCURVE",
"214 595 OFFCURVE",
"301 595 CURVE",
"352 595 OFFCURVE",
"424 566 OFFCURVE",
"457 539 CURVE",
"465 533 OFFCURVE",
"475 530 OFFCURVE",
"484 530 CURVE",
"515 530 OFFCURVE",
"541 558 OFFCURVE",
"541 588 CURVE",
"541 608 OFFCURVE",
"530 627 OFFCURVE",
"512 641 CURVE",
"465 681 OFFCURVE",
"388 710 OFFCURVE",
"301 710 CURVE",
"162 710 OFFCURVE",
"51 635 OFFCURVE",
"51 505 CURVE",
"51 390 OFFCURVE",
"126 322 OFFCURVE",
"270 301 CURVE SMOOTH",
"384 284 OFFCURVE",
"437 252 OFFCURVE",
"437 192 CURVE",
"437 142 OFFCURVE",
"373 105 OFFCURVE",
"300 105 CURVE",
"227 105 OFFCURVE",
"183 126 OFFCURVE",
"132 168 CURVE",
"122 176 OFFCURVE",
"110 180 OFFCURVE",
"98 180 CURVE",
"65 180 OFFCURVE",
"40 152 OFFCURVE",
"40 122 CURVE",
"40 103 OFFCURVE",
"50 84 OFFCURVE",
"67 69 CURVE",
"135 10 OFFCURVE",
"207 -10 OFFCURVE",
"300 -10 CURVE"
);
}
);
width = 597;
}
);
leftKerningGroup = S;
note = S;
rightKerningGroup = S;
unicode = 0053;
},
{
glyphname = Scommaaccent;
lastChange = "2016-07-14 20:40:27 +0000";
layers = (
{
components = (
{
name = S;
},
{
name = commaaccentcomb.case;
transform = "{1, 0, 0, 1, 191, 0}";
}
);
layerId = "254266E2-2911-423D-9D37-8CC6105656EE";
width = 550;
},
{
layerId = "8816CCA3-DDF9-4C51-BD56-64EE3675A105";
paths = (
{
closed = 1;
nodes = (
"136 16 OFFCURVE",
"217 -7 OFFCURVE",
"310 -7 CURVE SMOOTH",
"445 -7 OFFCURVE",
"577 66 OFFCURVE",
"577 193 CURVE SMOOTH",
"577 285 OFFCURVE",
"544 358 OFFCURVE",
"355 410 CURVE SMOOTH",
"246 440 OFFCURVE",
"161 464 OFFCURVE",
"161 523 CURVE SMOOTH",
"161 563 OFFCURVE",
"202 595 OFFCURVE",
"291 595 CURVE SMOOTH",
"361 595 OFFCURVE",
"412 562 OFFCURVE",
"447 534 CURVE SMOOTH",
"469 517 OFFCURVE",
"500 525 OFFCURVE",
"516 545 CURVE SMOOTH",
"541 576 OFFCURVE",
"532 612 OFFCURVE",
"502 636 CURVE SMOOTH",
"453 676 OFFCURVE",
"382 710 OFFCURVE",
"291 710 CURVE SMOOTH",
"148 710 OFFCURVE",
"41 632 OFFCURVE",
"41 514 CURVE SMOOTH",
"41 367 OFFCURVE",
"200 337 OFFCURVE",
"324 303 CURVE SMOOTH",
"400 282 OFFCURVE",
"455 264 OFFCURVE",
"455 193 CURVE SMOOTH",
"455 145 OFFCURVE",
"393 108 OFFCURVE",
"310 108 CURVE SMOOTH",
"237 108 OFFCURVE",
"183 130 OFFCURVE",
"132 173 CURVE SMOOTH",
"109 192 OFFCURVE",
"76 189 OFFCURVE",
"56 166 CURVE SMOOTH",
"30 137 OFFCURVE",
"37 100 OFFCURVE",
"67 74 CURVE SMOOTH"
);
},
{
closed = 1;
nodes = (
"256 -351 OFFCURVE",
"282 -361 OFFCURVE",
"313 -351 CURVE SMOOTH",
"378 -331 OFFCURVE",
"412 -284 OFFCURVE",
"412 -195 CURVE SMOOTH",
"412 -140 LINE SMOOTH",
"412 -105 OFFCURVE",
"386 -79 OFFCURVE",
"351 -79 CURVE SMOOTH",
"340 -79 LINE SMOOTH",
"305 -79 OFFCURVE",
"279 -105 OFFCURVE",
"279 -140 CURVE SMOOTH",
"279 -155 LINE SMOOTH",
"279 -190 OFFCURVE",
"300 -216 OFFCURVE",
"330 -216 CURVE",
"333 -251 OFFCURVE",
"321 -276 OFFCURVE",
"293 -293 CURVE SMOOTH",
"267 -309 OFFCURVE",
"248 -320 OFFCURVE",
"252 -336 CURVE SMOOTH"
);
}
);
width = 617;
}
);
leftMetricsKey = "+10";
note = Scommaaccent;
rightMetricsKey = "+10";
unicode = 0218;
},
{
glyphname = T;
lastChange = "2016-07-14 20:24:03 +0000";
layers = (
{
anchors = (
{
name = bottom;
position = "{298, 0}";
},
{
name = center;
position = "{298, 350}";
},
{
name = top;
position = "{298, 700}";
}
);
layerId = "254266E2-2911-423D-9D37-8CC6105656EE";
paths = (
{
closed = 1;
nodes = (
"309 0 OFFCURVE",
"318 9 OFFCURVE",
"318 20 CURVE SMOOTH",
"318 676 LINE",
"278 676 LINE",
"278 20 LINE SMOOTH",
"278 9 OFFCURVE",
"286 0 OFFCURVE",
"298 0 CURVE SMOOTH"
);
},
{
closed = 1;
nodes = (
"541 662 LINE SMOOTH",
"552 662 OFFCURVE",
"561 669 OFFCURVE",
"561 681 CURVE SMOOTH",
"561 692 OFFCURVE",
"552 700 OFFCURVE",
"541 700 CURVE SMOOTH",
"55 700 LINE SMOOTH",
"44 700 OFFCURVE",
"35 692 OFFCURVE",
"35 681 CURVE SMOOTH",
"35 670 OFFCURVE",
"44 662 OFFCURVE",
"55 662 CURVE SMOOTH"
);
}
);
width = 596;
},
{
layerId = "8816CCA3-DDF9-4C51-BD56-64EE3675A105";
paths = (
{
closed = 1;
nodes = (
"350 0 OFFCURVE",
"378 26 OFFCURVE",
"378 61 CURVE SMOOTH",
"378 639 LINE",
"248 639 LINE",
"248 61 LINE SMOOTH",
"248 26 OFFCURVE",
"275 0 OFFCURVE",
"312 0 CURVE SMOOTH"
);
},
{
closed = 1;
nodes = (
"535 580 LINE SMOOTH",
"570 580 OFFCURVE",
"596 605 OFFCURVE",
"596 640 CURVE SMOOTH",
"596 675 OFFCURVE",
"570 700 OFFCURVE",
"535 700 CURVE SMOOTH",
"91 700 LINE SMOOTH",
"56 700 OFFCURVE",
"30 675 OFFCURVE",
"30 641 CURVE SMOOTH",
"30 606 OFFCURVE",
"56 580 OFFCURVE",
"91 580 CURVE SMOOTH"
);
}
);
width = 626;
}
);
leftKerningGroup = T;
note = T;
rightKerningGroup = T;
unicode = 0054;
},
{
glyphname = Tbar;
lastChange = "2016-07-16 20:18:14 +0000";
layers = (
{
components = (
{
name = macroncomb.case;
transform = "{1, 0, 0, 1, 93, 10}";
}
);
layerId = "254266E2-2911-423D-9D37-8CC6105656EE";
paths = (
{
closed = 1;
nodes = (
"541 692 OFFCURVE",
"532 700 OFFCURVE",
"521 700 CURVE SMOOTH",
"55 700 LINE SMOOTH",
"44 700 OFFCURVE",
"35 692 OFFCURVE",
"35 680 CURVE SMOOTH",
"35 669 OFFCURVE",
"44 660 OFFCURVE",
"55 660 CURVE SMOOTH",
"263 660 LINE SMOOTH",
"266 660 OFFCURVE",
"268 658 OFFCURVE",
"268 655 CURVE SMOOTH",
"268 20 LINE SMOOTH",
"268 9 OFFCURVE",
"276 0 OFFCURVE",
"288 0 CURVE SMOOTH",
"299 0 OFFCURVE",
"308 9 OFFCURVE",
"308 20 CURVE SMOOTH",
"308 655 LINE SMOOTH",
"308 658 OFFCURVE",
"310 660 OFFCURVE",
"313 660 CURVE SMOOTH",
"521 660 LINE SMOOTH",
"532 660 OFFCURVE",
"541 668 OFFCURVE",
"541 680 CURVE SMOOTH"
);
}
);
width = 576;
},
{
layerId = "8816CCA3-DDF9-4C51-BD56-64EE3675A105";
paths = (
{
closed = 1;
nodes = (
"510 580 LINE SMOOTH",
"545 580 OFFCURVE",
"571 605 OFFCURVE",
"571 640 CURVE SMOOTH",
"571 675 OFFCURVE",
"545 700 OFFCURVE",
"510 700 CURVE SMOOTH",
"86 700 LINE SMOOTH",
"51 700 OFFCURVE",
"25 675 OFFCURVE",
"25 641 CURVE SMOOTH",
"25 606 OFFCURVE",
"51 580 OFFCURVE",
"86 580 CURVE SMOOTH",
"233 580 LINE SMOOTH",
"236 580 OFFCURVE",
"238 578 OFFCURVE",
"238 575 CURVE SMOOTH",
"238 458 LINE",
"145 458 LINE SMOOTH",
"104 458 OFFCURVE",
"81 437 OFFCURVE",
"81 402 CURVE SMOOTH",
"81 365 OFFCURVE",
"104 344 OFFCURVE",
"145 344 CURVE SMOOTH",
"238 344 LINE",
"238 61 LINE SMOOTH",
"238 26 OFFCURVE",
"263 0 OFFCURVE",
"297 0 CURVE SMOOTH",
"332 0 OFFCURVE",
"358 26 OFFCURVE",
"358 61 CURVE SMOOTH",
"358 344 LINE",
"453 344 LINE SMOOTH",
"496 344 OFFCURVE",
"517 365 OFFCURVE",
"517 402 CURVE SMOOTH",
"517 437 OFFCURVE",
"494 458 OFFCURVE",
"453 458 CURVE SMOOTH",
"358 458 LINE",
"358 575 LINE SMOOTH",
"358 578 OFFCURVE",
"360 580 OFFCURVE",
"363 580 CURVE SMOOTH"
);
}
);
width = 596;
}
);
leftMetricsKey = T;
note = Tbar;
rightMetricsKey = T;
unicode = 0166;
},
{
glyphname = U;
lastChange = "2016-07-14 20:24:03 +0000";
layers = (
{
anchors = (
{
name = bottom;
position = "{358, 0}";
},
{
name = ogonek;
position = "{643, 10}";
},
{
name = top;
position = "{358, 700}";
},
{
name = topright;
position = "{695, 700}";
}
);
layerId = "254266E2-2911-423D-9D37-8CC6105656EE";
paths = (
{
closed = 1;
nodes = (
"583 700 OFFCURVE",
"575 691 OFFCURVE",
"575 680 CURVE",
"575 248 LINE",
"575 128 OFFCURVE",
"477 30 OFFCURVE",
"358 30 CURVE",
"239 30 OFFCURVE",
"142 128 OFFCURVE",
"142 248 CURVE",
"142 680 LINE",
"142 691 OFFCURVE",
"133 700 OFFCURVE",
"121 700 CURVE",
"108 700 OFFCURVE",
"100 691 OFFCURVE",
"100 680 CURVE",
"100 248 LINE",
"100 106 OFFCURVE",
"216 -10 OFFCURVE",
"358 -10 CURVE",
"499 -10 OFFCURVE",
"615 106 OFFCURVE",
"615 248 CURVE",
"615 680 LINE",
"615 691 OFFCURVE",
"607 700 OFFCURVE",
"595 700 CURVE"
);
}
);
width = 715;
},
{
layerId = "8816CCA3-DDF9-4C51-BD56-64EE3675A105";
paths = (
{
closed = 1;
nodes = (
"535 701 OFFCURVE",
"510 675 OFFCURVE",
"510 640 CURVE",
"510 278 LINE",
"510 178 OFFCURVE",
"439 115 OFFCURVE",
"353 115 CURVE",
"272 115 OFFCURVE",
"205 178 OFFCURVE",
"205 278 CURVE",
"205 640 LINE",
"205 675 OFFCURVE",
"178 701 OFFCURVE",
"141 701 CURVE",
"103 701 OFFCURVE",
"75 675 OFFCURVE",
"75 640 CURVE",
"75 278 LINE",
"75 111 OFFCURVE",
"189 -5 OFFCURVE",
"353 -5 CURVE",
"516 -5 OFFCURVE",
"630 111 OFFCURVE",
"630 278 CURVE",
"630 640 LINE",
"630 675 OFFCURVE",
"605 701 OFFCURVE",
"570 701 CURVE"
);
}
);
width = 705;
}
);
leftKerningGroup = U;
leftMetricsKey = H;
note = U;
rightKerningGroup = U;
rightMetricsKey = H;
unicode = 0055;
},
{
glyphname = V;
lastChange = "2016-07-14 20:24:03 +0000";
layers = (
{
anchors = (
{
name = bottom;
position = "{330, 0}";
},
{
name = top;
position = "{330, 700}";
}
);
layerId = "254266E2-2911-423D-9D37-8CC6105656EE";
paths = (
{
closed = 1;
nodes = (
"597 700 OFFCURVE",
"590 695 OFFCURVE",
"586 687 CURVE",
"325 59 LINE",
"337 58 LINE",
"77 684 LINE SMOOTH",
"72 696 OFFCURVE",
"65 700 OFFCURVE",
"55 700 CURVE",
"45 700 OFFCURVE",
"36 692 OFFCURVE",
"36 681 CURVE",
"36 676 OFFCURVE",
"38 671 OFFCURVE",
"39 669 CURVE",
"311 13 LINE",
"314 5 OFFCURVE",
"322 0 OFFCURVE",
"330 0 CURVE",
"338 0 OFFCURVE",
"345 5 OFFCURVE",
"349 13 CURVE",
"623 672 LINE",
"624 675 OFFCURVE",
"625 679 OFFCURVE",
"625 682 CURVE",
"625 692 OFFCURVE",
"618 700 OFFCURVE",
"605 700 CURVE"
);
}
);
width = 660;
},
{
layerId = "8816CCA3-DDF9-4C51-BD56-64EE3675A105";
paths = (
{
closed = 1;
nodes = (
"563 702 OFFCURVE",
"542 688 OFFCURVE",
"531 664 CURVE",
"330 148 LINE",
"365 149 LINE",
"146 664 LINE",
"135 689 OFFCURVE",
"114 703 OFFCURVE",
"91 703 CURVE SMOOTH",
"66 703 OFFCURVE",
"30 682 OFFCURVE",
"30 643 CURVE SMOOTH",
"30 635 OFFCURVE",
"31 626 OFFCURVE",
"35 618 CURVE",
"282 38 LINE",
"293 14 OFFCURVE",
"314 1 OFFCURVE",
"336 0 CURVE",
"359 0 OFFCURVE",
"383 12 OFFCURVE",
"395 39 CURVE",
"642 617 LINE",
"646 626 OFFCURVE",
"648 635 OFFCURVE",
"648 644 CURVE SMOOTH",
"648 677 OFFCURVE",
"619 702 OFFCURVE",
"586 702 CURVE SMOOTH"
);
}
);
width = 678;
}
);
leftKerningGroup = V;
note = V;
rightKerningGroup = V;
unicode = 0056;
},
{
glyphname = W;
lastChange = "2016-07-14 20:24:03 +0000";
layers = (
{
anchors = (
{
name = bottom;
position = "{487, 0}";
},
{
name = top;
position = "{487, 700}";
}
);
layerId = "254266E2-2911-423D-9D37-8CC6105656EE";
paths = (
{
closed = 1;
nodes = (
"915 705 OFFCURVE",
"902 700 OFFCURVE",
"898 689 CURVE",
"683 63 LINE",
"692 64 LINE",
"506 532 LINE",
"503 540 OFFCURVE",
"495 545 OFFCURVE",
"487 545 CURVE",
"478 545 OFFCURVE",
"471 540 OFFCURVE",
"468 532 CURVE",
"284 67 LINE",
"291 68 LINE",
"76 689 LINE",
"72 700 OFFCURVE",
"59 705 OFFCURVE",
"48 700 CURVE",
"37 695 OFFCURVE",
"33 684 OFFCURVE",
"37 673 CURVE",
"266 13 LINE",
"268 5 OFFCURVE",
"276 0 OFFCURVE",
"283 0 CURVE",
"292 -1 OFFCURVE",
"300 3 OFFCURVE",
"304 12 CURVE",
"491 484 LINE",
"483 484 LINE",
"670 12 LINE",
"673 3 OFFCURVE",
"681 -1 OFFCURVE",
"690 0 CURVE",
"697 0 OFFCURVE",
"705 5 OFFCURVE",
"708 13 CURVE",
"937 673 LINE",
"941 684 OFFCURVE",
"937 695 OFFCURVE",
"926 700 CURVE"
);
}
);
width = 974;
},
{
layerId = "8816CCA3-DDF9-4C51-BD56-64EE3675A105";
paths = (
{
closed = 1;
nodes = (
"646 188 LINE",
"662 198 LINE",
"532 524 LINE SMOOTH",
"522 548 OFFCURVE",
"501 563 OFFCURVE",
"476 562 CURVE",
"450 563 OFFCURVE",
"429 548 OFFCURVE",
"419 524 CURVE SMOOTH",
"277 183 LINE",
"299 182 LINE",
"140 664 LINE SMOOTH",
"129 697 OFFCURVE",
"88 711 OFFCURVE",
"57 698 CURVE SMOOTH",
"24 684 OFFCURVE",
"8 650 OFFCURVE",
"19 618 CURVE SMOOTH",
"216 38 LINE SMOOTH",
"224 14 OFFCURVE",
"248 1 OFFCURVE",
"270 0 CURVE",
"293 0 OFFCURVE",
"317 13 OFFCURVE",
"329 39 CURVE SMOOTH",
"475 369 LINE",
"466 375 LINE",
"614 39 LINE SMOOTH",
"626 13 OFFCURVE",
"650 0 OFFCURVE",
"673 0 CURVE",
"695 1 OFFCURVE",
"719 14 OFFCURVE",
"727 38 CURVE SMOOTH",
"924 618 LINE SMOOTH",
"935 650 OFFCURVE",
"919 684 OFFCURVE",
"886 698 CURVE SMOOTH",
"855 711 OFFCURVE",
"814 697 OFFCURVE",
"803 664 CURVE SMOOTH"
);
}
);
width = 943;
}
);
leftKerningGroup = W;
note = W;
rightKerningGroup = W;
unicode = 0057;
},
{
glyphname = X;
lastChange = "2016-07-14 20:24:03 +0000";
layers = (
{
anchors = (
{
name = bottom;
position = "{295, 0}";
},
{
name = top;
position = "{295, 700}";
}
);
layerId = "254266E2-2911-423D-9D37-8CC6105656EE";
paths = (
{
closed = 1;
nodes = (
"315 345 LINE",
"554 674 LINE SMOOTH",
"562 684 OFFCURVE",
"559 694 OFFCURVE",
"550 700 CURVE",
"541 707 OFFCURVE",
"531 705 OFFCURVE",
"524 696 CURVE SMOOTH",
"293 379 LINE"
);
},
{
closed = 1;
nodes = (
"67 695 LINE SMOOTH",
"60 704 OFFCURVE",
"48 706 OFFCURVE",
"39 700 CURVE SMOOTH",
"29 693 OFFCURVE",
"27 681 OFFCURVE",
"34 671 CURVE SMOOTH",
"522 5 LINE SMOOTH",
"529 -4 OFFCURVE",
"540 -6 OFFCURVE",
"549 0 CURVE SMOOTH",
"559 7 OFFCURVE",
"562 19 OFFCURVE",
"554 29 CURVE SMOOTH"
);
},
{
closed = 1;
nodes = (
"275 353 LINE",
"36 27 LINE SMOOTH",
"29 17 OFFCURVE",
"29 7 OFFCURVE",
"39 0 CURVE SMOOTH",
"48 -6 OFFCURVE",
"59 -4 OFFCURVE",
"65 5 CURVE SMOOTH",
"295 319 LINE"
);
}
);
width = 589;
},
{
layerId = "8816CCA3-DDF9-4C51-BD56-64EE3675A105";
paths = (
{
closed = 1;
nodes = (
"135 677 LINE SMOOTH",
"113 705 OFFCURVE",
"79 711 OFFCURVE",
"51 691 CURVE SMOOTH",
"23 670 OFFCURVE",
"16 634 OFFCURVE",
"38 606 CURVE SMOOTH",
"478 24 LINE SMOOTH",
"499 -4 OFFCURVE",
"534 -10 OFFCURVE",
"562 10 CURVE SMOOTH",
"590 31 OFFCURVE",
"595 67 OFFCURVE",
"575 95 CURVE SMOOTH"
);
},
{
closed = 1;
nodes = (
"374 344 LINE",
"575 609 LINE SMOOTH",
"596 637 OFFCURVE",
"591 670 OFFCURVE",
"563 690 CURVE SMOOTH",
"535 711 OFFCURVE",
"504 700 OFFCURVE",
"483 672 CURVE SMOOTH",
"306 437 LINE"
);
},
{
closed = 1;
nodes = (
"241 363 OFFCURVE",
"241 364 CURVE",
"38 96 LINE SMOOTH",
"16 68 OFFCURVE",
"18 32 OFFCURVE",
"46 12 CURVE SMOOTH",
"74 -8 OFFCURVE",
"105 2 OFFCURVE",
"127 30 CURVE SMOOTH",
"307 267 LINE SMOOTH",
"307 267 OFFCURVE"
);
}
);
width = 612;
}
);
leftKerningGroup = X;
note = X;
rightKerningGroup = X;
unicode = 0058;
},
{
glyphname = Y;
lastChange = "2016-07-14 20:24:03 +0000";
layers = (
{
anchors = (
{
name = bottom;
position = "{274, 0}";
},
{
name = top;
position = "{274, 700}";
},
{
name = topleft;
position = "{20, 700}";
}
);
layerId = "254266E2-2911-423D-9D37-8CC6105656EE";
paths = (
{
closed = 1;
nodes = (
"509 707 OFFCURVE",
"497 705 OFFCURVE",
"490 695 CURVE",
"270 394 LINE",
"280 392 LINE",
"58 695 LINE",
"51 705 OFFCURVE",
"38 707 OFFCURVE",
"29 700 CURVE",
"18 693 OFFCURVE",
"17 682 OFFCURVE",
"24 672 CURVE",
"258 351 LINE",
"253 372 LINE",
"253 20 LINE",
"253 9 OFFCURVE",
"261 0 OFFCURVE",
"274 0 CURVE",
"286 0 OFFCURVE",
"295 9 OFFCURVE",
"295 20 CURVE",
"295 379 LINE",
"286 350 LINE",
"523 672 LINE",
"529 682 OFFCURVE",
"528 693 OFFCURVE",
"519 700 CURVE"
);
}
);
width = 547;
},
{
layerId = "8816CCA3-DDF9-4C51-BD56-64EE3675A105";
paths = (
{
closed = 1;
nodes = (
"300 419 LINE",
"328 415 LINE",
"136 675 LINE SMOOTH",
"113 706 OFFCURVE",
"82 711 OFFCURVE",
"50 692 CURVE SMOOTH",
"17 672 OFFCURVE",
"3 639 OFFCURVE",
"35 595 CURVE SMOOTH",
"246 308 LINE",
"238 340 LINE",
"238 61 LINE",
"238 26 OFFCURVE",
"265 0 OFFCURVE",
"303 0 CURVE",
"341 0 OFFCURVE",
"368 26 OFFCURVE",
"368 61 CURVE",
"368 348 LINE",
"350 279 LINE",
"570 604 LINE SMOOTH",
"589 633 OFFCURVE",
"584 671 OFFCURVE",
"556 691 CURVE",
"527 711 OFFCURVE",
"493 705 OFFCURVE",
"471 673 CURVE SMOOTH"
);
}
);
width = 596;
}
);
leftKerningGroup = Y;
note = Y;
rightKerningGroup = Y;
unicode = 0059;
},
{
glyphname = Z;
lastChange = "2016-07-14 20:24:03 +0000";
layers = (
{
anchors = (
{
name = bottom;
position = "{322, 0}";
},
{
name = top;
position = "{322, 700}";
}
);
layerId = "254266E2-2911-423D-9D37-8CC6105656EE";
paths = (
{
closed = 1;
nodes = (
"112 38 LINE",
"111 28 LINE",
"589 668 LINE",
"596 677 OFFCURVE",
"594 689 OFFCURVE",
"585 696 CURVE",
"581 700 OFFCURVE",
"575 701 OFFCURVE",
"570 700 CURVE",
"100 700 LINE",
"89 700 OFFCURVE",
"80 692 OFFCURVE",
"80 681 CURVE",
"80 671 OFFCURVE",
"89 662 OFFCURVE",
"100 662 CURVE",
"545 662 LINE",
"539 666 LINE",
"64 33 LINE",
"60 28 OFFCURVE",
"59 22 OFFCURVE",
"60 17 CURVE",
"62 7 OFFCURVE",
"70 0 OFFCURVE",
"80 0 CURVE",
"572 0 LINE",
"583 0 OFFCURVE",
"592 8 OFFCURVE",
"592 19 CURVE",
"592 28 OFFCURVE",
"583 38 OFFCURVE",
"572 38 CURVE"
);
}
);
width = 643;
},
{
layerId = "8816CCA3-DDF9-4C51-BD56-64EE3675A105";
paths = (
{
closed = 1;
nodes = (
"139 700 LINE SMOOTH",
"104 700 OFFCURVE",
"78 675 OFFCURVE",
"78 641 CURVE SMOOTH",
"78 606 OFFCURVE",
"104 580 OFFCURVE",
"139 580 CURVE SMOOTH",
"442 580 LINE",
"433 586 LINE",
"49 97 LINE SMOOTH",
"27 69 OFFCURVE",
"32 33 OFFCURVE",
"60 13 CURVE",
"68 8 LINE",
"77 3 OFFCURVE",
"87 0 OFFCURVE",
"99 0 CURVE SMOOTH",
"538 0 LINE SMOOTH",
"573 0 OFFCURVE",
"599 25 OFFCURVE",
"599 59 CURVE SMOOTH",
"599 94 OFFCURVE",
"573 120 OFFCURVE",
"538 120 CURVE SMOOTH",
"204 120 LINE",
"216 116 LINE",
"599 603 LINE SMOOTH",
"621 631 OFFCURVE",
"616 667 OFFCURVE",
"588 687 CURVE",
"579 694 OFFCURVE",
"569 698 OFFCURVE",
"559 699 CURVE",
"555 700 OFFCURVE",
"552 700 OFFCURVE",
"548 700 CURVE SMOOTH"
);
}
);
width = 648;
}
);
leftKerningGroup = Z;
note = Z;
rightKerningGroup = Z;
unicode = 005A;
},
{
glyphname = A.ss01;
lastChange = "2016-07-14 20:24:03 +0000";
layers = (
{
anchors = (
{
name = bottom;
position = "{409, 0}";
},
{
name = ogonek;
position = "{736, 10}";
},
{
name = top;
position = "{409, 700}";
}
);
layerId = "254266E2-2911-423D-9D37-8CC6105656EE";
paths = (
{
closed = 1;
nodes = (
"728 -10 LINE",
"728 710 LINE",
"688 710 LINE",
"688 532 LINE SMOOTH",
"688 527 OFFCURVE",
"685 527 OFFCURVE",
"682 531 CURVE",
"623 638 OFFCURVE",
"514 710 OFFCURVE",
"389 710 CURVE SMOOTH",
"202 710 OFFCURVE",
"50 549 OFFCURVE",
"50 350 CURVE SMOOTH",
"50 151 OFFCURVE",
"202 -10 OFFCURVE",
"389 -10 CURVE SMOOTH",
"514 -10 OFFCURVE",
"623 62 OFFCURVE",
"682 169 CURVE",
"685 173 OFFCURVE",
"688 173 OFFCURVE",
"688 168 CURVE SMOOTH",
"688 -10 LINE"
);
},
{
closed = 1;
nodes = (
"225 30 OFFCURVE",
"90 173 OFFCURVE",
"90 350 CURVE SMOOTH",
"90 527 OFFCURVE",
"225 670 OFFCURVE",
"389 670 CURVE SMOOTH",
"553 670 OFFCURVE",
"688 527 OFFCURVE",
"688 350 CURVE SMOOTH",
"688 173 OFFCURVE",
"553 30 OFFCURVE",
"389 30 CURVE SMOOTH"
);
}
);
width = 818;
},
{
layerId = "8816CCA3-DDF9-4C51-BD56-64EE3675A105";
paths = (
{
closed = 1;
nodes = (
"628 700 OFFCURVE",
"603 674 OFFCURVE",
"603 639 CURVE SMOOTH",
"603 628 LINE SMOOTH",
"603 624 OFFCURVE",
"600 623 OFFCURVE",
"597 626 CURVE",
"543 676 OFFCURVE",
"464 710 OFFCURVE",
"384 710 CURVE SMOOTH",
"197 710 OFFCURVE",
"45 549 OFFCURVE",
"45 350 CURVE SMOOTH",
"45 151 OFFCURVE",
"197 -10 OFFCURVE",
"384 -10 CURVE SMOOTH",
"464 -10 OFFCURVE",
"543 24 OFFCURVE",
"597 74 CURVE",
"600 77 OFFCURVE",
"603 76 OFFCURVE",
"603 72 CURVE SMOOTH",
"603 61 LINE SMOOTH",
"603 26 OFFCURVE",
"628 0 OFFCURVE",
"662 0 CURVE SMOOTH",
"697 0 OFFCURVE",
"723 26 OFFCURVE",
"723 61 CURVE SMOOTH",
"723 639 LINE SMOOTH",
"723 674 OFFCURVE",
"698 700 OFFCURVE",
"663 700 CURVE SMOOTH"
);
},
{
closed = 1;
nodes = (
"266 110 OFFCURVE",
"165 216 OFFCURVE",
"165 350 CURVE SMOOTH",
"165 484 OFFCURVE",
"266 590 OFFCURVE",
"394 590 CURVE SMOOTH",
"522 590 OFFCURVE",
"623 484 OFFCURVE",
"623 350 CURVE SMOOTH",
"623 216 OFFCURVE",
"522 110 OFFCURVE",
"394 110 CURVE SMOOTH"
);
}
);
width = 808;
}
);
leftMetricsKey = "+10";
note = A.ss01;
rightMetricsKey = "+10";
},
{
glyphname = E.ss01;
lastChange = "2016-07-14 20:24:03 +0000";
layers = (
{
anchors = (
{
name = bottom;
position = "{397, 0}";
},
{
name = ogonek;
position = "{714, 10}";
},
{
name = top;
position = "{397, 700}";
},
{
name = topleft;
position = "{20, 700}";
}
);
layerId = "254266E2-2911-423D-9D37-8CC6105656EE";
paths = (
{
closed = 1;
nodes = (
"743 367 LINE",
"739 556 OFFCURVE",
"581 710 OFFCURVE",
"397 710 CURVE SMOOTH",
"205 710 OFFCURVE",
"50 549 OFFCURVE",
"50 350 CURVE SMOOTH",
"50 151 OFFCURVE",
"205 -10 OFFCURVE",
"397 -10 CURVE SMOOTH",
"530 -10 OFFCURVE",
"625 38 OFFCURVE",
"701 130 CURVE SMOOTH",
"709 140 OFFCURVE",
"707 153 OFFCURVE",
"696 160 CURVE",
"687 165 OFFCURVE",
"677 163 OFFCURVE",
"670 155 CURVE SMOOTH",
"601 71 OFFCURVE",
"520 30 OFFCURVE",
"397 30 CURVE SMOOTH",
"235 30 OFFCURVE",
"102 161 OFFCURVE",
"91 328 CURVE",
"91 331 OFFCURVE",
"92 333 OFFCURVE",
"96 333 CURVE SMOOTH",
"723 333 LINE SMOOTH",
"734 333 OFFCURVE",
"743 340 OFFCURVE",
"743 350 CURVE SMOOTH"
);
},
{
closed = 1;
nodes = (
"96 373 LINE SMOOTH",
"93 373 OFFCURVE",
"91 375 OFFCURVE",
"91 378 CURVE",
"105 542 OFFCURVE",
"237 670 OFFCURVE",
"397 670 CURVE SMOOTH",
"556 670 OFFCURVE",
"696 537 OFFCURVE",
"704 373 CURVE"
);
}
);
width = 793;
},
{
layerId = "8816CCA3-DDF9-4C51-BD56-64EE3675A105";
paths = (
{
closed = 1;
nodes = (
"666 296 LINE SMOOTH",
"704 296 OFFCURVE",
"741 321 OFFCURVE",
"741 370 CURVE SMOOTH",
"741 582 OFFCURVE",
"569 710 OFFCURVE",
"393 710 CURVE SMOOTH",
"201 710 OFFCURVE",
"45 549 OFFCURVE",
"45 350 CURVE SMOOTH",
"45 151 OFFCURVE",
"204 -10 OFFCURVE",
"396 -10 CURVE SMOOTH",
"504 -10 OFFCURVE",
"585 12 OFFCURVE",
"662 79 CURVE SMOOTH",
"691 104 OFFCURVE",
"688 144 OFFCURVE",
"661 167 CURVE SMOOTH",
"637 188 OFFCURVE",
"605 188 OFFCURVE",
"579 168 CURVE SMOOTH",
"522 123 OFFCURVE",
"460 110 OFFCURVE",
"396 110 CURVE SMOOTH",
"289 110 OFFCURVE",
"194 189 OFFCURVE",
"171 296 CURVE"
);
},
{
closed = 1;
nodes = (
"174 416 LINE",
"201 517 OFFCURVE",
"290 590 OFFCURVE",
"393 590 CURVE SMOOTH",
"497 590 OFFCURVE",
"586 517 OFFCURVE",
"612 416 CURVE"
);
}
);
width = 796;
}
);
leftMetricsKey = "+10";
note = E.ss01;
rightMetricsKey = "+10";
},
{
glyphname = M.ss01;
lastChange = "2016-07-14 20:24:03 +0000";
layers = (
{
anchors = (
{
name = bottom;
position = "{618, 0}";
},
{
name = top;
position = "{618, 700}";
}
);
layerId = "254266E2-2911-423D-9D37-8CC6105656EE";
paths = (
{
closed = 1;
nodes = (
"130 680 LINE SMOOTH",
"130 691 OFFCURVE",
"122 700 OFFCURVE",
"110 700 CURVE SMOOTH",
"98 700 OFFCURVE",
"90 691 OFFCURVE",
"90 680 CURVE SMOOTH",
"90 20 LINE SMOOTH",
"90 9 OFFCURVE",
"98 0 OFFCURVE",
"110 0 CURVE SMOOTH",
"122 0 OFFCURVE",
"130 9 OFFCURVE",
"130 20 CURVE SMOOTH",
"130 402 LINE SMOOTH",
"130 545 OFFCURVE",
"244 660 OFFCURVE",
"397 660 CURVE SMOOTH",
"530 660 OFFCURVE",
"605 575 OFFCURVE",
"605 402 CURVE SMOOTH",
"605 20 LINE SMOOTH",
"605 9 OFFCURVE",
"613 0 OFFCURVE",
"625 0 CURVE SMOOTH",
"637 0 OFFCURVE",
"645 9 OFFCURVE",
"645 20 CURVE SMOOTH",
"645 402 LINE SMOOTH",
"645 545 OFFCURVE",
"759 660 OFFCURVE",
"912 660 CURVE SMOOTH",
"1045 660 OFFCURVE",
"1120 575 OFFCURVE",
"1120 402 CURVE SMOOTH",
"1120 20 LINE SMOOTH",
"1120 9 OFFCURVE",
"1128 0 OFFCURVE",
"1140 0 CURVE SMOOTH",
"1151 0 OFFCURVE",
"1160 9 OFFCURVE",
"1160 20 CURVE SMOOTH",
"1160 402 LINE SMOOTH",
"1160 594 OFFCURVE",
"1064 700 OFFCURVE",
"912 700 CURVE SMOOTH",
"808 700 OFFCURVE",
"687 644 OFFCURVE",
"633 532 CURVE",
"631 527 OFFCURVE",
"628 528 OFFCURVE",
"627 532 CURVE",
"592 641 OFFCURVE",
"510 700 OFFCURVE",
"397 700 CURVE SMOOTH",
"279 700 OFFCURVE",
"182 638 OFFCURVE",
"130 548 CURVE"
);
}
);
width = 1235;
},
{
layerId = "8816CCA3-DDF9-4C51-BD56-64EE3675A105";
paths = (
{
closed = 1;
nodes = (
"205 639 LINE SMOOTH",
"205 674 OFFCURVE",
"180 700 OFFCURVE",
"145 700 CURVE SMOOTH",
"110 700 OFFCURVE",
"85 674 OFFCURVE",
"85 639 CURVE SMOOTH",
"85 61 LINE SMOOTH",
"85 26 OFFCURVE",
"110 0 OFFCURVE",
"145 0 CURVE SMOOTH",
"180 0 OFFCURVE",
"205 26 OFFCURVE",
"205 61 CURVE SMOOTH",
"205 422 LINE SMOOTH",
"205 509 OFFCURVE",
"271 590 OFFCURVE",
"377 590 CURVE SMOOTH",
"474 590 OFFCURVE",
"495 509 OFFCURVE",
"495 422 CURVE SMOOTH",
"495 59 LINE SMOOTH",
"496 25 OFFCURVE",
"521 0 OFFCURVE",
"554 0 CURVE SMOOTH",
"590 0 OFFCURVE",
"615 26 OFFCURVE",
"615 61 CURVE SMOOTH",
"615 422 LINE SMOOTH",
"615 509 OFFCURVE",
"681 590 OFFCURVE",
"787 590 CURVE SMOOTH",
"884 590 OFFCURVE",
"905 509 OFFCURVE",
"905 422 CURVE SMOOTH",
"905 61 LINE SMOOTH",
"905 26 OFFCURVE",
"930 0 OFFCURVE",
"964 0 CURVE SMOOTH",
"999 0 OFFCURVE",
"1025 26 OFFCURVE",
"1025 61 CURVE SMOOTH",
"1025 422 LINE SMOOTH",
"1025 586 OFFCURVE",
"951 710 OFFCURVE",
"787 710 CURVE SMOOTH",
"724 710 OFFCURVE",
"642 675 OFFCURVE",
"581 601 CURVE",
"579 598 OFFCURVE",
"576 598 OFFCURVE",
"574 602 CURVE",
"537 668 OFFCURVE",
"472 710 OFFCURVE",
"377 710 CURVE SMOOTH",
"312 710 OFFCURVE",
"258 682 OFFCURVE",
"211 630 CURVE",
"208 627 OFFCURVE",
"205 628 OFFCURVE",
"205 632 CURVE SMOOTH"
);
}
);
width = 1100;
}
);
leftMetricsKey = "+10";
note = M.ss01;
rightMetricsKey = "+10";
},
{
glyphname = N.ss01;
lastChange = "2016-07-14 20:24:03 +0000";
layers = (
{
anchors = (
{
name = bottom;
position = "{383, 0}";
},
{
name = top;
position = "{383, 700}";
}
);
layerId = "254266E2-2911-423D-9D37-8CC6105656EE";
paths = (
{
closed = 1;
nodes = (
"122 0 OFFCURVE",
"130 9 OFFCURVE",
"130 20 CURVE SMOOTH",
"130 402 LINE SMOOTH",
"130 545 OFFCURVE",
"264 660 OFFCURVE",
"417 660 CURVE SMOOTH",
"570 660 OFFCURVE",
"645 575 OFFCURVE",
"645 402 CURVE SMOOTH",
"645 20 LINE SMOOTH",
"645 9 OFFCURVE",
"653 0 OFFCURVE",
"665 0 CURVE SMOOTH",
"676 0 OFFCURVE",
"685 9 OFFCURVE",
"685 20 CURVE SMOOTH",
"685 402 LINE SMOOTH",
"685 594 OFFCURVE",
"589 700 OFFCURVE",
"417 700 CURVE SMOOTH",
"299 700 OFFCURVE",
"182 638 OFFCURVE",
"130 548 CURVE",
"130 680 LINE SMOOTH",
"130 691 OFFCURVE",
"122 700 OFFCURVE",
"110 700 CURVE SMOOTH",
"98 700 OFFCURVE",
"90 691 OFFCURVE",
"90 680 CURVE SMOOTH",
"90 20 LINE SMOOTH",
"90 9 OFFCURVE",
"98 0 OFFCURVE",
"110 0 CURVE SMOOTH"
);
}
);
width = 765;
},
{
layerId = "8816CCA3-DDF9-4C51-BD56-64EE3675A105";
paths = (
{
closed = 1;
nodes = (
"205 422 LINE SMOOTH",
"205 509 OFFCURVE",
"276 590 OFFCURVE",
"382 590 CURVE SMOOTH",
"479 590 OFFCURVE",
"520 509 OFFCURVE",
"520 422 CURVE SMOOTH",
"520 61 LINE SMOOTH",
"520 26 OFFCURVE",
"545 0 OFFCURVE",
"579 0 CURVE SMOOTH",
"614 0 OFFCURVE",
"640 26 OFFCURVE",
"640 61 CURVE SMOOTH",
"640 422 LINE SMOOTH",
"640 586 OFFCURVE",
"546 710 OFFCURVE",
"382 710 CURVE SMOOTH",
"317 710 OFFCURVE",
"258 682 OFFCURVE",
"211 630 CURVE",
"208 627 OFFCURVE",
"205 628 OFFCURVE",
"205 632 CURVE SMOOTH",
"205 639 LINE SMOOTH",
"205 674 OFFCURVE",
"180 700 OFFCURVE",
"145 700 CURVE SMOOTH",
"110 700 OFFCURVE",
"85 674 OFFCURVE",
"85 639 CURVE SMOOTH",
"85 61 LINE SMOOTH",
"85 26 OFFCURVE",
"110 0 OFFCURVE",
"145 0 CURVE SMOOTH",
"180 0 OFFCURVE",
"205 26 OFFCURVE",
"205 61 CURVE SMOOTH"
);
}
);
width = 715;
}
);
leftMetricsKey = "+10";
note = N.ss01;
rightMetricsKey = "+10";
},
{
glyphname = Q.ss01;
lastChange = "2016-07-14 20:24:03 +0000";
layers = (
{
anchors = (
{
name = bottom;
position = "{379, 0}";
},
{
name = top;
position = "{379, 700}";
}
);
layerId = "254266E2-2911-423D-9D37-8CC6105656EE";
paths = (
{
closed = 1;
nodes = (
"708 553 OFFCURVE",
"561 710 OFFCURVE",
"379 710 CURVE SMOOTH",
"197 710 OFFCURVE",
"50 553 OFFCURVE",
"50 350 CURVE SMOOTH",
"50 156 OFFCURVE",
"184 4 OFFCURVE",
"354 -9 CURVE",
"357 -9 OFFCURVE",
"359 -11 OFFCURVE",
"359 -14 CURVE SMOOTH",
"359 -128 LINE SMOOTH",
"359 -139 OFFCURVE",
"367 -148 OFFCURVE",
"379 -148 CURVE SMOOTH",
"391 -148 OFFCURVE",
"399 -139 OFFCURVE",
"399 -128 CURVE SMOOTH",
"399 -14 LINE SMOOTH",
"399 -11 OFFCURVE",
"401 -9 OFFCURVE",
"404 -9 CURVE",
"574 4 OFFCURVE",
"708 156 OFFCURVE",
"708 350 CURVE SMOOTH"
);
},
{
closed = 1;
nodes = (
"220 30 OFFCURVE",
"90 169 OFFCURVE",
"90 350 CURVE SMOOTH",
"90 531 OFFCURVE",
"220 670 OFFCURVE",
"379 670 CURVE SMOOTH",
"538 670 OFFCURVE",
"668 531 OFFCURVE",
"668 350 CURVE SMOOTH",
"668 169 OFFCURVE",
"538 30 OFFCURVE",
"379 30 CURVE SMOOTH"
);
}
);
width = 758;
},
{
layerId = "8816CCA3-DDF9-4C51-BD56-64EE3675A105";
paths = (
{
closed = 1;
nodes = (
"704 543 OFFCURVE",
"556 700 OFFCURVE",
"374 700 CURVE SMOOTH",
"192 700 OFFCURVE",
"45 543 OFFCURVE",
"45 350 CURVE SMOOTH",
"45 180 OFFCURVE",
"159 39 OFFCURVE",
"310 7 CURVE",
"313 6 OFFCURVE",
"314 4 OFFCURVE",
"314 1 CURVE SMOOTH",
"314 -89 LINE SMOOTH",
"314 -124 OFFCURVE",
"339 -150 OFFCURVE",
"374 -150 CURVE SMOOTH",
"409 -150 OFFCURVE",
"434 -124 OFFCURVE",
"434 -89 CURVE SMOOTH",
"434 1 LINE SMOOTH",
"434 4 OFFCURVE",
"435 6 OFFCURVE",
"438 7 CURVE",
"590 39 OFFCURVE",
"704 180 OFFCURVE",
"704 350 CURVE SMOOTH"
);
},
{
closed = 1;
nodes = (
"261 120 OFFCURVE",
"165 221 OFFCURVE",
"165 350 CURVE SMOOTH",
"165 479 OFFCURVE",
"261 580 OFFCURVE",
"374 580 CURVE SMOOTH",
"487 580 OFFCURVE",
"584 478 OFFCURVE",
"584 350 CURVE SMOOTH",
"584 222 OFFCURVE",
"487 120 OFFCURVE",
"374 120 CURVE SMOOTH"
);
}
);
width = 749;
}
);
leftMetricsKey = "+10";
note = Q.ss01;
rightMetricsKey = "+10";
},
{
glyphname = R.ss01;
lastChange = "2016-07-14 20:24:03 +0000";
layers = (
{
anchors = (
{
name = bottom;
position = "{231, 0}";
},
{
name = top;
position = "{231, 700}";
}
);
layerId = "254266E2-2911-423D-9D37-8CC6105656EE";
paths = (
{
closed = 1;
nodes = (
"130 680 LINE SMOOTH",
"130 691 OFFCURVE",
"122 700 OFFCURVE",
"110 700 CURVE SMOOTH",
"99 700 OFFCURVE",
"90 691 OFFCURVE",
"90 680 CURVE SMOOTH",
"90 20 LINE SMOOTH",
"90 9 OFFCURVE",
"98 0 OFFCURVE",
"110 0 CURVE SMOOTH",
"121 0 OFFCURVE",
"130 9 OFFCURVE",
"130 20 CURVE SMOOTH",
"130 271 LINE SMOOTH",
"130 483 OFFCURVE",
"247 625 OFFCURVE",
"434 671 CURVE SMOOTH",
"446 674 OFFCURVE",
"453 682 OFFCURVE",
"451 694 CURVE SMOOTH",
"449 705 OFFCURVE",
"439 713 OFFCURVE",
"427 710 CURVE",
"292 683 OFFCURVE",
"190 595 OFFCURVE",
"136 480 CURVE",
"134 475 OFFCURVE",
"130 476 OFFCURVE",
"130 481 CURVE SMOOTH"
);
}
);
width = 461;
},
{
layerId = "8816CCA3-DDF9-4C51-BD56-64EE3675A105";
paths = (
{
closed = 1;
nodes = (
"205 639 LINE SMOOTH",
"205 674 OFFCURVE",
"180 700 OFFCURVE",
"146 700 CURVE SMOOTH",
"111 700 OFFCURVE",
"85 674 OFFCURVE",
"85 639 CURVE SMOOTH",
"85 61 LINE SMOOTH",
"85 26 OFFCURVE",
"110 0 OFFCURVE",
"144 0 CURVE SMOOTH",
"179 0 OFFCURVE",
"205 26 OFFCURVE",
"205 61 CURVE SMOOTH",
"205 282 LINE SMOOTH",
"205 462 OFFCURVE",
"296 551 OFFCURVE",
"422 581 CURVE SMOOTH",
"467 592 OFFCURVE",
"485 619 OFFCURVE",
"479 657 CURVE SMOOTH",
"473 695 OFFCURVE",
"437 719 OFFCURVE",
"389 706 CURVE SMOOTH",
"331 690 OFFCURVE",
"268 651 OFFCURVE",
"211 562 CURVE SMOOTH",
"209 559 OFFCURVE",
"205 560 OFFCURVE",
"205 564 CURVE SMOOTH"
);
}
);
width = 485;
}
);
leftMetricsKey = "+10";
note = R.ss01;
rightKerningGroup = R.ss01;
rightMetricsKey = "+10";
},
{
glyphname = U.ss01;
lastChange = "2016-07-14 20:24:03 +0000";
layers = (
{
anchors = (
{
name = bottom;
position = "{383, 0}";
},
{
name = ogonek;
position = "{688, 10}";
},
{
name = top;
position = "{383, 700}";
},
{
name = topright;
position = "{745, 700}";
}
);
layerId = "254266E2-2911-423D-9D37-8CC6105656EE";
paths = (
{
closed = 1;
nodes = (
"643 700 OFFCURVE",
"635 691 OFFCURVE",
"635 680 CURVE SMOOTH",
"635 298 LINE SMOOTH",
"635 155 OFFCURVE",
"501 40 OFFCURVE",
"348 40 CURVE SMOOTH",
"195 40 OFFCURVE",
"120 125 OFFCURVE",
"120 298 CURVE SMOOTH",
"120 680 LINE SMOOTH",
"120 691 OFFCURVE",
"112 700 OFFCURVE",
"100 700 CURVE SMOOTH",
"89 700 OFFCURVE",
"80 691 OFFCURVE",
"80 680 CURVE SMOOTH",
"80 298 LINE SMOOTH",
"80 106 OFFCURVE",
"176 0 OFFCURVE",
"348 0 CURVE SMOOTH",
"466 0 OFFCURVE",
"583 62 OFFCURVE",
"635 152 CURVE",
"635 20 LINE SMOOTH",
"635 9 OFFCURVE",
"643 0 OFFCURVE",
"655 0 CURVE SMOOTH",
"667 0 OFFCURVE",
"675 9 OFFCURVE",
"675 20 CURVE SMOOTH",
"675 680 LINE SMOOTH",
"675 691 OFFCURVE",
"667 700 OFFCURVE",
"655 700 CURVE SMOOTH"
);
}
);
width = 765;
},
{
layerId = "8816CCA3-DDF9-4C51-BD56-64EE3675A105";
paths = (
{
closed = 1;
nodes = (
"520 278 LINE SMOOTH",
"520 191 OFFCURVE",
"449 110 OFFCURVE",
"343 110 CURVE SMOOTH",
"246 110 OFFCURVE",
"205 191 OFFCURVE",
"205 278 CURVE SMOOTH",
"205 639 LINE SMOOTH",
"205 674 OFFCURVE",
"180 700 OFFCURVE",
"146 700 CURVE SMOOTH",
"111 700 OFFCURVE",
"85 674 OFFCURVE",
"85 639 CURVE SMOOTH",
"85 278 LINE SMOOTH",
"85 114 OFFCURVE",
"179 -10 OFFCURVE",
"343 -10 CURVE SMOOTH",
"408 -10 OFFCURVE",
"467 18 OFFCURVE",
"514 70 CURVE",
"517 73 OFFCURVE",
"520 72 OFFCURVE",
"520 68 CURVE SMOOTH",
"520 61 LINE SMOOTH",
"520 26 OFFCURVE",
"545 0 OFFCURVE",
"580 0 CURVE SMOOTH",
"615 0 OFFCURVE",
"640 26 OFFCURVE",
"640 61 CURVE SMOOTH",
"640 639 LINE SMOOTH",
"640 674 OFFCURVE",
"615 700 OFFCURVE",
"580 700 CURVE SMOOTH",
"545 700 OFFCURVE",
"520 674 OFFCURVE",
"520 639 CURVE SMOOTH"
);
}
);
width = 715;
}
);
leftMetricsKey = "+10";
note = U.ss01;
rightMetricsKey = "+10";
},
{
glyphname = W.ss01;
lastChange = "2016-07-14 20:24:03 +0000";
layers = (
{
anchors = (
{
name = bottom;
position = "{575, 0}";
},
{
name = top;
position = "{575, 700}";
}
);
layerId = "254266E2-2911-423D-9D37-8CC6105656EE";
paths = (
{
closed = 1;
nodes = (
"1070 700 LINE",
"1030 700 LINE",
"1030 278 LINE SMOOTH",
"1030 135 OFFCURVE",
"956 40 OFFCURVE",
"813 40 CURVE SMOOTH",
"670 40 OFFCURVE",
"595 135 OFFCURVE",
"595 278 CURVE SMOOTH",
"595 700 LINE",
"555 700 LINE",
"555 278 LINE SMOOTH",
"555 135 OFFCURVE",
"481 40 OFFCURVE",
"338 40 CURVE SMOOTH",
"195 40 OFFCURVE",
"120 135 OFFCURVE",
"120 278 CURVE SMOOTH",
"120 700 LINE",
"80 700 LINE",
"80 278 LINE SMOOTH",
"80 116 OFFCURVE",
"176 0 OFFCURVE",
"338 0 CURVE SMOOTH",
"453 0 OFFCURVE",
"534 59 OFFCURVE",
"572 151 CURVE",
"574 155 OFFCURVE",
"576 155 OFFCURVE",
"578 151 CURVE",
"616 59 OFFCURVE",
"698 0 OFFCURVE",
"813 0 CURVE SMOOTH",
"974 0 OFFCURVE",
"1070 116 OFFCURVE",
"1070 278 CURVE SMOOTH"
);
}
);
width = 1150;
},
{
layerId = "8816CCA3-DDF9-4C51-BD56-64EE3675A105";
paths = (
{
closed = 1;
nodes = (
"865 278 LINE SMOOTH",
"865 191 OFFCURVE",
"814 120 OFFCURVE",
"728 120 CURVE SMOOTH",
"641 120 OFFCURVE",
"590 191 OFFCURVE",
"590 278 CURVE SMOOTH",
"590 641 LINE",
"589 676 OFFCURVE",
"564 701 OFFCURVE",
"531 701 CURVE SMOOTH",
"495 701 OFFCURVE",
"470 675 OFFCURVE",
"470 640 CURVE SMOOTH",
"470 278 LINE SMOOTH",
"470 191 OFFCURVE",
"419 120 OFFCURVE",
"333 120 CURVE SMOOTH",
"246 120 OFFCURVE",
"195 191 OFFCURVE",
"195 278 CURVE SMOOTH",
"195 640 LINE SMOOTH",
"195 675 OFFCURVE",
"170 701 OFFCURVE",
"136 701 CURVE SMOOTH",
"101 701 OFFCURVE",
"75 675 OFFCURVE",
"75 640 CURVE SMOOTH",
"75 278 LINE SMOOTH",
"75 124 OFFCURVE",
"179 0 OFFCURVE",
"333 0 CURVE SMOOTH",
"413 0 OFFCURVE",
"490 44 OFFCURVE",
"527 100 CURVE SMOOTH",
"529 103 OFFCURVE",
"531 103 OFFCURVE",
"533 100 CURVE SMOOTH",
"571 44 OFFCURVE",
"647 0 OFFCURVE",
"728 0 CURVE SMOOTH",
"881 0 OFFCURVE",
"985 124 OFFCURVE",
"985 278 CURVE SMOOTH",
"985 640 LINE SMOOTH",
"985 675 OFFCURVE",
"960 701 OFFCURVE",
"925 701 CURVE SMOOTH",
"890 701 OFFCURVE",
"865 675 OFFCURVE",
"865 640 CURVE SMOOTH"
);
}
);
width = 1060;
}
);
leftMetricsKey = "+10";
note = W.ss01;
rightMetricsKey = "+10";
},
{
glyphname = a;
lastChange = "2016-07-14 20:24:46 +0000";
layers = (
{
anchors = (
{
name = bottom;
position = "{298, 0}";
},
{
name = ogonek;
position = "{535, 10}";
},
{
name = top;
position = "{298, 499}";
}
);
background = {
paths = (
{
closed = 1;
nodes = (
"455 515 OFFCURVE",
"447 506 OFFCURVE",
"447 495 CURVE SMOOTH",
"447 414 LINE SMOOTH",
"447 409 OFFCURVE",
"444 408 OFFCURVE",
"441 412 CURVE",
"395 480 OFFCURVE",
"320 525 OFFCURVE",
"235 525 CURVE SMOOTH",
"96 525 OFFCURVE",
"-17 406 OFFCURVE",
"-17 258 CURVE SMOOTH",
"-17 110 OFFCURVE",
"96 -10 OFFCURVE",
"235 -10 CURVE SMOOTH",
"320 -10 OFFCURVE",
"395 35 OFFCURVE",
"441 104 CURVE",
"444 108 OFFCURVE",
"447 107 OFFCURVE",
"447 102 CURVE SMOOTH",
"447 20 LINE SMOOTH",
"447 9 OFFCURVE",
"455 0 OFFCURVE",
"467 0 CURVE SMOOTH",
"478 0 OFFCURVE",
"487 9 OFFCURVE",
"487 20 CURVE SMOOTH",
"487 495 LINE SMOOTH",
"487 506 OFFCURVE",
"479 515 OFFCURVE",
"467 515 CURVE SMOOTH"
);
},
{
closed = 1;
nodes = (
"119 30 OFFCURVE",
"23 132 OFFCURVE",
"23 258 CURVE SMOOTH",
"23 384 OFFCURVE",
"119 485 OFFCURVE",
"235 485 CURVE SMOOTH",
"351 485 OFFCURVE",
"447 384 OFFCURVE",
"447 258 CURVE SMOOTH",
"447 132 OFFCURVE",
"351 30 OFFCURVE",
"235 30 CURVE SMOOTH"
);
}
);
};
layerId = "254266E2-2911-423D-9D37-8CC6105656EE";
paths = (
{
closed = 1;
nodes = (
"480 499 OFFCURVE",
"472 489 OFFCURVE",
"472 479 CURVE",
"472 334 LINE",
"488 309 LINE",
"488 427 OFFCURVE",
"395 515 OFFCURVE",
"280 515 CURVE",
"148 515 OFFCURVE",
"48 406 OFFCURVE",
"48 255 CURVE",
"48 104 OFFCURVE",
"146 -10 OFFCURVE",
"280 -10 CURVE",
"397 -10 OFFCURVE",
"488 89 OFFCURVE",
"488 175 CURVE",
"472 162 LINE",
"472 20 LINE",
"472 9 OFFCURVE",
"480 0 OFFCURVE",
"492 0 CURVE",
"503 0 OFFCURVE",
"512 9 OFFCURVE",
"512 20 CURVE",
"512 479 LINE",
"512 490 OFFCURVE",
"504 499 OFFCURVE",
"492 499 CURVE"
);
},
{
closed = 1;
nodes = (
"169 28 OFFCURVE",
"88 125 OFFCURVE",
"88 255 CURVE",
"88 385 OFFCURVE",
"171 477 OFFCURVE",
"282 477 CURVE",
"394 477 OFFCURVE",
"476 379 OFFCURVE",
"476 255 CURVE",
"476 125 OFFCURVE",
"394 28 OFFCURVE",
"282 28 CURVE"
);
}
);
width = 595;
},
{
layerId = "8816CCA3-DDF9-4C51-BD56-64EE3675A105";
paths = (
{
closed = 1;
nodes = (
"463 545 OFFCURVE",
"438 519 OFFCURVE",
"438 484 CURVE",
"438 411 LINE",
"474 424 LINE",
"474 462 OFFCURVE",
"391 545 OFFCURVE",
"277 545 CURVE",
"142 545 OFFCURVE",
"35 431 OFFCURVE",
"35 267 CURVE",
"35 104 OFFCURVE",
"142 -10 OFFCURVE",
"281 -10 CURVE",
"381 -10 OFFCURVE",
"460 67 OFFCURVE",
"460 101 CURVE",
"438 110 LINE",
"438 61 LINE",
"438 26 OFFCURVE",
"463 0 OFFCURVE",
"498 0 CURVE",
"533 0 OFFCURVE",
"558 26 OFFCURVE",
"558 61 CURVE",
"558 484 LINE",
"558 520 OFFCURVE",
"533 545 OFFCURVE",
"498 545 CURVE"
);
},
{
closed = 1;
nodes = (
"209 100 OFFCURVE",
"150 172 OFFCURVE",
"150 267 CURVE",
"150 362 OFFCURVE",
"209 435 OFFCURVE",
"296 435 CURVE",
"384 435 OFFCURVE",
"443 362 OFFCURVE",
"443 267 CURVE",
"443 172 OFFCURVE",
"384 100 OFFCURVE",
"296 100 CURVE"
);
}
);
width = 623;
}
);
leftKerningGroup = a;
leftMetricsKey = o;
note = a;
rightKerningGroup = a;
rightMetricsKey = n;
unicode = 0061;
},
{
glyphname = aacute;
lastChange = "2016-07-14 20:40:27 +0000";
layers = (
{
components = (
{
name = a;
},
{
name = acutecomb;
transform = "{1, 0, 0, 1, 184, 0}";
}
);
layerId = "254266E2-2911-423D-9D37-8CC6105656EE";
width = 595;
},
{
layerId = "8816CCA3-DDF9-4C51-BD56-64EE3675A105";
paths = (
{
closed = 1;
nodes = (
"250 660 LINE SMOOTH",
"228 626 OFFCURVE",
"236 600 OFFCURVE",
"269 600 CURVE SMOOTH",
"295 600 OFFCURVE",
"312 607 OFFCURVE",
"331 625 CURVE SMOOTH",
"381 672 LINE SMOOTH",
"409 698 OFFCURVE",
"404 725 OFFCURVE",
"369 741 CURVE",
"359 745 LINE",
"331 758 OFFCURVE",
"309 751 OFFCURVE",
"292 725 CURVE SMOOTH"
);
},
{
closed = 1;
nodes = (
"468 515 OFFCURVE",
"443 489 OFFCURVE",
"443 454 CURVE SMOOTH",
"443 450 OFFCURVE",
"440 448 OFFCURVE",
"438 452 CURVE SMOOTH",
"422 484 OFFCURVE",
"367 525 OFFCURVE",
"296 525 CURVE SMOOTH",
"147 525 OFFCURVE",
"40 415 OFFCURVE",
"40 257 CURVE SMOOTH",
"40 100 OFFCURVE",
"147 -10 OFFCURVE",
"296 -10 CURVE SMOOTH",
"367 -10 OFFCURVE",
"422 31 OFFCURVE",
"438 63 CURVE SMOOTH",
"440 67 OFFCURVE",
"443 65 OFFCURVE",
"443 61 CURVE SMOOTH",
"443 26 OFFCURVE",
"468 0 OFFCURVE",
"503 0 CURVE SMOOTH",
"538 0 OFFCURVE",
"563 26 OFFCURVE",
"563 61 CURVE SMOOTH",
"563 454 LINE SMOOTH",
"563 489 OFFCURVE",
"538 515 OFFCURVE",
"503 515 CURVE SMOOTH"
);
},
{
closed = 1;
nodes = (
"216 110 OFFCURVE",
"155 174 OFFCURVE",
"155 257 CURVE SMOOTH",
"155 341 OFFCURVE",
"216 405 OFFCURVE",
"306 405 CURVE SMOOTH",
"397 405 OFFCURVE",
"458 341 OFFCURVE",
"458 257 CURVE SMOOTH",
"458 174 OFFCURVE",
"397 110 OFFCURVE",
"306 110 CURVE SMOOTH"
);
}
);
width = 638;
}
);
leftMetricsKey = "+10";
note = aacute;
rightMetricsKey = "+10";
unicode = 00E1;
},
{
glyphname = abreve;
lastChange = "2016-07-16 20:27:50 +0000";
layers = (
{
components = (
{
name = a;
},
{
name = brevecomb;
transform = "{1, 0, 0, 1, 117, 43}";
}
);
layerId = "254266E2-2911-423D-9D37-8CC6105656EE";
width = 595;
},
{
layerId = "8816CCA3-DDF9-4C51-BD56-64EE3675A105";
paths = (
{
closed = 1;
nodes = (
"394 600 OFFCURVE",
"452 634 OFFCURVE",
"477 695 CURVE SMOOTH",
"490 727 OFFCURVE",
"473 748 OFFCURVE",
"447 748 CURVE SMOOTH",
"419 748 OFFCURVE",
"405 735 OFFCURVE",
"387 712 CURVE",
"372 695 OFFCURVE",
"351 685 OFFCURVE",
"318 685 CURVE SMOOTH",
"285 685 OFFCURVE",
"264 695 OFFCURVE",
"249 712 CURVE",
"231 735 OFFCURVE",
"217 748 OFFCURVE",
"189 748 CURVE SMOOTH",
"163 748 OFFCURVE",
"146 726 OFFCURVE",
"160 693 CURVE SMOOTH",
"184 633 OFFCURVE",
"243 600 OFFCURVE",
"318 600 CURVE SMOOTH"
);
},
{
closed = 1;
nodes = (
"468 515 OFFCURVE",
"443 489 OFFCURVE",
"443 454 CURVE SMOOTH",
"443 450 OFFCURVE",
"440 448 OFFCURVE",
"438 452 CURVE SMOOTH",
"422 484 OFFCURVE",
"367 525 OFFCURVE",
"296 525 CURVE SMOOTH",
"147 525 OFFCURVE",
"40 415 OFFCURVE",
"40 257 CURVE SMOOTH",
"40 100 OFFCURVE",
"147 -10 OFFCURVE",
"296 -10 CURVE SMOOTH",
"367 -10 OFFCURVE",
"422 31 OFFCURVE",
"438 63 CURVE SMOOTH",
"440 67 OFFCURVE",
"443 65 OFFCURVE",
"443 61 CURVE SMOOTH",
"443 26 OFFCURVE",
"468 0 OFFCURVE",
"503 0 CURVE SMOOTH",
"538 0 OFFCURVE",
"563 26 OFFCURVE",
"563 61 CURVE SMOOTH",
"563 454 LINE SMOOTH",
"563 489 OFFCURVE",
"538 515 OFFCURVE",
"503 515 CURVE SMOOTH"
);
},
{
closed = 1;
nodes = (
"216 110 OFFCURVE",
"155 174 OFFCURVE",
"155 257 CURVE SMOOTH",
"155 341 OFFCURVE",
"216 405 OFFCURVE",
"306 405 CURVE SMOOTH",
"397 405 OFFCURVE",
"458 341 OFFCURVE",
"458 257 CURVE SMOOTH",
"458 174 OFFCURVE",
"397 110 OFFCURVE",
"306 110 CURVE SMOOTH"
);
}
);
width = 638;
}
);
leftMetricsKey = "+10";
note = abreve;
rightMetricsKey = "+10";
unicode = 0103;
},
{
glyphname = acircumflex;
lastChange = "2016-07-16 20:27:38 +0000";
layers = (
{
components = (
{
name = a;
},
{
name = circumflexcomb;
transform = "{1, 0, 0, 1, 142, -11}";
}
);
layerId = "254266E2-2911-423D-9D37-8CC6105656EE";
width = 595;
},
{
layerId = "8816CCA3-DDF9-4C51-BD56-64EE3675A105";
paths = (
{
closed = 1;
nodes = (
"194 661 LINE SMOOTH",
"167 628 OFFCURVE",
"172 600 OFFCURVE",
"204 600 CURVE SMOOTH",
"229 600 OFFCURVE",
"247 607 OFFCURVE",
"266 623 CURVE SMOOTH",
"281 636 LINE SMOOTH",
"304 657 OFFCURVE",
"328 657 OFFCURVE",
"351 636 CURVE SMOOTH",
"366 623 LINE SMOOTH",
"385 607 OFFCURVE",
"403 600 OFFCURVE",
"428 600 CURVE SMOOTH",
"441 600 LINE SMOOTH",
"467 600 OFFCURVE",
"467 628 OFFCURVE",
"440 661 CURVE SMOOTH",
"396 717 LINE SMOOTH",
"380 737 OFFCURVE",
"362 746 OFFCURVE",
"335 746 CURVE SMOOTH",
"299 746 LINE SMOOTH",
"272 746 OFFCURVE",
"254 737 OFFCURVE",
"238 717 CURVE SMOOTH"
);
},
{
closed = 1;
nodes = (
"468 515 OFFCURVE",
"443 489 OFFCURVE",
"443 454 CURVE SMOOTH",
"443 450 OFFCURVE",
"440 448 OFFCURVE",
"438 452 CURVE SMOOTH",
"422 484 OFFCURVE",
"367 525 OFFCURVE",
"296 525 CURVE SMOOTH",
"147 525 OFFCURVE",
"40 415 OFFCURVE",
"40 257 CURVE SMOOTH",
"40 100 OFFCURVE",
"147 -10 OFFCURVE",
"296 -10 CURVE SMOOTH",
"367 -10 OFFCURVE",
"422 31 OFFCURVE",
"438 63 CURVE SMOOTH",
"440 67 OFFCURVE",
"443 65 OFFCURVE",
"443 61 CURVE SMOOTH",
"443 26 OFFCURVE",
"468 0 OFFCURVE",
"503 0 CURVE SMOOTH",
"538 0 OFFCURVE",
"563 26 OFFCURVE",
"563 61 CURVE SMOOTH",
"563 454 LINE SMOOTH",
"563 489 OFFCURVE",
"538 515 OFFCURVE",
"503 515 CURVE SMOOTH"
);
},
{
closed = 1;
nodes = (
"216 110 OFFCURVE",
"155 174 OFFCURVE",
"155 257 CURVE SMOOTH",
"155 341 OFFCURVE",
"216 405 OFFCURVE",
"306 405 CURVE SMOOTH",
"397 405 OFFCURVE",
"458 341 OFFCURVE",
"458 257 CURVE SMOOTH",
"458 174 OFFCURVE",
"397 110 OFFCURVE",
"306 110 CURVE SMOOTH"
);
}
);
width = 638;
}
);
leftMetricsKey = "+10";
note = acircumflex;
rightMetricsKey = "+10";
unicode = 00E2;
},
{
glyphname = adieresis;
lastChange = "2016-07-18 22:11:49 +0000";
layers = (
{
components = (
{
name = a;
},
{
name = dieresiscomb;
transform = "{1, 0, 0, 1, 141, -1}";
}
);
layerId = "254266E2-2911-423D-9D37-8CC6105656EE";
width = 595;
},
{
layerId = "8816CCA3-DDF9-4C51-BD56-64EE3675A105";
paths = (
{
closed = 1;
nodes = (
"157 650 LINE SMOOTH",
"157 617 OFFCURVE",
"175 600 OFFCURVE",
"207 600 CURVE SMOOTH",
"230 600 LINE SMOOTH",
"263 600 OFFCURVE",
"280 617 OFFCURVE",
"280 650 CURVE SMOOTH",
"280 668 LINE SMOOTH",
"280 701 OFFCURVE",
"262 718 OFFCURVE",
"230 718 CURVE SMOOTH",
"207 718 LINE SMOOTH",
"175 718 OFFCURVE",
"157 700 OFFCURVE",
"157 668 CURVE SMOOTH"
);
},
{
closed = 1;
nodes = (
"356 650 LINE SMOOTH",
"356 617 OFFCURVE",
"374 600 OFFCURVE",
"406 600 CURVE SMOOTH",
"429 600 LINE SMOOTH",
"462 600 OFFCURVE",
"479 617 OFFCURVE",
"479 650 CURVE SMOOTH",
"479 668 LINE SMOOTH",
"479 701 OFFCURVE",
"461 718 OFFCURVE",
"429 718 CURVE SMOOTH",
"406 718 LINE SMOOTH",
"374 718 OFFCURVE",
"356 700 OFFCURVE",
"356 668 CURVE SMOOTH"
);
},
{
closed = 1;
nodes = (
"468 515 OFFCURVE",
"443 489 OFFCURVE",
"443 454 CURVE SMOOTH",
"443 450 OFFCURVE",
"440 448 OFFCURVE",
"438 452 CURVE SMOOTH",
"422 484 OFFCURVE",
"367 525 OFFCURVE",
"296 525 CURVE SMOOTH",
"147 525 OFFCURVE",
"40 415 OFFCURVE",
"40 257 CURVE SMOOTH",
"40 100 OFFCURVE",
"147 -10 OFFCURVE",
"296 -10 CURVE SMOOTH",
"367 -10 OFFCURVE",
"422 31 OFFCURVE",
"438 63 CURVE SMOOTH",
"440 67 OFFCURVE",
"443 65 OFFCURVE",
"443 61 CURVE SMOOTH",
"443 26 OFFCURVE",
"468 0 OFFCURVE",
"503 0 CURVE SMOOTH",
"538 0 OFFCURVE",
"563 26 OFFCURVE",
"563 61 CURVE SMOOTH",
"563 454 LINE SMOOTH",
"563 489 OFFCURVE",
"538 515 OFFCURVE",
"503 515 CURVE SMOOTH"
);
},
{
closed = 1;
nodes = (
"216 110 OFFCURVE",
"155 174 OFFCURVE",
"155 257 CURVE SMOOTH",
"155 341 OFFCURVE",
"216 405 OFFCURVE",
"306 405 CURVE SMOOTH",
"397 405 OFFCURVE",
"458 341 OFFCURVE",
"458 257 CURVE SMOOTH",
"458 174 OFFCURVE",
"397 110 OFFCURVE",
"306 110 CURVE SMOOTH"
);
}
);
width = 638;
}
);
leftMetricsKey = "+10";
note = adieresis;
rightMetricsKey = "+10";
unicode = 00E4;
},
{
glyphname = agrave;
lastChange = "2016-07-18 22:11:49 +0000";
layers = (
{
components = (
{
name = a;
},
{
name = gravecomb;
transform = "{1, 0, 0, 1, 185, 0}";
}
);
layerId = "254266E2-2911-423D-9D37-8CC6105656EE";
width = 595;
},
{
layerId = "8816CCA3-DDF9-4C51-BD56-64EE3675A105";
paths = (
{
closed = 1;
nodes = (
"258 625 LINE SMOOTH",
"277 607 OFFCURVE",
"290 600 OFFCURVE",
"306 600 CURVE SMOOTH",
"347 600 OFFCURVE",
"361 626 OFFCURVE",
"339 660 CURVE SMOOTH",
"297 725 LINE SMOOTH",
"280 751 OFFCURVE",
"258 758 OFFCURVE",
"230 745 CURVE",
"220 741 LINE",
"185 725 OFFCURVE",
"180 698 OFFCURVE",
"208 672 CURVE SMOOTH"
);
},
{
closed = 1;
nodes = (
"468 515 OFFCURVE",
"443 489 OFFCURVE",
"443 454 CURVE SMOOTH",
"443 450 OFFCURVE",
"440 448 OFFCURVE",
"438 452 CURVE SMOOTH",
"422 484 OFFCURVE",
"367 525 OFFCURVE",
"296 525 CURVE SMOOTH",
"147 525 OFFCURVE",
"40 415 OFFCURVE",
"40 257 CURVE SMOOTH",
"40 100 OFFCURVE",
"147 -10 OFFCURVE",
"296 -10 CURVE SMOOTH",
"367 -10 OFFCURVE",
"422 31 OFFCURVE",
"438 63 CURVE SMOOTH",
"440 67 OFFCURVE",
"443 65 OFFCURVE",
"443 61 CURVE SMOOTH",
"443 26 OFFCURVE",
"468 0 OFFCURVE",
"503 0 CURVE SMOOTH",
"538 0 OFFCURVE",
"563 26 OFFCURVE",
"563 61 CURVE SMOOTH",
"563 454 LINE SMOOTH",
"563 489 OFFCURVE",
"538 515 OFFCURVE",
"503 515 CURVE SMOOTH"
);
},
{
closed = 1;
nodes = (
"216 110 OFFCURVE",
"155 174 OFFCURVE",
"155 257 CURVE SMOOTH",
"155 341 OFFCURVE",
"216 405 OFFCURVE",
"306 405 CURVE SMOOTH",
"397 405 OFFCURVE",
"458 341 OFFCURVE",
"458 257 CURVE SMOOTH",
"458 174 OFFCURVE",
"397 110 OFFCURVE",
"306 110 CURVE SMOOTH"
);
}
);
width = 638;
}
);
leftMetricsKey = "+10";
note = agrave;
rightMetricsKey = "+10";
unicode = 00E0;
},
{
glyphname = amacron;
lastChange = "2016-07-18 22:11:49 +0000";
layers = (
{
components = (
{
name = a;
},
{
name = macroncomb;
transform = "{1, 0, 0, 1, 109, 39}";
}
);
layerId = "254266E2-2911-423D-9D37-8CC6105656EE";
width = 595;
},
{
layerId = "8816CCA3-DDF9-4C51-BD56-64EE3675A105";
paths = (
{
closed = 1;
nodes = (
"147 616 OFFCURVE",
"165 600 OFFCURVE",
"197 600 CURVE SMOOTH",
"439 600 LINE SMOOTH",
"472 600 OFFCURVE",
"489 616 OFFCURVE",
"489 645 CURVE SMOOTH",
"489 673 OFFCURVE",
"471 689 OFFCURVE",
"439 689 CURVE SMOOTH",
"197 689 LINE SMOOTH",
"165 689 OFFCURVE",
"147 673 OFFCURVE",
"147 645 CURVE SMOOTH"
);
},
{
closed = 1;
nodes = (
"468 515 OFFCURVE",
"443 489 OFFCURVE",
"443 454 CURVE SMOOTH",
"443 450 OFFCURVE",
"440 448 OFFCURVE",
"438 452 CURVE SMOOTH",
"422 484 OFFCURVE",
"367 525 OFFCURVE",
"296 525 CURVE SMOOTH",
"147 525 OFFCURVE",
"40 415 OFFCURVE",
"40 257 CURVE SMOOTH",
"40 100 OFFCURVE",
"147 -10 OFFCURVE",
"296 -10 CURVE SMOOTH",
"367 -10 OFFCURVE",
"422 31 OFFCURVE",
"438 63 CURVE SMOOTH",
"440 67 OFFCURVE",
"443 65 OFFCURVE",
"443 61 CURVE SMOOTH",
"443 26 OFFCURVE",
"468 0 OFFCURVE",
"503 0 CURVE SMOOTH",
"538 0 OFFCURVE",
"563 26 OFFCURVE",
"563 61 CURVE SMOOTH",
"563 454 LINE SMOOTH",
"563 489 OFFCURVE",
"538 515 OFFCURVE",
"503 515 CURVE SMOOTH"
);
},
{
closed = 1;
nodes = (
"216 110 OFFCURVE",
"155 174 OFFCURVE",
"155 257 CURVE SMOOTH",
"155 341 OFFCURVE",
"216 405 OFFCURVE",
"306 405 CURVE SMOOTH",
"397 405 OFFCURVE",
"458 341 OFFCURVE",
"458 257 CURVE SMOOTH",
"458 174 OFFCURVE",
"397 110 OFFCURVE",
"306 110 CURVE SMOOTH"
);
}
);
width = 638;
}
);
leftMetricsKey = "+10";
note = amacron;
rightMetricsKey = "+10";
unicode = 0101;
},
{
glyphname = aogonek;
lastChange = "2016-07-18 22:58:30 +0000";
layers = (
{
anchors = (
{
name = _ogonek;
position = "{567, 10}";
},
{
name = bottom;
position = "{298, 0}";
},
{
name = ogonek;
position = "{535, 10}";
},
{
name = top;
position = "{298, 499}";
}
);
layerId = "254266E2-2911-423D-9D37-8CC6105656EE";
paths = (
{
closed = 1;
nodes = (
"169 28 OFFCURVE",
"88 125 OFFCURVE",
"88 255 CURVE",
"88 385 OFFCURVE",
"171 477 OFFCURVE",
"282 477 CURVE",
"394 477 OFFCURVE",
"476 379 OFFCURVE",
"476 255 CURVE",
"476 125 OFFCURVE",
"394 28 OFFCURVE",
"282 28 CURVE"
);
},
{
closed = 1;
nodes = (
"474 17 LINE",
"432 3 OFFCURVE",
"388 -31 OFFCURVE",
"388 -93 CURVE",
"388 -149 OFFCURVE",
"432 -185 OFFCURVE",
"476 -185 CURVE",
"517 -185 OFFCURVE",
"548 -163 OFFCURVE",
"548 -136 CURVE",
"548 -129 OFFCURVE",
"543 -122 OFFCURVE",
"534 -122 CURVE",
"517 -122 OFFCURVE",
"519 -148 OFFCURVE",
"481 -148 CURVE",
"453 -148 OFFCURVE",
"426 -125 OFFCURVE",
"426 -85 CURVE",
"426 -41 OFFCURVE",
"472 -1 OFFCURVE",
"512 1 CURVE",
"512 479 LINE",
"512 490 OFFCURVE",
"504 499 OFFCURVE",
"492 499 CURVE",
"480 499 OFFCURVE",
"472 489 OFFCURVE",
"472 479 CURVE",
"472 334 LINE",
"488 309 LINE",
"488 427 OFFCURVE",
"395 515 OFFCURVE",
"280 515 CURVE",
"148 515 OFFCURVE",
"48 406 OFFCURVE",
"48 255 CURVE",
"48 104 OFFCURVE",
"146 -10 OFFCURVE",
"280 -10 CURVE",
"397 -10 OFFCURVE",
"488 89 OFFCURVE",
"488 175 CURVE",
"472 162 LINE",
"472 9 LINE"
);
}
);
width = 593;
},
{
layerId = "8816CCA3-DDF9-4C51-BD56-64EE3675A105";
paths = (
{
closed = 1;
nodes = (
"564 -130 OFFCURVE",
"547 -126 OFFCURVE",
"529 -134 CURVE SMOOTH",
"493 -150 OFFCURVE",
"459 -126 OFFCURVE",
"453 -96 CURVE SMOOTH",
"447 -67 OFFCURVE",
"453 -34 OFFCURVE",
"506 0 CURVE",
"540 2 OFFCURVE",
"563 27 OFFCURVE",
"563 61 CURVE SMOOTH",
"563 454 LINE SMOOTH",
"563 489 OFFCURVE",
"538 515 OFFCURVE",
"503 515 CURVE SMOOTH",
"468 515 OFFCURVE",
"443 489 OFFCURVE",
"443 454 CURVE SMOOTH",
"443 450 OFFCURVE",
"440 448 OFFCURVE",
"438 452 CURVE SMOOTH",
"422 484 OFFCURVE",
"367 525 OFFCURVE",
"296 525 CURVE SMOOTH",
"147 525 OFFCURVE",
"40 415 OFFCURVE",
"40 257 CURVE SMOOTH",
"40 100 OFFCURVE",
"147 -10 OFFCURVE",
"296 -10 CURVE SMOOTH",
"367 -10 OFFCURVE",
"422 31 OFFCURVE",
"438 63 CURVE SMOOTH",
"440 67 OFFCURVE",
"443 65 OFFCURVE",
"443 61 CURVE SMOOTH",
"443 53 OFFCURVE",
"444 45 OFFCURVE",
"447 38 CURVE",
"405 14 OFFCURVE",
"359 -27 OFFCURVE",
"359 -95 CURVE SMOOTH",
"359 -189 OFFCURVE",
"461 -232 OFFCURVE",
"554 -192 CURVE SMOOTH",
"575 -183 OFFCURVE",
"580 -164 OFFCURVE",
"572 -147 CURVE SMOOTH"
);
},
{
closed = 1;
nodes = (
"216 110 OFFCURVE",
"155 174 OFFCURVE",
"155 257 CURVE SMOOTH",
"155 341 OFFCURVE",
"216 405 OFFCURVE",
"306 405 CURVE SMOOTH",
"397 405 OFFCURVE",
"458 341 OFFCURVE",
"458 257 CURVE SMOOTH",
"458 174 OFFCURVE",
"397 110 OFFCURVE",
"306 110 CURVE SMOOTH"
);
}
);
width = 638;
}
);
leftMetricsKey = a;
note = aogonek;
unicode = 0105;
},
{
glyphname = aring;
lastChange = "2016-07-14 20:40:27 +0000";
layers = (
{
components = (
{
name = a;
},
{
name = ringcomb;
transform = "{1, 0, 0, 1, 150, 0}";
}
);
layerId = "254266E2-2911-423D-9D37-8CC6105656EE";
width = 595;
},
{
layerId = "8816CCA3-DDF9-4C51-BD56-64EE3675A105";
paths = (
{
closed = 1;
nodes = (
"378 600 OFFCURVE",
"432 650 OFFCURVE",
"432 709 CURVE SMOOTH",
"432 711 LINE SMOOTH",
"432 770 OFFCURVE",
"378 820 OFFCURVE",
"318 820 CURVE SMOOTH",
"258 820 OFFCURVE",
"204 770 OFFCURVE",
"204 711 CURVE SMOOTH",
"204 709 LINE SMOOTH",
"204 650 OFFCURVE",
"258 600 OFFCURVE",
"318 600 CURVE SMOOTH"
);
},
{
closed = 1;
nodes = (
"293 670 OFFCURVE",
"274 686 OFFCURVE",
"274 709 CURVE SMOOTH",
"274 711 LINE SMOOTH",
"274 734 OFFCURVE",
"293 750 OFFCURVE",
"318 750 CURVE SMOOTH",
"343 750 OFFCURVE",
"362 734 OFFCURVE",
"362 711 CURVE SMOOTH",
"362 709 LINE SMOOTH",
"362 686 OFFCURVE",
"343 670 OFFCURVE",
"318 670 CURVE SMOOTH"
);
},
{
closed = 1;
nodes = (
"468 515 OFFCURVE",
"443 489 OFFCURVE",
"443 454 CURVE SMOOTH",
"443 450 OFFCURVE",
"440 448 OFFCURVE",
"438 452 CURVE SMOOTH",
"422 484 OFFCURVE",
"367 525 OFFCURVE",
"296 525 CURVE SMOOTH",
"147 525 OFFCURVE",
"40 415 OFFCURVE",
"40 257 CURVE SMOOTH",
"40 100 OFFCURVE",
"147 -10 OFFCURVE",
"296 -10 CURVE SMOOTH",
"367 -10 OFFCURVE",
"422 31 OFFCURVE",
"438 63 CURVE SMOOTH",
"440 67 OFFCURVE",
"443 65 OFFCURVE",
"443 61 CURVE SMOOTH",
"443 26 OFFCURVE",
"468 0 OFFCURVE",
"503 0 CURVE SMOOTH",
"538 0 OFFCURVE",
"563 26 OFFCURVE",
"563 61 CURVE SMOOTH",
"563 454 LINE SMOOTH",
"563 489 OFFCURVE",
"538 515 OFFCURVE",
"503 515 CURVE SMOOTH"
);
},
{
closed = 1;
nodes = (
"216 110 OFFCURVE",
"155 174 OFFCURVE",
"155 257 CURVE SMOOTH",
"155 341 OFFCURVE",
"216 405 OFFCURVE",
"306 405 CURVE SMOOTH",
"397 405 OFFCURVE",
"458 341 OFFCURVE",
"458 257 CURVE SMOOTH",
"458 174 OFFCURVE",
"397 110 OFFCURVE",
"306 110 CURVE SMOOTH"
);
}
);
width = 638;
}
);
leftMetricsKey = "+10";
note = aring;
rightMetricsKey = "+10";
unicode = 00E5;
},
{
glyphname = atilde;
lastChange = "2016-07-18 22:11:49 +0000";
layers = (
{
components = (
{
name = a;
},
{
name = tildecomb;
transform = "{1, 0, 0, 1, 104, -10}";
}
);
layerId = "254266E2-2911-423D-9D37-8CC6105656EE";
width = 595;
},
{
layerId = "8816CCA3-DDF9-4C51-BD56-64EE3675A105";
paths = (
{
closed = 1;
nodes = (
"185 593 OFFCURVE",
"197 606 OFFCURVE",
"219 628 CURVE SMOOTH",
"227 636 OFFCURVE",
"237 640 OFFCURVE",
"251 640 CURVE SMOOTH",
"287 640 OFFCURVE",
"340 600 OFFCURVE",
"395 600 CURVE SMOOTH",
"442 600 OFFCURVE",
"470 626 OFFCURVE",
"491 676 CURVE SMOOTH",
"504 707 OFFCURVE",
"495 728 OFFCURVE",
"474 735 CURVE SMOOTH",
"451 742 OFFCURVE",
"439 729 OFFCURVE",
"417 706 CURVE",
"409 699 OFFCURVE",
"399 695 OFFCURVE",
"385 695 CURVE SMOOTH",
"349 695 OFFCURVE",
"296 735 OFFCURVE",
"241 735 CURVE SMOOTH",
"194 735 OFFCURVE",
"166 709 OFFCURVE",
"145 659 CURVE SMOOTH",
"132 628 OFFCURVE",
"141 606 OFFCURVE",
"163 600 CURVE"
);
},
{
closed = 1;
nodes = (
"468 515 OFFCURVE",
"443 489 OFFCURVE",
"443 454 CURVE SMOOTH",
"443 450 OFFCURVE",
"440 448 OFFCURVE",
"438 452 CURVE SMOOTH",
"422 484 OFFCURVE",
"367 525 OFFCURVE",
"296 525 CURVE SMOOTH",
"147 525 OFFCURVE",
"40 415 OFFCURVE",
"40 257 CURVE SMOOTH",
"40 100 OFFCURVE",
"147 -10 OFFCURVE",
"296 -10 CURVE SMOOTH",
"367 -10 OFFCURVE",
"422 31 OFFCURVE",
"438 63 CURVE SMOOTH",
"440 67 OFFCURVE",
"443 65 OFFCURVE",
"443 61 CURVE SMOOTH",
"443 26 OFFCURVE",
"468 0 OFFCURVE",
"503 0 CURVE SMOOTH",
"538 0 OFFCURVE",
"563 26 OFFCURVE",
"563 61 CURVE SMOOTH",
"563 454 LINE SMOOTH",
"563 489 OFFCURVE",
"538 515 OFFCURVE",
"503 515 CURVE SMOOTH"
);
},
{
closed = 1;
nodes = (
"216 110 OFFCURVE",
"155 174 OFFCURVE",
"155 257 CURVE SMOOTH",
"155 341 OFFCURVE",
"216 405 OFFCURVE",
"306 405 CURVE SMOOTH",
"397 405 OFFCURVE",
"458 341 OFFCURVE",
"458 257 CURVE SMOOTH",
"458 174 OFFCURVE",
"397 110 OFFCURVE",
"306 110 CURVE SMOOTH"
);
}
);
width = 638;
}
);
leftMetricsKey = "+10";
note = atilde;
rightMetricsKey = "+10";
unicode = 00E3;
},
{
glyphname = ae;
lastChange = "2016-07-18 23:17:33 +0000";
layers = (
{
anchors = (
{
name = bottom;
position = "{413, 0}";
},
{
name = ogonek;
position = "{845, 10}";
},
{
name = top;
position = "{464, 515}";
}
);
background = {
paths = (
{
closed = 1;
nodes = (
"430 480 LINE SMOOTH",
"430 491 OFFCURVE",
"422 500 OFFCURVE",
"410 500 CURVE SMOOTH",
"398 500 OFFCURVE",
"390 491 OFFCURVE",
"390 480 CURVE SMOOTH",
"390 400 LINE SMOOTH",
"390 395 OFFCURVE",
"387 394 OFFCURVE",
"384 398 CURVE",
"341 460 OFFCURVE",
"272 500 OFFCURVE",
"194 500 CURVE SMOOTH",
"64 500 OFFCURVE",
"-41 388 OFFCURVE",
"-41 250 CURVE SMOOTH",
"-41 112 OFFCURVE",
"64 0 OFFCURVE",
"194 0 CURVE SMOOTH",
"272 0 OFFCURVE",
"341 40 OFFCURVE",
"384 102 CURVE",
"387 106 OFFCURVE",
"390 105 OFFCURVE",
"390 100 CURVE SMOOTH",
"390 20 LINE SMOOTH",
"390 9 OFFCURVE",
"398 0 OFFCURVE",
"410 0 CURVE SMOOTH",
"421 0 OFFCURVE",
"430 9 OFFCURVE",
"430 20 CURVE SMOOTH",
"430 102 LINE SMOOTH",
"430 107 OFFCURVE",
"433 108 OFFCURVE",
"436 104 CURVE SMOOTH",
"481 41 OFFCURVE",
"554 0 OFFCURVE",
"641 0 CURVE SMOOTH",
"720 0 OFFCURVE",
"797 38 OFFCURVE",
"843 98 CURVE",
"850 108 OFFCURVE",
"847 121 OFFCURVE",
"837 127 CURVE",
"836 128 LINE",
"826 134 OFFCURVE",
"815 131 OFFCURVE",
"808 122 CURVE",
"773 72 OFFCURVE",
"709 40 OFFCURVE",
"641 40 CURVE SMOOTH",
"530 40 OFFCURVE",
"446 118 OFFCURVE",
"432 221 CURVE",
"431 224 OFFCURVE",
"433 226 OFFCURVE",
"436 226 CURVE SMOOTH",
"852 226 LINE SMOOTH",
"863 226 OFFCURVE",
"872 235 OFFCURVE",
"872 247 CURVE",
"867 404 OFFCURVE",
"762 500 OFFCURVE",
"631 500 CURVE SMOOTH",
"551 500 OFFCURVE",
"480 459 OFFCURVE",
"436 397 CURVE SMOOTH",
"433 393 OFFCURVE",
"430 394 OFFCURVE",
"430 399 CURVE SMOOTH"
);
},
{
closed = 1;
nodes = (
"88 40 OFFCURVE",
"-1 134 OFFCURVE",
"-1 250 CURVE SMOOTH",
"-1 366 OFFCURVE",
"88 460 OFFCURVE",
"194 460 CURVE SMOOTH",
"301 460 OFFCURVE",
"390 366 OFFCURVE",
"390 250 CURVE SMOOTH",
"390 134 OFFCURVE",
"301 40 OFFCURVE",
"194 40 CURVE SMOOTH"
);
},
{
closed = 1;
nodes = (
"435 266 LINE SMOOTH",
"432 266 OFFCURVE",
"430 268 OFFCURVE",
"430 271 CURVE",
"441 378 OFFCURVE",
"528 460 OFFCURVE",
"631 460 CURVE SMOOTH",
"732 460 OFFCURVE",
"819 380 OFFCURVE",
"831 271 CURVE",
"831 268 OFFCURVE",
"829 266 OFFCURVE",
"826 266 CURVE SMOOTH"
);
}
);
};
layerId = "254266E2-2911-423D-9D37-8CC6105656EE";
paths = (
{
closed = 1;
nodes = (
"433 252 LINE",
"433 378 LINE",
"433 475 OFFCURVE",
"352 515 OFFCURVE",
"268 515 CURVE",
"189 515 OFFCURVE",
"102 469 OFFCURVE",
"61 415 CURVE",
"58 411 OFFCURVE",
"57 407 OFFCURVE",
"57 403 CURVE",
"57 394 OFFCURVE",
"64 385 OFFCURVE",
"74 385 CURVE",
"81 385 OFFCURVE",
"86 388 OFFCURVE",
"91 394 CURVE",
"121 439 OFFCURVE",
"201 477 OFFCURVE",
"268 477 CURVE",
"326 477 OFFCURVE",
"397 448 OFFCURVE",
"397 360 CURVE",
"397 251 LINE",
"394 249 LINE"
);
},
{
closed = 1;
nodes = (
"386 106 OFFCURVE",
"297 28 OFFCURVE",
"209 28 CURVE",
"158 28 OFFCURVE",
"95 63 OFFCURVE",
"95 140 CURVE",
"95 218 OFFCURVE",
"179 266 OFFCURVE",
"329 266 CURVE",
"826 266 LINE",
"837 266 OFFCURVE",
"846 276 OFFCURVE",
"846 287 CURVE",
"841 443 OFFCURVE",
"733 515 OFFCURVE",
"620 515 CURVE",
"504 515 OFFCURVE",
"394 417 OFFCURVE",
"394 250 CURVE",
"394 92 OFFCURVE",
"500 -10 OFFCURVE",
"650 -10 CURVE",
"729 -10 OFFCURVE",
"796 36 OFFCURVE",
"837 90 CURVE",
"840 94 OFFCURVE",
"841 98 OFFCURVE",
"841 102 CURVE",
"841 111 OFFCURVE",
"833 120 OFFCURVE",
"824 120 CURVE",
"817 120 OFFCURVE",
"812 117 OFFCURVE",
"807 111 CURVE",
"777 66 OFFCURVE",
"717 28 OFFCURVE",
"650 28 CURVE",
"508 28 OFFCURVE",
"433 131 OFFCURVE",
"433 253 CURVE",
"433 403 OFFCURVE",
"539 475 OFFCURVE",
"620 475 CURVE",
"705 475 OFFCURVE",
"794 419 OFFCURVE",
"805 313 CURVE",
"805 295 LINE",
"815 304 LINE",
"327 304 LINE",
"149 304 OFFCURVE",
"55 239 OFFCURVE",
"55 136 CURVE",
"55 39 OFFCURVE",
"135 -10 OFFCURVE",
"205 -10 CURVE",
"327 -10 OFFCURVE",
"396 70 OFFCURVE",
"433 125 CURVE",
"411 157 LINE"
);
}
);
width = 894;
},
{
layerId = "8816CCA3-DDF9-4C51-BD56-64EE3675A105";
paths = (
{
closed = 1;
nodes = (
"950 216 LINE SMOOTH",
"985 216 OFFCURVE",
"1014 242 OFFCURVE",
"1011 279 CURVE SMOOTH",
"996 468 OFFCURVE",
"840 525 OFFCURVE",
"753 525 CURVE SMOOTH",
"685 525 OFFCURVE",
"618 499 OFFCURVE",
"569 450 CURVE SMOOTH",
"566 447 OFFCURVE",
"563 448 OFFCURVE",
"563 452 CURVE SMOOTH",
"563 454 LINE SMOOTH",
"563 489 OFFCURVE",
"538 515 OFFCURVE",
"503 515 CURVE SMOOTH",
"468 515 OFFCURVE",
"443 489 OFFCURVE",
"443 454 CURVE SMOOTH",
"443 450 OFFCURVE",
"440 448 OFFCURVE",
"438 452 CURVE SMOOTH",
"422 484 OFFCURVE",
"367 525 OFFCURVE",
"296 525 CURVE SMOOTH",
"147 525 OFFCURVE",
"40 415 OFFCURVE",
"40 257 CURVE SMOOTH",
"40 100 OFFCURVE",
"147 -10 OFFCURVE",
"296 -10 CURVE SMOOTH",
"367 -10 OFFCURVE",
"422 31 OFFCURVE",
"438 63 CURVE SMOOTH",
"440 67 OFFCURVE",
"443 65 OFFCURVE",
"443 61 CURVE SMOOTH",
"443 26 OFFCURVE",
"468 0 OFFCURVE",
"503 0 CURVE SMOOTH",
"538 0 OFFCURVE",
"563 26 OFFCURVE",
"563 61 CURVE SMOOTH",
"563 63 LINE SMOOTH",
"563 68 OFFCURVE",
"566 69 OFFCURVE",
"569 66 CURVE SMOOTH",
"619 19 OFFCURVE",
"690 -10 OFFCURVE",
"773 -10 CURVE SMOOTH",
"841 -10 OFFCURVE",
"912 16 OFFCURVE",
"948 45 CURVE SMOOTH",
"977 68 OFFCURVE",
"984 98 OFFCURVE",
"967 122 CURVE SMOOTH",
"949 147 OFFCURVE",
"920 150 OFFCURVE",
"891 135 CURVE SMOOTH",
"868 123 OFFCURVE",
"843 96 OFFCURVE",
"767 96 CURVE SMOOTH",
"695 96 OFFCURVE",
"634 158 OFFCURVE",
"618 208 CURVE",
"617 213 OFFCURVE",
"619 216 OFFCURVE",
"624 216 CURVE SMOOTH"
);
},
{
closed = 1;
nodes = (
"817 410 OFFCURVE",
"878 370 OFFCURVE",
"883 322 CURVE",
"883 318 OFFCURVE",
"880 315 OFFCURVE",
"876 315 CURVE SMOOTH",
"629 315 LINE SMOOTH",
"625 315 OFFCURVE",
"622 318 OFFCURVE",
"622 322 CURVE",
"627 370 OFFCURVE",
"689 410 OFFCURVE",
"753 410 CURVE SMOOTH"
);
},
{
closed = 1;
nodes = (
"216 110 OFFCURVE",
"155 174 OFFCURVE",
"155 257 CURVE SMOOTH",
"155 341 OFFCURVE",
"216 405 OFFCURVE",
"306 405 CURVE SMOOTH",
"397 405 OFFCURVE",
"458 341 OFFCURVE",
"458 257 CURVE SMOOTH",
"458 174 OFFCURVE",
"397 110 OFFCURVE",
"306 110 CURVE SMOOTH"
);
}
);
width = 1046;
}
);
note = ae;
rightMetricsKey = e;
unicode = 00E6;
},
{
glyphname = b;
lastChange = "2016-07-14 20:24:46 +0000";
layers = (
{
anchors = (
{
name = bottom;
position = "{298, 0}";
},
{
name = top;
position = "{298, 499}";
}
);
layerId = "254266E2-2911-423D-9D37-8CC6105656EE";
paths = (
{
closed = 1;
nodes = (
"226 515 OFFCURVE",
"147 462 OFFCURVE",
"110 364 CURVE",
"123 357 LINE",
"123 719 LINE",
"123 730 OFFCURVE",
"115 739 OFFCURVE",
"103 739 CURVE",
"91 739 OFFCURVE",
"83 730 OFFCURVE",
"83 719 CURVE",
"83 20 LINE",
"83 9 OFFCURVE",
"92 0 OFFCURVE",
"103 0 CURVE",
"115 0 OFFCURVE",
"123 9 OFFCURVE",
"123 20 CURVE",
"123 147 LINE",
"110 133 LINE",
"152 45 OFFCURVE",
"226 -10 OFFCURVE",
"315 -10 CURVE",
"447 -10 OFFCURVE",
"547 105 OFFCURVE",
"547 255 CURVE",
"547 406 OFFCURVE",
"448 515 OFFCURVE",
"315 515 CURVE"
);
},
{
closed = 1;
nodes = (
"424 477 OFFCURVE",
"507 384 OFFCURVE",
"507 255 CURVE",
"507 126 OFFCURVE",
"424 28 OFFCURVE",
"313 28 CURVE",
"199 28 OFFCURVE",
"119 125 OFFCURVE",
"119 255 CURVE",
"119 385 OFFCURVE",
"199 477 OFFCURVE",
"313 477 CURVE"
);
}
);
width = 595;
},
{
layerId = "8816CCA3-DDF9-4C51-BD56-64EE3675A105";
paths = (
{
closed = 1;
nodes = (
"248 545 OFFCURVE",
"168 468 OFFCURVE",
"168 434 CURVE",
"185 425 LINE",
"185 679 LINE",
"185 714 OFFCURVE",
"160 740 OFFCURVE",
"125 740 CURVE",
"90 740 OFFCURVE",
"65 714 OFFCURVE",
"65 679 CURVE",
"65 51 LINE",
"65 15 OFFCURVE",
"90 -10 OFFCURVE",
"125 -10 CURVE",
"160 -10 OFFCURVE",
"185 16 OFFCURVE",
"185 51 CURVE",
"185 124 LINE",
"154 111 LINE",
"154 73 OFFCURVE",
"238 -10 OFFCURVE",
"346 -10 CURVE",
"481 -10 OFFCURVE",
"588 104 OFFCURVE",
"588 268 CURVE",
"588 431 OFFCURVE",
"481 545 OFFCURVE",
"342 545 CURVE"
);
},
{
closed = 1;
nodes = (
"414 435 OFFCURVE",
"473 363 OFFCURVE",
"473 268 CURVE",
"473 173 OFFCURVE",
"414 100 OFFCURVE",
"327 100 CURVE",
"239 100 OFFCURVE",
"180 173 OFFCURVE",
"180 268 CURVE",
"180 363 OFFCURVE",
"239 435 OFFCURVE",
"327 435 CURVE"
);
}
);
width = 623;
}
);
leftKerningGroup = b;
leftMetricsKey = n;
note = b;
rightKerningGroup = b;
rightMetricsKey = o;
unicode = 0062;
},
{
glyphname = c;
lastChange = "2016-07-18 23:27:23 +0000";
layers = (
{
anchors = (
{
name = bottom;
position = "{257, 0}";
},
{
name = top;
position = "{297, 499}";
}
);
layerId = "254266E2-2911-423D-9D37-8CC6105656EE";
paths = (
{
closed = 1;
nodes = (
"148 515 OFFCURVE",
"48 392 OFFCURVE",
"48 253 CURVE",
"48 102 OFFCURVE",
"149 -10 OFFCURVE",
"296 -10 CURVE",
"404 -10 OFFCURVE",
"473 46 OFFCURVE",
"473 71 CURVE",
"473 82 OFFCURVE",
"466 89 OFFCURVE",
"456 89 CURVE",
"441 89 OFFCURVE",
"436 71 OFFCURVE",
"408 55 CURVE",
"385 42 OFFCURVE",
"359 28 OFFCURVE",
"299 28 CURVE",
"174 28 OFFCURVE",
"88 124 OFFCURVE",
"88 253 CURVE",
"88 378 OFFCURVE",
"183 477 OFFCURVE",
"299 477 CURVE",
"348 477 OFFCURVE",
"382 469 OFFCURVE",
"401 460 CURVE",
"431 445 OFFCURVE",
"431 424 OFFCURVE",
"454 424 CURVE",
"465 424 OFFCURVE",
"473 434 OFFCURVE",
"473 444 CURVE",
"473 480 OFFCURVE",
"389 515 OFFCURVE",
"300 515 CURVE"
);
}
);
width = 513;
},
{
layerId = "8816CCA3-DDF9-4C51-BD56-64EE3675A105";
paths = (
{
closed = 1;
nodes = (
"144 545 OFFCURVE",
"35 431 OFFCURVE",
"35 267 CURVE",
"35 110 OFFCURVE",
"135 -10 OFFCURVE",
"293 -10 CURVE",
"398 -10 OFFCURVE",
"493 31 OFFCURVE",
"493 81 CURVE SMOOTH",
"493 113 OFFCURVE",
"474 138 OFFCURVE",
"439 138 CURVE",
"409 138 OFFCURVE",
"400 122 OFFCURVE",
"381 112 CURVE SMOOTH",
"365 104 OFFCURVE",
"341 100 OFFCURVE",
"308 100 CURVE",
"218 100 OFFCURVE",
"155 171 OFFCURVE",
"155 267 CURVE",
"155 364 OFFCURVE",
"213 435 OFFCURVE",
"315 435 CURVE SMOOTH",
"328 435 OFFCURVE",
"362 430 OFFCURVE",
"376 422 CURVE SMOOTH",
"398 409 OFFCURVE",
"407 393 OFFCURVE",
"440 393 CURVE",
"470 393 OFFCURVE",
"487 421 OFFCURVE",
"487 448 CURVE",
"487 507 OFFCURVE",
"411 545 OFFCURVE",
"298 545 CURVE"
);
}
);
width = 515;
}
);
leftKerningGroup = c;
leftMetricsKey = o;
note = c;
rightKerningGroup = c;
unicode = 0063;
},
{
glyphname = cacute;
lastChange = "2016-07-18 23:35:36 +0000";
layers = (
{
components = (
{
name = c;
},
{
name = acutecomb;
transform = "{1, 0, 0, 1, 183, 0}";
}
);
layerId = "254266E2-2911-423D-9D37-8CC6105656EE";
width = 513;
},
{
layerId = "8816CCA3-DDF9-4C51-BD56-64EE3675A105";
paths = (
{
closed = 1;
nodes = (
"211 660 LINE SMOOTH",
"189 626 OFFCURVE",
"197 600 OFFCURVE",
"230 600 CURVE SMOOTH",
"256 600 OFFCURVE",
"273 607 OFFCURVE",
"292 625 CURVE SMOOTH",
"342 672 LINE SMOOTH",
"370 698 OFFCURVE",
"365 725 OFFCURVE",
"330 741 CURVE",
"320 745 LINE",
"292 758 OFFCURVE",
"270 751 OFFCURVE",
"253 725 CURVE SMOOTH"
);
},
{
closed = 1;
nodes = (
"386 521 OFFCURVE",
"354 525 OFFCURVE",
"315 525 CURVE SMOOTH",
"163 525 OFFCURVE",
"40 405 OFFCURVE",
"40 257 CURVE SMOOTH",
"40 110 OFFCURVE",
"163 -10 OFFCURVE",
"315 -10 CURVE SMOOTH",
"354 -10 OFFCURVE",
"387 -5 OFFCURVE",
"420 11 CURVE SMOOTH",
"452 27 OFFCURVE",
"467 72 OFFCURVE",
"442 105 CURVE SMOOTH",
"410 147 OFFCURVE",
"368 110 OFFCURVE",
"315 110 CURVE SMOOTH",
"228 110 OFFCURVE",
"160 177 OFFCURVE",
"160 257 CURVE SMOOTH",
"160 338 OFFCURVE",
"228 405 OFFCURVE",
"315 405 CURVE SMOOTH",
"366 405 OFFCURVE",
"418 368 OFFCURVE",
"448 422 CURVE SMOOTH",
"463 449 OFFCURVE",
"452 488 OFFCURVE",
"420 504 CURVE SMOOTH"
);
}
);
width = 480;
}
);
leftMetricsKey = "+10";
note = cacute;
rightMetricsKey = "+10";
unicode = 0107;
},
{
glyphname = ccaron;
lastChange = "2016-07-18 23:35:36 +0000";
layers = (
{
components = (
{
name = c;
},
{
name = caroncomb;
transform = "{1, 0, 0, 1, 140, 0}";
}
);
layerId = "254266E2-2911-423D-9D37-8CC6105656EE";
width = 513;
},
{
layerId = "8816CCA3-DDF9-4C51-BD56-64EE3675A105";
paths = (
{
closed = 1;
nodes = (
"159 630 LINE SMOOTH",
"175 609 OFFCURVE",
"193 600 OFFCURVE",
"220 600 CURVE SMOOTH",
"256 600 LINE SMOOTH",
"283 600 OFFCURVE",
"301 609 OFFCURVE",
"317 630 CURVE SMOOTH",
"361 685 LINE SMOOTH",
"388 718 OFFCURVE",
"383 746 OFFCURVE",
"351 746 CURVE SMOOTH",
"326 746 OFFCURVE",
"308 739 OFFCURVE",
"289 723 CURVE SMOOTH",
"239 680 LINE",
"189 723 LINE SMOOTH",
"170 739 OFFCURVE",
"157 746 OFFCURVE",
"144 746 CURVE SMOOTH",
"102 746 OFFCURVE",
"88 718 OFFCURVE",
"115 685 CURVE SMOOTH"
);
},
{
closed = 1;
nodes = (
"386 521 OFFCURVE",
"354 525 OFFCURVE",
"315 525 CURVE SMOOTH",
"163 525 OFFCURVE",
"40 405 OFFCURVE",
"40 257 CURVE SMOOTH",
"40 110 OFFCURVE",
"163 -10 OFFCURVE",
"315 -10 CURVE SMOOTH",
"354 -10 OFFCURVE",
"387 -5 OFFCURVE",
"420 11 CURVE SMOOTH",
"452 27 OFFCURVE",
"467 72 OFFCURVE",
"442 105 CURVE SMOOTH",
"410 147 OFFCURVE",
"368 110 OFFCURVE",
"315 110 CURVE SMOOTH",
"228 110 OFFCURVE",
"160 177 OFFCURVE",
"160 257 CURVE SMOOTH",
"160 338 OFFCURVE",
"228 405 OFFCURVE",
"315 405 CURVE SMOOTH",
"366 405 OFFCURVE",
"418 368 OFFCURVE",
"448 422 CURVE SMOOTH",
"463 449 OFFCURVE",
"452 488 OFFCURVE",
"420 504 CURVE SMOOTH"
);
}
);
width = 480;
}
);
leftMetricsKey = "+10";
note = ccaron;
rightMetricsKey = "+10";
unicode = 010D;
},
{
glyphname = ccedilla;
lastChange = "2016-07-14 20:40:27 +0000";
layers = (
{
components = (
{
name = c;
},
{
name = cedillacomb;
transform = "{1, 0, 0, 1, 146, 0}";
}
);
layerId = "254266E2-2911-423D-9D37-8CC6105656EE";
width = 513;
},
{
layerId = "8816CCA3-DDF9-4C51-BD56-64EE3675A105";
paths = (
{
closed = 1;
nodes = (
"228 110 OFFCURVE",
"160 177 OFFCURVE",
"160 257 CURVE SMOOTH",
"160 338 OFFCURVE",
"228 405 OFFCURVE",
"315 405 CURVE SMOOTH",
"366 405 OFFCURVE",
"418 368 OFFCURVE",
"448 422 CURVE SMOOTH",
"463 449 OFFCURVE",
"452 488 OFFCURVE",
"420 504 CURVE SMOOTH",
"386 521 OFFCURVE",
"354 525 OFFCURVE",
"315 525 CURVE SMOOTH",
"163 525 OFFCURVE",
"40 405 OFFCURVE",
"40 257 CURVE SMOOTH",
"40 139 OFFCURVE",
"119 38 OFFCURVE",
"229 3 CURVE",
"171 -75 LINE SMOOTH",
"150 -103 OFFCURVE",
"158 -129 OFFCURVE",
"191 -142 CURVE SMOOTH",
"199 -145 LINE",
"229 -158 OFFCURVE",
"254 -149 OFFCURVE",
"265 -119 CURVE SMOOTH",
"305 -10 LINE",
"315 -10 LINE SMOOTH",
"354 -10 OFFCURVE",
"387 -5 OFFCURVE",
"420 11 CURVE SMOOTH",
"452 27 OFFCURVE",
"467 72 OFFCURVE",
"442 105 CURVE SMOOTH",
"410 147 OFFCURVE",
"368 110 OFFCURVE",
"315 110 CURVE SMOOTH"
);
}
);
width = 480;
}
);
leftMetricsKey = "+10";
note = ccedilla;
rightMetricsKey = "+10";
unicode = 00E7;
},
{
glyphname = cdotaccent;
lastChange = "2016-07-18 23:27:23 +0000";
layers = (
{
components = (
{
name = c;
},
{
name = dotaccentcomb;
transform = "{1, 0, 0, 1, 212, -1}";
}
);
layerId = "254266E2-2911-423D-9D37-8CC6105656EE";
width = 513;
},
{
layerId = "8816CCA3-DDF9-4C51-BD56-64EE3675A105";
paths = (
{
closed = 1;
nodes = (
"177 650 LINE SMOOTH",
"177 617 OFFCURVE",
"194 600 OFFCURVE",
"227 600 CURVE SMOOTH",
"253 600 LINE SMOOTH",
"286 600 OFFCURVE",
"303 618 OFFCURVE",
"303 650 CURVE SMOOTH",
"303 669 LINE SMOOTH",
"303 702 OFFCURVE",
"286 719 OFFCURVE",
"253 719 CURVE SMOOTH",
"227 719 LINE SMOOTH",
"195 719 OFFCURVE",
"177 701 OFFCURVE",
"177 669 CURVE SMOOTH"
);
},
{
closed = 1;
nodes = (
"386 521 OFFCURVE",
"354 525 OFFCURVE",
"315 525 CURVE SMOOTH",
"163 525 OFFCURVE",
"40 405 OFFCURVE",
"40 257 CURVE SMOOTH",
"40 110 OFFCURVE",
"163 -10 OFFCURVE",
"315 -10 CURVE SMOOTH",
"354 -10 OFFCURVE",
"387 -5 OFFCURVE",
"420 11 CURVE SMOOTH",
"452 27 OFFCURVE",
"467 72 OFFCURVE",
"442 105 CURVE SMOOTH",
"410 147 OFFCURVE",
"368 110 OFFCURVE",
"315 110 CURVE SMOOTH",
"228 110 OFFCURVE",
"160 177 OFFCURVE",
"160 257 CURVE SMOOTH",
"160 338 OFFCURVE",
"228 405 OFFCURVE",
"315 405 CURVE SMOOTH",
"366 405 OFFCURVE",
"418 368 OFFCURVE",
"448 422 CURVE SMOOTH",
"463 449 OFFCURVE",
"452 488 OFFCURVE",
"420 504 CURVE SMOOTH"
);
}
);
width = 480;
}
);
leftMetricsKey = "+10";
note = cdotaccent;
rightMetricsKey = "+10";
unicode = 010B;
},
{
glyphname = d;
lastChange = "2016-07-14 20:24:46 +0000";
layers = (
{
anchors = (
{
name = bottom;
position = "{298, 0}";
},
{
name = center;
position = "{298, 250}";
},
{
name = top;
position = "{298, 499}";
},
{
name = topright;
position = "{575, 499}";
}
);
layerId = "254266E2-2911-423D-9D37-8CC6105656EE";
paths = (
{
closed = 1;
nodes = (
"480 740 OFFCURVE",
"472 731 OFFCURVE",
"472 720 CURVE",
"472 334 LINE",
"488 309 LINE",
"488 427 OFFCURVE",
"390 515 OFFCURVE",
"280 515 CURVE",
"148 515 OFFCURVE",
"48 403 OFFCURVE",
"48 253 CURVE",
"48 103 OFFCURVE",
"148 -10 OFFCURVE",
"280 -10 CURVE",
"398 -10 OFFCURVE",
"488 92 OFFCURVE",
"488 184 CURVE",
"472 162 LINE",
"472 20 LINE",
"472 9 OFFCURVE",
"480 0 OFFCURVE",
"492 0 CURVE",
"503 0 OFFCURVE",
"512 9 OFFCURVE",
"512 20 CURVE",
"512 720 LINE",
"512 731 OFFCURVE",
"504 740 OFFCURVE",
"492 740 CURVE"
);
},
{
closed = 1;
nodes = (
"171 28 OFFCURVE",
"88 124 OFFCURVE",
"88 253 CURVE",
"88 382 OFFCURVE",
"172 477 OFFCURVE",
"282 477 CURVE",
"394 477 OFFCURVE",
"476 382 OFFCURVE",
"476 253 CURVE",
"476 123 OFFCURVE",
"395 28 OFFCURVE",
"282 28 CURVE"
);
}
);
width = 595;
},
{
background = {
paths = (
{
closed = 1;
nodes = (
"448 740 OFFCURVE",
"423 714 OFFCURVE",
"423 679 CURVE",
"423 456 LINE",
"423 451 OFFCURVE",
"420 450 OFFCURVE",
"418 454 CURVE",
"401 495 OFFCURVE",
"342 545 OFFCURVE",
"266 545 CURVE",
"111 545 OFFCURVE",
"0 431 OFFCURVE",
"0 267 CURVE",
"0 104 OFFCURVE",
"111 -10 OFFCURVE",
"266 -10 CURVE",
"342 -10 OFFCURVE",
"401 30 OFFCURVE",
"418 62 CURVE",
"420 66 OFFCURVE",
"423 65 OFFCURVE",
"423 61 CURVE",
"423 26 OFFCURVE",
"448 0 OFFCURVE",
"483 0 CURVE",
"518 0 OFFCURVE",
"543 26 OFFCURVE",
"543 61 CURVE",
"543 679 LINE",
"543 714 OFFCURVE",
"518 740 OFFCURVE",
"483 740 CURVE"
);
},
{
closed = 1;
nodes = (
"180 100 OFFCURVE",
"115 172 OFFCURVE",
"115 267 CURVE",
"115 362 OFFCURVE",
"180 435 OFFCURVE",
"276 435 CURVE",
"373 435 OFFCURVE",
"438 362 OFFCURVE",
"438 267 CURVE",
"438 172 OFFCURVE",
"373 100 OFFCURVE",
"276 100 CURVE"
);
}
);
};
layerId = "8816CCA3-DDF9-4C51-BD56-64EE3675A105";
paths = (
{
closed = 1;
nodes = (
"463 740 OFFCURVE",
"438 714 OFFCURVE",
"438 679 CURVE",
"438 411 LINE",
"474 424 LINE",
"474 462 OFFCURVE",
"391 545 OFFCURVE",
"277 545 CURVE",
"142 545 OFFCURVE",
"35 431 OFFCURVE",
"35 267 CURVE",
"35 104 OFFCURVE",
"142 -10 OFFCURVE",
"281 -10 CURVE",
"381 -10 OFFCURVE",
"460 67 OFFCURVE",
"460 101 CURVE",
"438 110 LINE",
"438 61 LINE",
"438 26 OFFCURVE",
"463 0 OFFCURVE",
"498 0 CURVE",
"533 0 OFFCURVE",
"558 26 OFFCURVE",
"558 61 CURVE",
"558 679 LINE",
"558 715 OFFCURVE",
"533 740 OFFCURVE",
"498 740 CURVE"
);
},
{
closed = 1;
nodes = (
"209 100 OFFCURVE",
"150 172 OFFCURVE",
"150 267 CURVE",
"150 362 OFFCURVE",
"209 435 OFFCURVE",
"296 435 CURVE",
"384 435 OFFCURVE",
"443 362 OFFCURVE",
"443 267 CURVE",
"443 172 OFFCURVE",
"384 100 OFFCURVE",
"296 100 CURVE"
);
}
);
width = 623;
}
);
leftKerningGroup = c;
leftMetricsKey = o;
note = d;
rightKerningGroup = d;
rightMetricsKey = n;
unicode = 0064;
},
{
glyphname = eth;
lastChange = "2016-07-18 23:27:03 +0000";
layers = (
{
layerId = "254266E2-2911-423D-9D37-8CC6105656EE";
paths = (
{
closed = 1;
nodes = (
"461 649 OFFCURVE",
"466 660 OFFCURVE",
"462 671 CURVE",
"458 682 OFFCURVE",
"447 687 OFFCURVE",
"436 682 CURVE",
"199 590 LINE",
"188 586 OFFCURVE",
"183 575 OFFCURVE",
"187 564 CURVE",
"191 553 OFFCURVE",
"202 549 OFFCURVE",
"213 553 CURVE",
"450 645 LINE"
);
},
{
closed = 1;
nodes = (
"449 436 OFFCURVE",
"385 513 OFFCURVE",
"280 513 CURVE",
"151 513 OFFCURVE",
"48 402 OFFCURVE",
"48 261 CURVE",
"48 119 OFFCURVE",
"151 -1 OFFCURVE",
"280 -1 CURVE",
"409 -1 OFFCURVE",
"513 118 OFFCURVE",
"513 285 CURVE",
"513 409 OFFCURVE",
"439 664 OFFCURVE",
"192 715 CURVE",
"180 718 OFFCURVE",
"169 712 OFFCURVE",
"167 699 CURVE",
"165 688 OFFCURVE",
"171 679 OFFCURVE",
"183 676 CURVE",
"327 643 OFFCURVE",
"433 514 OFFCURVE",
"460 368 CURVE",
"477 362 LINE"
);
},
{
closed = 1;
nodes = (
"175 37 OFFCURVE",
"88 141 OFFCURVE",
"88 261 CURVE",
"88 380 OFFCURVE",
"173 475 OFFCURVE",
"280 475 CURVE",
"387 475 OFFCURVE",
"472 371 OFFCURVE",
"472 261 CURVE",
"472 141 OFFCURVE",
"385 37 OFFCURVE",
"280 37 CURVE"
);
}
);
width = 561;
},
{
layerId = "8816CCA3-DDF9-4C51-BD56-64EE3675A105";
paths = (
{
closed = 1;
nodes = (
"439 553 LINE SMOOTH",
"466 563 OFFCURVE",
"478 591 OFFCURVE",
"468 618 CURVE SMOOTH",
"458 645 OFFCURVE",
"430 657 OFFCURVE",
"402 646 CURVE SMOOTH",
"351 626 LINE",
"348 625 OFFCURVE",
"346 626 OFFCURVE",
"344 627 CURVE",
"307 657 OFFCURVE",
"262 682 OFFCURVE",
"207 698 CURVE SMOOTH",
"165 710 OFFCURVE",
"130 689 OFFCURVE",
"125 655 CURVE",
"125 654 LINE",
"120 620 OFFCURVE",
"142 594 OFFCURVE",
"177 583 CURVE",
"185 581 OFFCURVE",
"192 578 OFFCURVE",
"200 574 CURVE",
"204 573 OFFCURVE",
"204 569 OFFCURVE",
"200 568 CURVE",
"172 557 LINE SMOOTH",
"145 547 OFFCURVE",
"133 519 OFFCURVE",
"143 492 CURVE SMOOTH",
"153 465 OFFCURVE",
"181 453 OFFCURVE",
"209 464 CURVE SMOOTH",
"300 499 LINE",
"303 500 OFFCURVE",
"305 500 OFFCURVE",
"307 498 CURVE SMOOTH",
"336 467 OFFCURVE",
"359 432 OFFCURVE",
"374 398 CURVE SMOOTH",
"377 391 OFFCURVE",
"371 386 OFFCURVE",
"366 392 CURVE",
"346 413 OFFCURVE",
"315 434 OFFCURVE",
"258 434 CURVE SMOOTH",
"158 434 OFFCURVE",
"51 335 OFFCURVE",
"51 212 CURVE SMOOTH",
"51 89 OFFCURVE",
"151 -10 OFFCURVE",
"274 -10 CURVE SMOOTH",
"397 -10 OFFCURVE",
"484 89 OFFCURVE",
"497 212 CURVE SMOOTH",
"503 265 OFFCURVE",
"500 416 OFFCURVE",
"421 540 CURVE SMOOTH",
"419 543 OFFCURVE",
"420 546 OFFCURVE",
"423 547 CURVE"
);
},
{
closed = 1;
nodes = (
"217 110 OFFCURVE",
"171 155 OFFCURVE",
"171 212 CURVE SMOOTH",
"171 269 OFFCURVE",
"217 314 OFFCURVE",
"274 314 CURVE SMOOTH",
"332 314 OFFCURVE",
"377 269 OFFCURVE",
"377 212 CURVE SMOOTH",
"377 155 OFFCURVE",
"332 110 OFFCURVE",
"274 110 CURVE SMOOTH"
);
}
);
width = 528;
}
);
leftMetricsKey = o;
note = eth;
rightMetricsKey = o;
unicode = 00F0;
},
{
glyphname = dcaron;
lastChange = "2016-07-18 23:18:31 +0000";
layers = (
{
components = (
{
name = d;
},
{
name = caronalt;
transform = "{1, 0, 0, 1, 553, 0}";
}
);
layerId = "254266E2-2911-423D-9D37-8CC6105656EE";
width = 688;
},
{
layerId = "8816CCA3-DDF9-4C51-BD56-64EE3675A105";
paths = (
{
closed = 1;
nodes = (
"468 740 OFFCURVE",
"443 714 OFFCURVE",
"443 679 CURVE SMOOTH",
"443 456 LINE SMOOTH",
"443 451 OFFCURVE",
"440 450 OFFCURVE",
"438 454 CURVE SMOOTH",
"422 486 OFFCURVE",
"367 525 OFFCURVE",
"296 525 CURVE SMOOTH",
"147 525 OFFCURVE",
"40 415 OFFCURVE",
"40 257 CURVE SMOOTH",
"40 100 OFFCURVE",
"147 -10 OFFCURVE",
"296 -10 CURVE SMOOTH",
"367 -10 OFFCURVE",
"422 30 OFFCURVE",
"438 62 CURVE SMOOTH",
"440 66 OFFCURVE",
"443 65 OFFCURVE",
"443 61 CURVE SMOOTH",
"443 26 OFFCURVE",
"468 0 OFFCURVE",
"503 0 CURVE SMOOTH",
"538 0 OFFCURVE",
"563 26 OFFCURVE",
"563 61 CURVE SMOOTH",
"563 679 LINE SMOOTH",
"563 714 OFFCURVE",
"538 740 OFFCURVE",
"503 740 CURVE SMOOTH"
);
},
{
closed = 1;
nodes = (
"647 442 LINE SMOOTH",
"645 416 OFFCURVE",
"655 401 OFFCURVE",
"676 401 CURVE SMOOTH",
"698 401 OFFCURVE",
"711 412 OFFCURVE",
"719 434 CURVE SMOOTH",
"787 643 LINE SMOOTH",
"799 678 OFFCURVE",
"783 700 OFFCURVE",
"746 700 CURVE SMOOTH",
"715 700 LINE SMOOTH",
"683 700 OFFCURVE",
"666 684 OFFCURVE",
"663 652 CURVE SMOOTH"
);
},
{
closed = 1;
nodes = (
"216 110 OFFCURVE",
"155 174 OFFCURVE",
"155 257 CURVE SMOOTH",
"155 341 OFFCURVE",
"216 405 OFFCURVE",
"306 405 CURVE SMOOTH",
"397 405 OFFCURVE",
"458 341 OFFCURVE",
"458 257 CURVE SMOOTH",
"458 174 OFFCURVE",
"397 110 OFFCURVE",
"306 110 CURVE SMOOTH"
);
}
);
width = 831;
}
);
leftMetricsKey = "+10";
note = dcaron;
unicode = 010F;
},
{
glyphname = dcroat;
lastChange = "2016-07-12 18:06:06 +0000";
layers = (
{
layerId = "254266E2-2911-423D-9D37-8CC6105656EE";
paths = (
{
closed = 1;
nodes = (
"552 647 LINE",
"552 720 LINE SMOOTH",
"552 731 OFFCURVE",
"544 740 OFFCURVE",
"532 740 CURVE SMOOTH",
"520 740 OFFCURVE",
"512 731 OFFCURVE",
"512 720 CURVE SMOOTH",
"512 647 LINE",
"353 647 LINE SMOOTH",
"340 647 OFFCURVE",
"333 640 OFFCURVE",
"333 627 CURVE SMOOTH",
"333 626 LINE SMOOTH",
"333 613 OFFCURVE",
"340 606 OFFCURVE",
"353 606 CURVE SMOOTH",
"512 606 LINE",
"512 414 LINE SMOOTH",
"512 409 OFFCURVE",
"509 408 OFFCURVE",
"506 412 CURVE",
"460 480 OFFCURVE",
"385 525 OFFCURVE",
"300 525 CURVE SMOOTH",
"161 525 OFFCURVE",
"48 406 OFFCURVE",
"48 258 CURVE SMOOTH",
"48 110 OFFCURVE",
"161 -10 OFFCURVE",
"300 -10 CURVE SMOOTH",
"385 -10 OFFCURVE",
"460 35 OFFCURVE",
"506 104 CURVE",
"509 108 OFFCURVE",
"512 107 OFFCURVE",
"512 102 CURVE SMOOTH",
"512 20 LINE SMOOTH",
"512 9 OFFCURVE",
"520 0 OFFCURVE",
"532 0 CURVE SMOOTH",
"543 0 OFFCURVE",
"552 9 OFFCURVE",
"552 20 CURVE SMOOTH",
"552 606 LINE",
"613 606 LINE SMOOTH",
"626 606 OFFCURVE",
"633 613 OFFCURVE",
"633 626 CURVE SMOOTH",
"633 627 LINE SMOOTH",
"633 640 OFFCURVE",
"626 647 OFFCURVE",
"613 647 CURVE SMOOTH"
);
},
{
closed = 1;
nodes = (
"184 30 OFFCURVE",
"88 132 OFFCURVE",
"88 258 CURVE SMOOTH",
"88 384 OFFCURVE",
"184 485 OFFCURVE",
"300 485 CURVE SMOOTH",
"416 485 OFFCURVE",
"512 384 OFFCURVE",
"512 258 CURVE SMOOTH",
"512 132 OFFCURVE",
"416 30 OFFCURVE",
"300 30 CURVE SMOOTH"
);
}
);
width = 692;
},
{
layerId = "8816CCA3-DDF9-4C51-BD56-64EE3675A105";
paths = (
{
closed = 1;
nodes = (
"568 659 LINE SMOOTH",
"565 659 OFFCURVE",
"563 661 OFFCURVE",
"563 664 CURVE SMOOTH",
"563 679 LINE SMOOTH",
"563 714 OFFCURVE",
"538 740 OFFCURVE",
"503 740 CURVE SMOOTH",
"468 740 OFFCURVE",
"443 714 OFFCURVE",
"443 679 CURVE SMOOTH",
"443 664 LINE SMOOTH",
"443 661 OFFCURVE",
"441 659 OFFCURVE",
"438 659 CURVE SMOOTH",
"350 659 LINE SMOOTH",
"318 659 OFFCURVE",
"300 643 OFFCURVE",
"300 615 CURVE SMOOTH",
"300 586 OFFCURVE",
"318 570 OFFCURVE",
"350 570 CURVE SMOOTH",
"438 570 LINE SMOOTH",
"441 570 OFFCURVE",
"443 568 OFFCURVE",
"443 565 CURVE SMOOTH",
"443 456 LINE SMOOTH",
"443 451 OFFCURVE",
"440 450 OFFCURVE",
"438 454 CURVE SMOOTH",
"422 486 OFFCURVE",
"367 525 OFFCURVE",
"296 525 CURVE SMOOTH",
"147 525 OFFCURVE",
"40 415 OFFCURVE",
"40 257 CURVE SMOOTH",
"40 100 OFFCURVE",
"147 -10 OFFCURVE",
"296 -10 CURVE SMOOTH",
"367 -10 OFFCURVE",
"422 30 OFFCURVE",
"438 62 CURVE SMOOTH",
"440 66 OFFCURVE",
"443 65 OFFCURVE",
"443 61 CURVE SMOOTH",
"443 26 OFFCURVE",
"468 0 OFFCURVE",
"503 0 CURVE SMOOTH",
"538 0 OFFCURVE",
"563 26 OFFCURVE",
"563 61 CURVE SMOOTH",
"563 565 LINE SMOOTH",
"563 568 OFFCURVE",
"565 570 OFFCURVE",
"568 570 CURVE SMOOTH",
"592 570 LINE SMOOTH",
"625 570 OFFCURVE",
"642 586 OFFCURVE",
"642 615 CURVE SMOOTH",
"642 643 OFFCURVE",
"624 659 OFFCURVE",
"592 659 CURVE SMOOTH"
);
},
{
closed = 1;
nodes = (
"216 110 OFFCURVE",
"155 174 OFFCURVE",
"155 257 CURVE SMOOTH",
"155 341 OFFCURVE",
"216 405 OFFCURVE",
"306 405 CURVE SMOOTH",
"397 405 OFFCURVE",
"458 341 OFFCURVE",
"458 257 CURVE SMOOTH",
"458 174 OFFCURVE",
"397 110 OFFCURVE",
"306 110 CURVE SMOOTH"
);
}
);
width = 638;
}
);
leftMetricsKey = "+10";
note = dcroat;
rightMetricsKey = "+10";
unicode = 0111;
},
{
glyphname = e;
lastChange = "2016-07-18 23:35:34 +0000";
layers = (
{
anchors = (
{
name = bottom;
position = "{274, 0}";
},
{
name = ogonek;
position = "{493, 10}";
},
{
name = top;
position = "{281, 499}";
}
);
layerId = "254266E2-2911-423D-9D37-8CC6105656EE";
paths = (
{
closed = 1;
nodes = (
"383 -10 OFFCURVE",
"450 36 OFFCURVE",
"491 90 CURVE",
"494 94 OFFCURVE",
"495 98 OFFCURVE",
"495 102 CURVE",
"495 111 OFFCURVE",
"487 120 OFFCURVE",
"478 120 CURVE",
"471 120 OFFCURVE",
"466 117 OFFCURVE",
"461 111 CURVE",
"431 66 OFFCURVE",
"371 28 OFFCURVE",
"304 28 CURVE",
"162 28 OFFCURVE",
"87 131 OFFCURVE",
"87 253 CURVE",
"87 403 OFFCURVE",
"193 475 OFFCURVE",
"274 475 CURVE",
"359 475 OFFCURVE",
"448 419 OFFCURVE",
"459 313 CURVE",
"459 295 LINE",
"469 304 LINE",
"66 304 LINE",
"72 266 LINE",
"480 266 LINE",
"491 266 OFFCURVE",
"500 276 OFFCURVE",
"500 287 CURVE",
"495 443 OFFCURVE",
"387 515 OFFCURVE",
"274 515 CURVE",
"158 515 OFFCURVE",
"48 417 OFFCURVE",
"48 250 CURVE",
"48 92 OFFCURVE",
"154 -10 OFFCURVE",
"304 -10 CURVE"
);
}
);
width = 548;
},
{
layerId = "8816CCA3-DDF9-4C51-BD56-64EE3675A105";
paths = (
{
closed = 1;
nodes = (
"378 -10 OFFCURVE",
"447 16 OFFCURVE",
"482 45 CURVE",
"511 68 OFFCURVE",
"518 98 OFFCURVE",
"501 122 CURVE",
"483 147 OFFCURVE",
"454 150 OFFCURVE",
"425 135 CURVE",
"403 123 OFFCURVE",
"379 100 OFFCURVE",
"306 100 CURVE",
"226 100 OFFCURVE",
"150 159 OFFCURVE",
"150 268 CURVE",
"150 398 OFFCURVE",
"212 435 OFFCURVE",
"292 435 CURVE",
"354 435 OFFCURVE",
"412 390 OFFCURVE",
"417 333 CURVE",
"417 329 OFFCURVE",
"414 326 OFFCURVE",
"410 326 CURVE",
"72 326 LINE",
"102 226 LINE",
"484 226 LINE",
"516 226 OFFCURVE",
"543 248 OFFCURVE",
"545 280 CURVE",
"545 424 OFFCURVE",
"427 545 OFFCURVE",
"292 545 CURVE",
"160 545 OFFCURVE",
"35 439 OFFCURVE",
"35 260 CURVE",
"35 106 OFFCURVE",
"141 -10 OFFCURVE",
"312 -10 CURVE"
);
}
);
width = 580;
}
);
leftKerningGroup = c;
leftMetricsKey = o;
note = e;
rightKerningGroup = e;
rightMetricsKey = o;
unicode = 0065;
},
{
glyphname = eacute;
lastChange = "2016-07-18 23:35:35 +0000";
layers = (
{
components = (
{
name = e;
},
{
name = acutecomb;
transform = "{1, 0, 0, 1, 167, 0}";
}
);
layerId = "254266E2-2911-423D-9D37-8CC6105656EE";
width = 548;
},
{
layerId = "8816CCA3-DDF9-4C51-BD56-64EE3675A105";
paths = (
{
closed = 1;
nodes = (
"279 660 LINE SMOOTH",
"257 626 OFFCURVE",
"265 600 OFFCURVE",
"298 600 CURVE SMOOTH",
"324 600 OFFCURVE",
"341 607 OFFCURVE",
"360 625 CURVE SMOOTH",
"410 672 LINE SMOOTH",
"438 698 OFFCURVE",
"433 725 OFFCURVE",
"398 741 CURVE",
"388 745 LINE",
"360 758 OFFCURVE",
"338 751 OFFCURVE",
"321 725 CURVE SMOOTH"
);
},
{
closed = 1;
nodes = (
"545 468 OFFCURVE",
"389 525 OFFCURVE",
"302 525 CURVE SMOOTH",
"168 525 OFFCURVE",
"40 423 OFFCURVE",
"40 250 CURVE SMOOTH",
"40 102 OFFCURVE",
"158 -10 OFFCURVE",
"322 -10 CURVE SMOOTH",
"390 -10 OFFCURVE",
"461 16 OFFCURVE",
"497 45 CURVE SMOOTH",
"526 68 OFFCURVE",
"533 98 OFFCURVE",
"516 122 CURVE SMOOTH",
"498 147 OFFCURVE",
"469 150 OFFCURVE",
"440 135 CURVE SMOOTH",
"417 123 OFFCURVE",
"392 96 OFFCURVE",
"316 96 CURVE SMOOTH",
"244 96 OFFCURVE",
"183 158 OFFCURVE",
"167 208 CURVE",
"166 213 OFFCURVE",
"168 216 OFFCURVE",
"173 216 CURVE SMOOTH",
"499 216 LINE SMOOTH",
"534 216 OFFCURVE",
"563 242 OFFCURVE",
"560 279 CURVE SMOOTH"
);
},
{
closed = 1;
nodes = (
"178 315 LINE SMOOTH",
"174 315 OFFCURVE",
"171 318 OFFCURVE",
"171 322 CURVE",
"176 370 OFFCURVE",
"238 410 OFFCURVE",
"302 410 CURVE SMOOTH",
"366 410 OFFCURVE",
"427 370 OFFCURVE",
"432 322 CURVE",
"432 318 OFFCURVE",
"429 315 OFFCURVE",
"425 315 CURVE SMOOTH"
);
}
);
width = 600;
}
);
leftMetricsKey = "+10";
note = eacute;
rightMetricsKey = "+10";
unicode = 00E9;
},
{
glyphname = ecaron;
lastChange = "2016-07-18 23:35:35 +0000";
layers = (
{
components = (
{
name = e;
},
{
name = caroncomb;
transform = "{1, 0, 0, 1, 124, 0}";
}
);
layerId = "254266E2-2911-423D-9D37-8CC6105656EE";
width = 548;
},
{
layerId = "8816CCA3-DDF9-4C51-BD56-64EE3675A105";
paths = (
{
closed = 1;
nodes = (
"217 630 LINE SMOOTH",
"233 609 OFFCURVE",
"251 600 OFFCURVE",
"278 600 CURVE SMOOTH",
"314 600 LINE SMOOTH",
"341 600 OFFCURVE",
"359 609 OFFCURVE",
"375 630 CURVE SMOOTH",
"419 685 LINE SMOOTH",
"446 718 OFFCURVE",
"441 746 OFFCURVE",
"409 746 CURVE SMOOTH",
"384 746 OFFCURVE",
"366 739 OFFCURVE",
"347 723 CURVE SMOOTH",
"297 680 LINE",
"247 723 LINE SMOOTH",
"228 739 OFFCURVE",
"215 746 OFFCURVE",
"202 746 CURVE SMOOTH",
"160 746 OFFCURVE",
"146 718 OFFCURVE",
"173 685 CURVE SMOOTH"
);
},
{
closed = 1;
nodes = (
"545 468 OFFCURVE",
"389 525 OFFCURVE",
"302 525 CURVE SMOOTH",
"168 525 OFFCURVE",
"40 423 OFFCURVE",
"40 250 CURVE SMOOTH",
"40 102 OFFCURVE",
"158 -10 OFFCURVE",
"322 -10 CURVE SMOOTH",
"390 -10 OFFCURVE",
"461 16 OFFCURVE",
"497 45 CURVE SMOOTH",
"526 68 OFFCURVE",
"533 98 OFFCURVE",
"516 122 CURVE SMOOTH",
"498 147 OFFCURVE",
"469 150 OFFCURVE",
"440 135 CURVE SMOOTH",
"417 123 OFFCURVE",
"392 96 OFFCURVE",
"316 96 CURVE SMOOTH",
"244 96 OFFCURVE",
"183 158 OFFCURVE",
"167 208 CURVE",
"166 213 OFFCURVE",
"168 216 OFFCURVE",
"173 216 CURVE SMOOTH",
"499 216 LINE SMOOTH",
"534 216 OFFCURVE",
"563 242 OFFCURVE",
"560 279 CURVE SMOOTH"
);
},
{
closed = 1;
nodes = (
"178 315 LINE SMOOTH",
"174 315 OFFCURVE",
"171 318 OFFCURVE",
"171 322 CURVE",
"176 370 OFFCURVE",
"238 410 OFFCURVE",
"302 410 CURVE SMOOTH",
"366 410 OFFCURVE",
"427 370 OFFCURVE",
"432 322 CURVE",
"432 318 OFFCURVE",
"429 315 OFFCURVE",
"425 315 CURVE SMOOTH"
);
}
);
width = 600;
}
);
leftMetricsKey = "+10";
note = ecaron;
rightMetricsKey = "+10";
unicode = 011B;
},
{
glyphname = ecircumflex;
lastChange = "2016-07-18 23:35:35 +0000";
layers = (
{
components = (
{
name = e;
},
{
name = circumflexcomb;
transform = "{1, 0, 0, 1, 125, -11}";
}
);
layerId = "254266E2-2911-423D-9D37-8CC6105656EE";
width = 548;
},
{
layerId = "8816CCA3-DDF9-4C51-BD56-64EE3675A105";
paths = (
{
closed = 1;
nodes = (
"174 661 LINE SMOOTH",
"147 628 OFFCURVE",
"152 600 OFFCURVE",
"184 600 CURVE SMOOTH",
"209 600 OFFCURVE",
"227 607 OFFCURVE",
"246 623 CURVE SMOOTH",
"261 636 LINE SMOOTH",
"284 657 OFFCURVE",
"308 657 OFFCURVE",
"331 636 CURVE SMOOTH",
"346 623 LINE SMOOTH",
"365 607 OFFCURVE",
"383 600 OFFCURVE",
"408 600 CURVE SMOOTH",
"421 600 LINE SMOOTH",
"447 600 OFFCURVE",
"447 628 OFFCURVE",
"420 661 CURVE SMOOTH",
"376 717 LINE SMOOTH",
"360 737 OFFCURVE",
"342 746 OFFCURVE",
"315 746 CURVE SMOOTH",
"279 746 LINE SMOOTH",
"252 746 OFFCURVE",
"234 737 OFFCURVE",
"218 717 CURVE SMOOTH"
);
},
{
closed = 1;
nodes = (
"545 468 OFFCURVE",
"389 525 OFFCURVE",
"302 525 CURVE SMOOTH",
"168 525 OFFCURVE",
"40 423 OFFCURVE",
"40 250 CURVE SMOOTH",
"40 102 OFFCURVE",
"158 -10 OFFCURVE",
"322 -10 CURVE SMOOTH",
"390 -10 OFFCURVE",
"461 16 OFFCURVE",
"497 45 CURVE SMOOTH",
"526 68 OFFCURVE",
"533 98 OFFCURVE",
"516 122 CURVE SMOOTH",
"498 147 OFFCURVE",
"469 150 OFFCURVE",
"440 135 CURVE SMOOTH",
"417 123 OFFCURVE",
"392 96 OFFCURVE",
"316 96 CURVE SMOOTH",
"244 96 OFFCURVE",
"183 158 OFFCURVE",
"167 208 CURVE",
"166 213 OFFCURVE",
"168 216 OFFCURVE",
"173 216 CURVE SMOOTH",
"499 216 LINE SMOOTH",
"534 216 OFFCURVE",
"563 242 OFFCURVE",
"560 279 CURVE SMOOTH"
);
},
{
closed = 1;
nodes = (
"178 315 LINE SMOOTH",
"174 315 OFFCURVE",
"171 318 OFFCURVE",
"171 322 CURVE",
"176 370 OFFCURVE",
"238 410 OFFCURVE",
"302 410 CURVE SMOOTH",
"366 410 OFFCURVE",
"427 370 OFFCURVE",
"432 322 CURVE",
"432 318 OFFCURVE",
"429 315 OFFCURVE",
"425 315 CURVE SMOOTH"
);
}
);
width = 600;
}
);
leftMetricsKey = "+10";
note = ecircumflex;
rightMetricsKey = "+10";
unicode = 00EA;
},
{
glyphname = edieresis;
lastChange = "2016-07-18 23:35:35 +0000";
layers = (
{
components = (
{
name = e;
},
{
name = dieresiscomb;
transform = "{1, 0, 0, 1, 124, -1}";
}
);
layerId = "254266E2-2911-423D-9D37-8CC6105656EE";
width = 548;
},
{
layerId = "8816CCA3-DDF9-4C51-BD56-64EE3675A105";
paths = (
{
closed = 1;
nodes = (
"137 650 LINE SMOOTH",
"137 617 OFFCURVE",
"155 600 OFFCURVE",
"187 600 CURVE SMOOTH",
"210 600 LINE SMOOTH",
"243 600 OFFCURVE",
"260 617 OFFCURVE",
"260 650 CURVE SMOOTH",
"260 668 LINE SMOOTH",
"260 701 OFFCURVE",
"242 718 OFFCURVE",
"210 718 CURVE SMOOTH",
"187 718 LINE SMOOTH",
"155 718 OFFCURVE",
"137 700 OFFCURVE",
"137 668 CURVE SMOOTH"
);
},
{
closed = 1;
nodes = (
"336 650 LINE SMOOTH",
"336 617 OFFCURVE",
"354 600 OFFCURVE",
"386 600 CURVE SMOOTH",
"409 600 LINE SMOOTH",
"442 600 OFFCURVE",
"459 617 OFFCURVE",
"459 650 CURVE SMOOTH",
"459 668 LINE SMOOTH",
"459 701 OFFCURVE",
"441 718 OFFCURVE",
"409 718 CURVE SMOOTH",
"386 718 LINE SMOOTH",
"354 718 OFFCURVE",
"336 700 OFFCURVE",
"336 668 CURVE SMOOTH"
);
},
{
closed = 1;
nodes = (
"545 468 OFFCURVE",
"389 525 OFFCURVE",
"302 525 CURVE SMOOTH",
"168 525 OFFCURVE",
"40 423 OFFCURVE",
"40 250 CURVE SMOOTH",
"40 102 OFFCURVE",
"158 -10 OFFCURVE",
"322 -10 CURVE SMOOTH",
"390 -10 OFFCURVE",
"461 16 OFFCURVE",
"497 45 CURVE SMOOTH",
"526 68 OFFCURVE",
"533 98 OFFCURVE",
"516 122 CURVE SMOOTH",
"498 147 OFFCURVE",
"469 150 OFFCURVE",
"440 135 CURVE SMOOTH",
"417 123 OFFCURVE",
"392 96 OFFCURVE",
"316 96 CURVE SMOOTH",
"244 96 OFFCURVE",
"183 158 OFFCURVE",
"167 208 CURVE",
"166 213 OFFCURVE",
"168 216 OFFCURVE",
"173 216 CURVE SMOOTH",
"499 216 LINE SMOOTH",
"534 216 OFFCURVE",
"563 242 OFFCURVE",
"560 279 CURVE SMOOTH"
);
},
{
closed = 1;
nodes = (
"178 315 LINE SMOOTH",
"174 315 OFFCURVE",
"171 318 OFFCURVE",
"171 322 CURVE",
"176 370 OFFCURVE",
"238 410 OFFCURVE",
"302 410 CURVE SMOOTH",
"366 410 OFFCURVE",
"427 370 OFFCURVE",
"432 322 CURVE",
"432 318 OFFCURVE",
"429 315 OFFCURVE",
"425 315 CURVE SMOOTH"
);
}
);
width = 600;
}
);
leftMetricsKey = "+10";
note = edieresis;
rightMetricsKey = "+10";
unicode = 00EB;
},
{
glyphname = edotaccent;
lastChange = "2016-07-18 23:35:34 +0000";
layers = (
{
components = (
{
name = e;
},
{
name = dotaccentcomb;
transform = "{1, 0, 0, 1, 196, -1}";
}
);
layerId = "254266E2-2911-423D-9D37-8CC6105656EE";
width = 548;
},
{
layerId = "8816CCA3-DDF9-4C51-BD56-64EE3675A105";
paths = (
{
closed = 1;
nodes = (
"235 650 LINE SMOOTH",
"235 617 OFFCURVE",
"252 600 OFFCURVE",
"285 600 CURVE SMOOTH",
"311 600 LINE SMOOTH",
"344 600 OFFCURVE",
"361 618 OFFCURVE",
"361 650 CURVE SMOOTH",
"361 669 LINE SMOOTH",
"361 702 OFFCURVE",
"344 719 OFFCURVE",
"311 719 CURVE SMOOTH",
"285 719 LINE SMOOTH",
"253 719 OFFCURVE",
"235 701 OFFCURVE",
"235 669 CURVE SMOOTH"
);
},
{
closed = 1;
nodes = (
"545 468 OFFCURVE",
"389 525 OFFCURVE",
"302 525 CURVE SMOOTH",
"168 525 OFFCURVE",
"40 423 OFFCURVE",
"40 250 CURVE SMOOTH",
"40 102 OFFCURVE",
"158 -10 OFFCURVE",
"322 -10 CURVE SMOOTH",
"390 -10 OFFCURVE",
"461 16 OFFCURVE",
"497 45 CURVE SMOOTH",
"526 68 OFFCURVE",
"533 98 OFFCURVE",
"516 122 CURVE SMOOTH",
"498 147 OFFCURVE",
"469 150 OFFCURVE",
"440 135 CURVE SMOOTH",
"417 123 OFFCURVE",
"392 96 OFFCURVE",
"316 96 CURVE SMOOTH",
"244 96 OFFCURVE",
"183 158 OFFCURVE",
"167 208 CURVE",
"166 213 OFFCURVE",
"168 216 OFFCURVE",
"173 216 CURVE SMOOTH",
"499 216 LINE SMOOTH",
"534 216 OFFCURVE",
"563 242 OFFCURVE",
"560 279 CURVE SMOOTH"
);
},
{
closed = 1;
nodes = (
"178 315 LINE SMOOTH",
"174 315 OFFCURVE",
"171 318 OFFCURVE",
"171 322 CURVE",
"176 370 OFFCURVE",
"238 410 OFFCURVE",
"302 410 CURVE SMOOTH",
"366 410 OFFCURVE",
"427 370 OFFCURVE",
"432 322 CURVE",
"432 318 OFFCURVE",
"429 315 OFFCURVE",
"425 315 CURVE SMOOTH"
);
}
);
width = 600;
}
);
leftMetricsKey = "+10";
note = edotaccent;
rightMetricsKey = "+10";
unicode = 0117;
},
{
glyphname = egrave;
lastChange = "2016-07-18 23:35:35 +0000";
layers = (
{
components = (
{
name = e;
},
{
name = gravecomb;
transform = "{1, 0, 0, 1, 168, 0}";
}
);
layerId = "254266E2-2911-423D-9D37-8CC6105656EE";
width = 548;
},
{
layerId = "8816CCA3-DDF9-4C51-BD56-64EE3675A105";
paths = (
{
closed = 1;
nodes = (
"255 625 LINE SMOOTH",
"274 607 OFFCURVE",
"287 600 OFFCURVE",
"303 600 CURVE SMOOTH",
"344 600 OFFCURVE",
"358 626 OFFCURVE",
"336 660 CURVE SMOOTH",
"294 725 LINE SMOOTH",
"277 751 OFFCURVE",
"255 758 OFFCURVE",
"227 745 CURVE",
"217 741 LINE",
"182 725 OFFCURVE",
"177 698 OFFCURVE",
"205 672 CURVE SMOOTH"
);
},
{
closed = 1;
nodes = (
"545 468 OFFCURVE",
"389 525 OFFCURVE",
"302 525 CURVE SMOOTH",
"168 525 OFFCURVE",
"40 423 OFFCURVE",
"40 250 CURVE SMOOTH",
"40 102 OFFCURVE",
"158 -10 OFFCURVE",
"322 -10 CURVE SMOOTH",
"390 -10 OFFCURVE",
"461 16 OFFCURVE",
"497 45 CURVE SMOOTH",
"526 68 OFFCURVE",
"533 98 OFFCURVE",
"516 122 CURVE SMOOTH",
"498 147 OFFCURVE",
"469 150 OFFCURVE",
"440 135 CURVE SMOOTH",
"417 123 OFFCURVE",
"392 96 OFFCURVE",
"316 96 CURVE SMOOTH",
"244 96 OFFCURVE",
"183 158 OFFCURVE",
"167 208 CURVE",
"166 213 OFFCURVE",
"168 216 OFFCURVE",
"173 216 CURVE SMOOTH",
"499 216 LINE SMOOTH",
"534 216 OFFCURVE",
"563 242 OFFCURVE",
"560 279 CURVE SMOOTH"
);
},
{
closed = 1;
nodes = (
"178 315 LINE SMOOTH",
"174 315 OFFCURVE",
"171 318 OFFCURVE",
"171 322 CURVE",
"176 370 OFFCURVE",
"238 410 OFFCURVE",
"302 410 CURVE SMOOTH",
"366 410 OFFCURVE",
"427 370 OFFCURVE",
"432 322 CURVE",
"432 318 OFFCURVE",
"429 315 OFFCURVE",
"425 315 CURVE SMOOTH"
);
}
);
width = 600;
}
);
leftMetricsKey = "+10";
note = egrave;
rightMetricsKey = "+10";
unicode = 00E8;
},
{
glyphname = emacron;
lastChange = "2016-07-18 23:35:35 +0000";
layers = (
{
components = (
{
name = e;
},
{
name = macroncomb;
transform = "{1, 0, 0, 1, 92, 39}";
}
);
layerId = "254266E2-2911-423D-9D37-8CC6105656EE";
width = 548;
},
{
layerId = "8816CCA3-DDF9-4C51-BD56-64EE3675A105";
paths = (
{
closed = 1;
nodes = (
"127 616 OFFCURVE",
"145 600 OFFCURVE",
"177 600 CURVE SMOOTH",
"419 600 LINE SMOOTH",
"452 600 OFFCURVE",
"469 616 OFFCURVE",
"469 645 CURVE SMOOTH",
"469 673 OFFCURVE",
"451 689 OFFCURVE",
"419 689 CURVE SMOOTH",
"177 689 LINE SMOOTH",
"145 689 OFFCURVE",
"127 673 OFFCURVE",
"127 645 CURVE SMOOTH"
);
},
{
closed = 1;
nodes = (
"545 468 OFFCURVE",
"389 525 OFFCURVE",
"302 525 CURVE SMOOTH",
"168 525 OFFCURVE",
"40 423 OFFCURVE",
"40 250 CURVE SMOOTH",
"40 102 OFFCURVE",
"158 -10 OFFCURVE",
"322 -10 CURVE SMOOTH",
"390 -10 OFFCURVE",
"461 16 OFFCURVE",
"497 45 CURVE SMOOTH",
"526 68 OFFCURVE",
"533 98 OFFCURVE",
"516 122 CURVE SMOOTH",
"498 147 OFFCURVE",
"469 150 OFFCURVE",
"440 135 CURVE SMOOTH",
"417 123 OFFCURVE",
"392 96 OFFCURVE",
"316 96 CURVE SMOOTH",
"244 96 OFFCURVE",
"183 158 OFFCURVE",
"167 208 CURVE",
"166 213 OFFCURVE",
"168 216 OFFCURVE",
"173 216 CURVE SMOOTH",
"499 216 LINE SMOOTH",
"534 216 OFFCURVE",
"563 242 OFFCURVE",
"560 279 CURVE SMOOTH"
);
},
{
closed = 1;
nodes = (
"178 315 LINE SMOOTH",
"174 315 OFFCURVE",
"171 318 OFFCURVE",
"171 322 CURVE",
"176 370 OFFCURVE",
"238 410 OFFCURVE",
"302 410 CURVE SMOOTH",
"366 410 OFFCURVE",
"427 370 OFFCURVE",
"432 322 CURVE",
"432 318 OFFCURVE",
"429 315 OFFCURVE",
"425 315 CURVE SMOOTH"
);
}
);
width = 600;
}
);
leftMetricsKey = "+10";
note = emacron;
rightMetricsKey = "+10";
unicode = 0113;
},
{
glyphname = eogonek;
lastChange = "2016-07-18 23:02:28 +0000";
layers = (
{
anchors = (
{
name = _ogonek;
position = "{493, 10}";
},
{
name = bottom;
position = "{274, 0}";
},
{
name = ogonek;
position = "{493, 10}";
},
{
name = top;
position = "{273, 499}";
}
);
layerId = "254266E2-2911-423D-9D37-8CC6105656EE";
paths = (
{
closed = 1;
nodes = (
"339 -10 OFFCURVE",
"373 -1 OFFCURVE",
"401 14 CURVE",
"400 12 OFFCURVE",
"399 22 OFFCURVE",
"397 20 CURVE",
"355 -7 OFFCURVE",
"328 -46 OFFCURVE",
"328 -93 CURVE",
"328 -149 OFFCURVE",
"376 -185 OFFCURVE",
"420 -185 CURVE",
"448 -185 OFFCURVE",
"472 -168 OFFCURVE",
"484 -155 CURVE",
"490 -149 OFFCURVE",
"493 -142 OFFCURVE",
"493 -136 CURVE",
"493 -127 OFFCURVE",
"488 -122 OFFCURVE",
"478 -122 CURVE",
"461 -122 OFFCURVE",
"463 -148 OFFCURVE",
"425 -148 CURVE",
"390 -148 OFFCURVE",
"366 -122 OFFCURVE",
"366 -87 CURVE",
"366 -17 OFFCURVE",
"434 16 OFFCURVE",
"491 90 CURVE",
"494 94 OFFCURVE",
"495 98 OFFCURVE",
"495 102 CURVE",
"495 111 OFFCURVE",
"487 120 OFFCURVE",
"478 120 CURVE",
"471 120 OFFCURVE",
"466 117 OFFCURVE",
"461 111 CURVE",
"431 66 OFFCURVE",
"371 28 OFFCURVE",
"304 28 CURVE",
"162 28 OFFCURVE",
"87 131 OFFCURVE",
"87 253 CURVE",
"87 266 LINE",
"480 266 LINE",
"491 266 OFFCURVE",
"500 276 OFFCURVE",
"500 287 CURVE",
"495 443 OFFCURVE",
"387 515 OFFCURVE",
"274 515 CURVE",
"158 515 OFFCURVE",
"48 417 OFFCURVE",
"48 250 CURVE",
"48 92 OFFCURVE",
"154 -10 OFFCURVE",
"304 -10 CURVE"
);
},
{
closed = 1;
nodes = (
"359 475 OFFCURVE",
"448 419 OFFCURVE",
"459 313 CURVE",
"459 304 LINE",
"91 304 LINE",
"112 419 OFFCURVE",
"203 475 OFFCURVE",
"274 475 CURVE"
);
}
);
width = 548;
},
{
layerId = "8816CCA3-DDF9-4C51-BD56-64EE3675A105";
paths = (
{
closed = 1;
nodes = (
"499 216 LINE SMOOTH",
"534 216 OFFCURVE",
"563 242 OFFCURVE",
"560 279 CURVE SMOOTH",
"545 468 OFFCURVE",
"389 525 OFFCURVE",
"302 525 CURVE SMOOTH",
"168 525 OFFCURVE",
"40 423 OFFCURVE",
"40 250 CURVE SMOOTH",
"40 125 OFFCURVE",
"124 26 OFFCURVE",
"249 -2 CURVE",
"227 -25 OFFCURVE",
"212 -56 OFFCURVE",
"212 -95 CURVE SMOOTH",
"212 -189 OFFCURVE",
"314 -232 OFFCURVE",
"407 -192 CURVE SMOOTH",
"428 -183 OFFCURVE",
"433 -164 OFFCURVE",
"425 -147 CURVE SMOOTH",
"417 -130 OFFCURVE",
"400 -126 OFFCURVE",
"382 -134 CURVE SMOOTH",
"346 -150 OFFCURVE",
"312 -126 OFFCURVE",
"306 -96 CURVE SMOOTH",
"301 -69 OFFCURVE",
"305 -40 OFFCURVE",
"346 -9 CURVE",
"406 -4 OFFCURVE",
"465 19 OFFCURVE",
"497 45 CURVE SMOOTH",
"526 68 OFFCURVE",
"533 98 OFFCURVE",
"516 122 CURVE SMOOTH",
"498 147 OFFCURVE",
"469 150 OFFCURVE",
"440 135 CURVE SMOOTH",
"417 123 OFFCURVE",
"392 96 OFFCURVE",
"316 96 CURVE SMOOTH",
"244 96 OFFCURVE",
"183 158 OFFCURVE",
"167 208 CURVE",
"166 213 OFFCURVE",
"168 216 OFFCURVE",
"173 216 CURVE SMOOTH"
);
},
{
closed = 1;
nodes = (
"366 410 OFFCURVE",
"427 370 OFFCURVE",
"432 322 CURVE",
"432 318 OFFCURVE",
"429 315 OFFCURVE",
"425 315 CURVE SMOOTH",
"178 315 LINE SMOOTH",
"174 315 OFFCURVE",
"171 318 OFFCURVE",
"171 322 CURVE",
"176 370 OFFCURVE",
"238 410 OFFCURVE",
"302 410 CURVE SMOOTH"
);
}
);
width = 595;
}
);
leftMetricsKey = e;
note = eogonek;
rightMetricsKey = e;
unicode = 0119;
},
{
glyphname = f;
lastChange = "2016-07-14 20:24:46 +0000";
layers = (
{
anchors = (
{
name = bottom;
position = "{166, 0}";
},
{
name = top;
position = "{166, 499}";
}
);
layerId = "254266E2-2911-423D-9D37-8CC6105656EE";
paths = (
{
closed = 1;
nodes = (
"177 735 OFFCURVE",
"127 697 OFFCURVE",
"127 615 CURVE SMOOTH",
"127 20 LINE SMOOTH",
"127 9 OFFCURVE",
"135 0 OFFCURVE",
"147 0 CURVE SMOOTH",
"158 0 OFFCURVE",
"167 9 OFFCURVE",
"167 20 CURVE SMOOTH",
"167 615 LINE SMOOTH",
"167 673 OFFCURVE",
"195 699 OFFCURVE",
"235 699 CURVE SMOOTH",
"257 699 OFFCURVE",
"276 687 OFFCURVE",
"290 687 CURVE SMOOTH",
"300 687 OFFCURVE",
"309 697 OFFCURVE",
"309 707 CURVE SMOOTH",
"309 730 OFFCURVE",
"262 735 OFFCURVE",
"239 735 CURVE SMOOTH"
);
},
{
closed = 1;
nodes = (
"47 493 LINE SMOOTH",
"37 493 OFFCURVE",
"28 486 OFFCURVE",
"28 474 CURVE SMOOTH",
"28 464 OFFCURVE",
"37 455 OFFCURVE",
"47 455 CURVE SMOOTH",
"285 455 LINE SMOOTH",
"295 455 OFFCURVE",
"304 463 OFFCURVE",
"304 474 CURVE SMOOTH",
"304 485 OFFCURVE",
"295 493 OFFCURVE",
"285 493 CURVE SMOOTH"
);
}
);
width = 332;
},
{
layerId = "8816CCA3-DDF9-4C51-BD56-64EE3675A105";
paths = (
{
closed = 1;
nodes = (
"206 740 OFFCURVE",
"140 666 OFFCURVE",
"140 571 CURVE SMOOTH",
"140 61 LINE SMOOTH",
"140 26 OFFCURVE",
"165 0 OFFCURVE",
"200 0 CURVE SMOOTH",
"235 0 OFFCURVE",
"260 26 OFFCURVE",
"260 61 CURVE SMOOTH",
"260 572 LINE SMOOTH",
"260 594 OFFCURVE",
"271 634 OFFCURVE",
"322 634 CURVE SMOOTH",
"345 634 OFFCURVE",
"372 625 OFFCURVE",
"384 625 CURVE SMOOTH",
"409 625 OFFCURVE",
"432 646 OFFCURVE",
"432 679 CURVE SMOOTH",
"432 723 OFFCURVE",
"384 740 OFFCURVE",
"340 740 CURVE SMOOTH"
);
},
{
closed = 1;
nodes = (
"86 525 LINE SMOOTH",
"54 525 OFFCURVE",
"30 502 OFFCURVE",
"30 470 CURVE SMOOTH",
"30 438 OFFCURVE",
"54 415 OFFCURVE",
"86 415 CURVE SMOOTH",
"351 415 LINE SMOOTH",
"383 415 OFFCURVE",
"407 438 OFFCURVE",
"407 470 CURVE SMOOTH",
"407 502 OFFCURVE",
"383 525 OFFCURVE",
"351 525 CURVE SMOOTH"
);
}
);
width = 417;
}
);
leftKerningGroup = f;
note = f;
rightKerningGroup = f;
unicode = 0066;
},
{
glyphname = g;
lastChange = "2016-07-15 14:28:35 +0000";
layers = (
{
anchors = (
{
name = bottom;
position = "{308, 0}";
},
{
name = top;
position = "{308, 499}";
}
);
layerId = "254266E2-2911-423D-9D37-8CC6105656EE";
paths = (
{
closed = 1;
nodes = (
"152 515 OFFCURVE",
"48 403 OFFCURVE",
"48 253 CURVE",
"48 103 OFFCURVE",
"152 -10 OFFCURVE",
"290 -10 CURVE",
"371 -10 OFFCURVE",
"471 33 OFFCURVE",
"502 147 CURVE",
"492 148 LINE",
"492 49 LINE",
"492 -77 OFFCURVE",
"414 -162 OFFCURVE",
"288 -162 CURVE",
"234 -162 OFFCURVE",
"194 -149 OFFCURVE",
"177 -142 CURVE",
"148 -130 OFFCURVE",
"141 -111 OFFCURVE",
"128 -111 CURVE",
"117 -111 OFFCURVE",
"111 -119 OFFCURVE",
"111 -129 CURVE",
"111 -165 OFFCURVE",
"206 -200 OFFCURVE",
"286 -200 CURVE",
"431 -200 OFFCURVE",
"532 -105 OFFCURVE",
"532 49 CURVE",
"532 479 LINE",
"532 490 OFFCURVE",
"524 499 OFFCURVE",
"512 499 CURVE",
"500 499 OFFCURVE",
"492 490 OFFCURVE",
"492 479 CURVE",
"492 379 LINE",
"505 342 LINE",
"505 418 OFFCURVE",
"410 515 OFFCURVE",
"290 515 CURVE"
);
},
{
closed = 1;
nodes = (
"408 477 OFFCURVE",
"496 387 OFFCURVE",
"496 253 CURVE",
"496 119 OFFCURVE",
"408 28 OFFCURVE",
"292 28 CURVE",
"175 28 OFFCURVE",
"88 124 OFFCURVE",
"88 253 CURVE",
"88 382 OFFCURVE",
"175 477 OFFCURVE",
"292 477 CURVE"
);
}
);
width = 615;
},
{
layerId = "8816CCA3-DDF9-4C51-BD56-64EE3675A105";
paths = (
{
closed = 1;
nodes = (
"144 545 OFFCURVE",
"35 431 OFFCURVE",
"35 267 CURVE",
"35 104 OFFCURVE",
"144 -10 OFFCURVE",
"286 -10 CURVE",
"383 -10 OFFCURVE",
"460 67 OFFCURVE",
"460 101 CURVE",
"448 110 LINE",
"448 23 LINE",
"448 -48 OFFCURVE",
"401 -90 OFFCURVE",
"301 -90 CURVE",
"259 -90 OFFCURVE",
"188 -61 OFFCURVE",
"169 -54 CURVE",
"140 -44 OFFCURVE",
"110 -57 OFFCURVE",
"98 -96 CURVE",
"89 -126 OFFCURVE",
"104 -153 OFFCURVE",
"144 -170 CURVE",
"173 -183 OFFCURVE",
"260 -200 OFFCURVE",
"301 -200 CURVE",
"441 -200 OFFCURVE",
"568 -135 OFFCURVE",
"568 39 CURVE",
"568 484 LINE",
"568 520 OFFCURVE",
"543 545 OFFCURVE",
"508 545 CURVE",
"473 545 OFFCURVE",
"448 519 OFFCURVE",
"448 484 CURVE",
"448 411 LINE",
"474 424 LINE",
"474 462 OFFCURVE",
"393 545 OFFCURVE",
"282 545 CURVE"
);
},
{
closed = 1;
nodes = (
"392 435 OFFCURVE",
"453 362 OFFCURVE",
"453 267 CURVE",
"453 172 OFFCURVE",
"392 100 OFFCURVE",
"301 100 CURVE",
"211 100 OFFCURVE",
"150 172 OFFCURVE",
"150 267 CURVE",
"150 362 OFFCURVE",
"211 435 OFFCURVE",
"301 435 CURVE"
);
}
);
width = 633;
}
);
leftKerningGroup = g;
leftMetricsKey = o;
note = g;
rightKerningGroup = g;
rightMetricsKey = n;
unicode = 0067;
},
{
glyphname = gbreve;
lastChange = "2016-07-16 20:27:58 +0000";
layers = (
{
components = (
{
name = g;
},
{
name = brevecomb;
transform = "{1, 0, 0, 1, 127, 43}";
}
);
layerId = "254266E2-2911-423D-9D37-8CC6105656EE";
width = 615;
},
{
layerId = "8816CCA3-DDF9-4C51-BD56-64EE3675A105";
paths = (
{
closed = 1;
nodes = (
"394 600 OFFCURVE",
"452 634 OFFCURVE",
"477 695 CURVE SMOOTH",
"490 727 OFFCURVE",
"473 748 OFFCURVE",
"447 748 CURVE SMOOTH",
"419 748 OFFCURVE",
"405 735 OFFCURVE",
"387 712 CURVE",
"372 695 OFFCURVE",
"351 685 OFFCURVE",
"318 685 CURVE SMOOTH",
"285 685 OFFCURVE",
"264 695 OFFCURVE",
"249 712 CURVE",
"231 735 OFFCURVE",
"217 748 OFFCURVE",
"189 748 CURVE SMOOTH",
"163 748 OFFCURVE",
"146 726 OFFCURVE",
"160 693 CURVE SMOOTH",
"184 633 OFFCURVE",
"243 600 OFFCURVE",
"318 600 CURVE SMOOTH"
);
},
{
closed = 1;
nodes = (
"443 450 OFFCURVE",
"440 449 OFFCURVE",
"438 454 CURVE SMOOTH",
"425 487 OFFCURVE",
"367 525 OFFCURVE",
"296 525 CURVE SMOOTH",
"147 525 OFFCURVE",
"40 415 OFFCURVE",
"40 258 CURVE SMOOTH",
"40 100 OFFCURVE",
"147 -10 OFFCURVE",
"296 -10 CURVE SMOOTH",
"367 -10 OFFCURVE",
"420 30 OFFCURVE",
"437 61 CURVE",
"440 65 OFFCURVE",
"443 64 OFFCURVE",
"443 59 CURVE SMOOTH",
"443 33 LINE SMOOTH",
"443 -38 OFFCURVE",
"385 -80 OFFCURVE",
"306 -80 CURVE SMOOTH",
"260 -80 OFFCURVE",
"225 -71 OFFCURVE",
"204 -64 CURVE SMOOTH",
"175 -54 OFFCURVE",
"145 -67 OFFCURVE",
"133 -106 CURVE SMOOTH",
"124 -136 OFFCURVE",
"139 -163 OFFCURVE",
"179 -180 CURVE SMOOTH",
"210 -193 OFFCURVE",
"263 -200 OFFCURVE",
"306 -200 CURVE SMOOTH",
"429 -200 OFFCURVE",
"563 -125 OFFCURVE",
"563 49 CURVE SMOOTH",
"563 454 LINE SMOOTH",
"563 489 OFFCURVE",
"538 515 OFFCURVE",
"503 515 CURVE SMOOTH",
"468 515 OFFCURVE",
"443 489 OFFCURVE",
"443 454 CURVE SMOOTH"
);
},
{
closed = 1;
nodes = (
"216 110 OFFCURVE",
"155 174 OFFCURVE",
"155 258 CURVE SMOOTH",
"155 341 OFFCURVE",
"216 405 OFFCURVE",
"306 405 CURVE SMOOTH",
"397 405 OFFCURVE",
"458 341 OFFCURVE",
"458 258 CURVE SMOOTH",
"458 174 OFFCURVE",
"397 110 OFFCURVE",
"306 110 CURVE SMOOTH"
);
}
);
width = 638;
}
);
leftMetricsKey = "+10";
note = gbreve;
rightMetricsKey = "+10";
unicode = 011F;
},
{
glyphname = gcommaaccent;
lastChange = "2016-07-18 22:52:00 +0000";
layers = (
{
components = (
{
name = commaaccent;
transform = "{-1, 0, 0, -1, 450, 517}";
}
);
layerId = "254266E2-2911-423D-9D37-8CC6105656EE";
paths = (
{
closed = 1;
nodes = (
"512 414 LINE SMOOTH",
"512 409 OFFCURVE",
"509 408 OFFCURVE",
"506 412 CURVE",
"460 480 OFFCURVE",
"385 525 OFFCURVE",
"300 525 CURVE SMOOTH",
"161 525 OFFCURVE",
"48 406 OFFCURVE",
"48 258 CURVE SMOOTH",
"48 110 OFFCURVE",
"161 -10 OFFCURVE",
"300 -10 CURVE SMOOTH",
"385 -10 OFFCURVE",
"460 35 OFFCURVE",
"506 104 CURVE",
"509 108 OFFCURVE",
"512 107 OFFCURVE",
"512 102 CURVE SMOOTH",
"512 49 LINE SMOOTH",
"512 -77 OFFCURVE",
"434 -162 OFFCURVE",
"308 -162 CURVE SMOOTH",
"241 -162 OFFCURVE",
"182 -137 OFFCURVE",
"159 -126 CURVE SMOOTH",
"149 -121 OFFCURVE",
"138 -125 OFFCURVE",
"133 -135 CURVE",
"128 -146 OFFCURVE",
"134 -156 OFFCURVE",
"144 -162 CURVE SMOOTH",
"175 -180 OFFCURVE",
"234 -200 OFFCURVE",
"306 -200 CURVE SMOOTH",
"451 -200 OFFCURVE",
"552 -105 OFFCURVE",
"552 49 CURVE SMOOTH",
"552 495 LINE SMOOTH",
"552 506 OFFCURVE",
"544 515 OFFCURVE",
"532 515 CURVE SMOOTH",
"520 515 OFFCURVE",
"512 506 OFFCURVE",
"512 495 CURVE SMOOTH"
);
},
{
closed = 1;
nodes = (
"184 30 OFFCURVE",
"88 132 OFFCURVE",
"88 258 CURVE SMOOTH",
"88 384 OFFCURVE",
"184 485 OFFCURVE",
"300 485 CURVE SMOOTH",
"416 485 OFFCURVE",
"512 384 OFFCURVE",
"512 258 CURVE SMOOTH",
"512 132 OFFCURVE",
"416 30 OFFCURVE",
"300 30 CURVE SMOOTH"
);
}
);
width = 635;
},
{
layerId = "8816CCA3-DDF9-4C51-BD56-64EE3675A105";
paths = (
{
closed = 1;
nodes = (
"376 866 OFFCURVE",
"350 876 OFFCURVE",
"319 866 CURVE SMOOTH",
"254 846 OFFCURVE",
"220 799 OFFCURVE",
"220 710 CURVE SMOOTH",
"220 655 LINE SMOOTH",
"220 620 OFFCURVE",
"246 594 OFFCURVE",
"281 594 CURVE SMOOTH",
"292 594 LINE SMOOTH",
"327 594 OFFCURVE",
"353 620 OFFCURVE",
"353 655 CURVE SMOOTH",
"353 670 LINE SMOOTH",
"353 705 OFFCURVE",
"332 731 OFFCURVE",
"302 731 CURVE",
"299 766 OFFCURVE",
"311 791 OFFCURVE",
"339 808 CURVE SMOOTH",
"365 824 OFFCURVE",
"384 835 OFFCURVE",
"380 851 CURVE SMOOTH"
);
},
{
closed = 1;
nodes = (
"443 450 OFFCURVE",
"440 449 OFFCURVE",
"438 454 CURVE SMOOTH",
"425 487 OFFCURVE",
"367 525 OFFCURVE",
"296 525 CURVE SMOOTH",
"147 525 OFFCURVE",
"40 415 OFFCURVE",
"40 258 CURVE SMOOTH",
"40 100 OFFCURVE",
"147 -10 OFFCURVE",
"296 -10 CURVE SMOOTH",
"367 -10 OFFCURVE",
"420 30 OFFCURVE",
"437 61 CURVE",
"440 65 OFFCURVE",
"443 64 OFFCURVE",
"443 59 CURVE SMOOTH",
"443 33 LINE SMOOTH",
"443 -38 OFFCURVE",
"385 -80 OFFCURVE",
"306 -80 CURVE SMOOTH",
"260 -80 OFFCURVE",
"225 -71 OFFCURVE",
"204 -64 CURVE SMOOTH",
"175 -54 OFFCURVE",
"145 -67 OFFCURVE",
"133 -106 CURVE SMOOTH",
"124 -136 OFFCURVE",
"139 -163 OFFCURVE",
"179 -180 CURVE SMOOTH",
"210 -193 OFFCURVE",
"263 -200 OFFCURVE",
"306 -200 CURVE SMOOTH",
"429 -200 OFFCURVE",
"563 -125 OFFCURVE",
"563 49 CURVE SMOOTH",
"563 454 LINE SMOOTH",
"563 489 OFFCURVE",
"538 515 OFFCURVE",
"503 515 CURVE SMOOTH",
"468 515 OFFCURVE",
"443 489 OFFCURVE",
"443 454 CURVE SMOOTH"
);
},
{
closed = 1;
nodes = (
"216 110 OFFCURVE",
"155 174 OFFCURVE",
"155 258 CURVE SMOOTH",
"155 341 OFFCURVE",
"216 405 OFFCURVE",
"306 405 CURVE SMOOTH",
"397 405 OFFCURVE",
"458 341 OFFCURVE",
"458 258 CURVE SMOOTH",
"458 174 OFFCURVE",
"397 110 OFFCURVE",
"306 110 CURVE SMOOTH"
);
}
);
width = 638;
}
);
leftMetricsKey = g;
note = gcommaaccent;
rightMetricsKey = g;
unicode = 0123;
},
{
glyphname = gdotaccent;
lastChange = "2016-07-18 22:27:04 +0000";
layers = (
{
components = (
{
name = g;
},
{
name = dotaccentcomb;
transform = "{1, 0, 0, 1, 223, -1}";
}
);
layerId = "254266E2-2911-423D-9D37-8CC6105656EE";
width = 615;
},
{
layerId = "8816CCA3-DDF9-4C51-BD56-64EE3675A105";
paths = (
{
closed = 1;
nodes = (
"255 650 LINE SMOOTH",
"255 617 OFFCURVE",
"272 600 OFFCURVE",
"305 600 CURVE SMOOTH",
"331 600 LINE SMOOTH",
"364 600 OFFCURVE",
"381 618 OFFCURVE",
"381 650 CURVE SMOOTH",
"381 669 LINE SMOOTH",
"381 702 OFFCURVE",
"364 719 OFFCURVE",
"331 719 CURVE SMOOTH",
"305 719 LINE SMOOTH",
"273 719 OFFCURVE",
"255 701 OFFCURVE",
"255 669 CURVE SMOOTH"
);
},
{
closed = 1;
nodes = (
"443 450 OFFCURVE",
"440 449 OFFCURVE",
"438 454 CURVE SMOOTH",
"425 487 OFFCURVE",
"367 525 OFFCURVE",
"296 525 CURVE SMOOTH",
"147 525 OFFCURVE",
"40 415 OFFCURVE",
"40 258 CURVE SMOOTH",
"40 100 OFFCURVE",
"147 -10 OFFCURVE",
"296 -10 CURVE SMOOTH",
"367 -10 OFFCURVE",
"420 30 OFFCURVE",
"437 61 CURVE",
"440 65 OFFCURVE",
"443 64 OFFCURVE",
"443 59 CURVE SMOOTH",
"443 33 LINE SMOOTH",
"443 -38 OFFCURVE",
"385 -80 OFFCURVE",
"306 -80 CURVE SMOOTH",
"260 -80 OFFCURVE",
"225 -71 OFFCURVE",
"204 -64 CURVE SMOOTH",
"175 -54 OFFCURVE",
"145 -67 OFFCURVE",
"133 -106 CURVE SMOOTH",
"124 -136 OFFCURVE",
"139 -163 OFFCURVE",
"179 -180 CURVE SMOOTH",
"210 -193 OFFCURVE",
"263 -200 OFFCURVE",
"306 -200 CURVE SMOOTH",
"429 -200 OFFCURVE",
"563 -125 OFFCURVE",
"563 49 CURVE SMOOTH",
"563 454 LINE SMOOTH",
"563 489 OFFCURVE",
"538 515 OFFCURVE",
"503 515 CURVE SMOOTH",
"468 515 OFFCURVE",
"443 489 OFFCURVE",
"443 454 CURVE SMOOTH"
);
},
{
closed = 1;
nodes = (
"216 110 OFFCURVE",
"155 174 OFFCURVE",
"155 258 CURVE SMOOTH",
"155 341 OFFCURVE",
"216 405 OFFCURVE",
"306 405 CURVE SMOOTH",
"397 405 OFFCURVE",
"458 341 OFFCURVE",
"458 258 CURVE SMOOTH",
"458 174 OFFCURVE",
"397 110 OFFCURVE",
"306 110 CURVE SMOOTH"
);
}
);
width = 638;
}
);
leftMetricsKey = "+10";
note = gdotaccent;
rightMetricsKey = "+10";
unicode = 0121;
},
{
glyphname = h;
lastChange = "2016-07-14 20:24:46 +0000";
layers = (
{
anchors = (
{
name = bottom;
position = "{281, 0}";
},
{
name = center;
position = "{281, 250}";
},
{
name = top;
position = "{281, 499}";
}
);
background = {
paths = (
{
closed = 1;
nodes = (
"214 525 OFFCURVE",
"144 478 OFFCURVE",
"126 442 CURVE",
"124 437 OFFCURVE",
"120 440 OFFCURVE",
"120 444 CURVE SMOOTH",
"120 720 LINE SMOOTH",
"120 731 OFFCURVE",
"112 740 OFFCURVE",
"100 740 CURVE SMOOTH",
"89 740 OFFCURVE",
"80 731 OFFCURVE",
"80 720 CURVE SMOOTH",
"80 20 LINE SMOOTH",
"80 9 OFFCURVE",
"88 0 OFFCURVE",
"100 0 CURVE SMOOTH",
"111 0 OFFCURVE",
"120 9 OFFCURVE",
"120 20 CURVE SMOOTH",
"120 332 LINE SMOOTH",
"120 416 OFFCURVE",
"209 485 OFFCURVE",
"293 485 CURVE SMOOTH",
"388 485 OFFCURVE",
"426 416 OFFCURVE",
"426 332 CURVE SMOOTH",
"426 20 LINE SMOOTH",
"426 9 OFFCURVE",
"434 0 OFFCURVE",
"446 0 CURVE SMOOTH",
"457 0 OFFCURVE",
"466 9 OFFCURVE",
"466 20 CURVE SMOOTH",
"466 332 LINE SMOOTH",
"466 438 OFFCURVE",
"410 525 OFFCURVE",
"293 525 CURVE SMOOTH"
);
}
);
};
layerId = "254266E2-2911-423D-9D37-8CC6105656EE";
paths = (
{
closed = 1;
nodes = (
"204 505 OFFCURVE",
"98 420 OFFCURVE",
"98 323 CURVE",
"123 371 LINE",
"123 720 LINE",
"123 731 OFFCURVE",
"115 740 OFFCURVE",
"103 740 CURVE",
"92 740 OFFCURVE",
"83 731 OFFCURVE",
"83 720 CURVE",
"83 20 LINE",
"83 9 OFFCURVE",
"91 0 OFFCURVE",
"103 0 CURVE",
"114 0 OFFCURVE",
"123 9 OFFCURVE",
"123 20 CURVE",
"123 312 LINE",
"123 397 OFFCURVE",
"215 467 OFFCURVE",
"301 467 CURVE",
"400 467 OFFCURVE",
"439 397 OFFCURVE",
"439 312 CURVE",
"439 20 LINE",
"439 9 OFFCURVE",
"447 0 OFFCURVE",
"459 0 CURVE",
"470 0 OFFCURVE",
"479 9 OFFCURVE",
"479 20 CURVE",
"479 312 LINE",
"479 418 OFFCURVE",
"421 505 OFFCURVE",
"301 505 CURVE"
);
}
);
width = 562;
},
{
layerId = "8816CCA3-DDF9-4C51-BD56-64EE3675A105";
paths = (
{
closed = 1;
nodes = (
"258 545 OFFCURVE",
"194 480 OFFCURVE",
"170 434 CURVE",
"185 431 LINE",
"185 679 LINE",
"185 714 OFFCURVE",
"160 740 OFFCURVE",
"125 740 CURVE",
"90 740 OFFCURVE",
"65 714 OFFCURVE",
"65 679 CURVE",
"65 61 LINE",
"65 26 OFFCURVE",
"90 0 OFFCURVE",
"125 0 CURVE",
"160 0 OFFCURVE",
"185 26 OFFCURVE",
"185 61 CURVE",
"185 317 LINE",
"185 382 OFFCURVE",
"227 435 OFFCURVE",
"304 435 CURVE",
"381 435 OFFCURVE",
"401 382 OFFCURVE",
"401 317 CURVE",
"401 61 LINE",
"401 26 OFFCURVE",
"426 0 OFFCURVE",
"461 0 CURVE",
"496 0 OFFCURVE",
"521 26 OFFCURVE",
"521 61 CURVE",
"521 317 LINE",
"521 442 OFFCURVE",
"489 545 OFFCURVE",
"346 545 CURVE"
);
}
);
width = 586;
}
);
leftKerningGroup = b;
leftMetricsKey = n;
note = h;
rightKerningGroup = h;
rightMetricsKey = n;
unicode = 0068;
},
{
glyphname = hbar;
lastChange = "2016-07-12 18:06:06 +0000";
layers = (
{
layerId = "254266E2-2911-423D-9D37-8CC6105656EE";
paths = (
{
closed = 1;
nodes = (
"202 600 LINE SMOOTH",
"202 603 OFFCURVE",
"204 605 OFFCURVE",
"207 605 CURVE SMOOTH",
"356 605 LINE SMOOTH",
"367 605 OFFCURVE",
"376 613 OFFCURVE",
"376 625 CURVE SMOOTH",
"376 636 OFFCURVE",
"367 645 OFFCURVE",
"356 645 CURVE SMOOTH",
"207 645 LINE SMOOTH",
"204 645 OFFCURVE",
"202 647 OFFCURVE",
"202 650 CURVE SMOOTH",
"202 720 LINE SMOOTH",
"202 731 OFFCURVE",
"194 740 OFFCURVE",
"182 740 CURVE SMOOTH",
"171 740 OFFCURVE",
"162 731 OFFCURVE",
"162 720 CURVE SMOOTH",
"162 650 LINE SMOOTH",
"162 647 OFFCURVE",
"160 645 OFFCURVE",
"157 645 CURVE SMOOTH",
"73 645 LINE SMOOTH",
"62 645 OFFCURVE",
"53 637 OFFCURVE",
"53 625 CURVE SMOOTH",
"53 614 OFFCURVE",
"62 605 OFFCURVE",
"73 605 CURVE SMOOTH",
"157 605 LINE SMOOTH",
"160 605 OFFCURVE",
"162 603 OFFCURVE",
"162 600 CURVE SMOOTH",
"162 20 LINE SMOOTH",
"162 9 OFFCURVE",
"170 0 OFFCURVE",
"182 0 CURVE SMOOTH",
"193 0 OFFCURVE",
"202 9 OFFCURVE",
"202 20 CURVE SMOOTH",
"202 307 LINE SMOOTH",
"202 391 OFFCURVE",
"271 460 OFFCURVE",
"355 460 CURVE SMOOTH",
"440 460 OFFCURVE",
"508 391 OFFCURVE",
"508 307 CURVE SMOOTH",
"508 20 LINE SMOOTH",
"508 9 OFFCURVE",
"516 0 OFFCURVE",
"528 0 CURVE SMOOTH",
"539 0 OFFCURVE",
"548 9 OFFCURVE",
"548 20 CURVE SMOOTH",
"548 307 LINE SMOOTH",
"548 413 OFFCURVE",
"462 500 OFFCURVE",
"355 500 CURVE SMOOTH",
"276 500 OFFCURVE",
"233 453 OFFCURVE",
"208 412 CURVE SMOOTH",
"205 407 OFFCURVE",
"202 410 OFFCURVE",
"202 414 CURVE SMOOTH"
);
}
);
width = 594;
},
{
layerId = "8816CCA3-DDF9-4C51-BD56-64EE3675A105";
paths = (
{
closed = 1;
nodes = (
"248 525 OFFCURVE",
"208 459 OFFCURVE",
"203 449 CURVE SMOOTH",
"199 441 OFFCURVE",
"195 442 OFFCURVE",
"195 450 CURVE SMOOTH",
"195 552 LINE SMOOTH",
"195 555 OFFCURVE",
"197 557 OFFCURVE",
"200 557 CURVE SMOOTH",
"280 557 LINE SMOOTH",
"310 557 OFFCURVE",
"331 578 OFFCURVE",
"331 606 CURVE SMOOTH",
"331 636 OFFCURVE",
"310 657 OFFCURVE",
"280 657 CURVE SMOOTH",
"200 657 LINE SMOOTH",
"197 657 OFFCURVE",
"195 659 OFFCURVE",
"195 662 CURVE SMOOTH",
"195 679 LINE SMOOTH",
"195 714 OFFCURVE",
"170 740 OFFCURVE",
"135 740 CURVE SMOOTH",
"100 740 OFFCURVE",
"75 714 OFFCURVE",
"75 679 CURVE SMOOTH",
"75 662 LINE SMOOTH",
"75 659 OFFCURVE",
"73 657 OFFCURVE",
"70 657 CURVE SMOOTH",
"54 657 LINE SMOOTH",
"24 657 OFFCURVE",
"3 636 OFFCURVE",
"3 608 CURVE SMOOTH",
"3 578 OFFCURVE",
"24 557 OFFCURVE",
"54 557 CURVE SMOOTH",
"70 557 LINE SMOOTH",
"73 557 OFFCURVE",
"75 555 OFFCURVE",
"75 552 CURVE SMOOTH",
"75 61 LINE SMOOTH",
"75 26 OFFCURVE",
"100 0 OFFCURVE",
"135 0 CURVE SMOOTH",
"170 0 OFFCURVE",
"195 26 OFFCURVE",
"195 61 CURVE SMOOTH",
"195 267 LINE SMOOTH",
"195 344 OFFCURVE",
"227 405 OFFCURVE",
"304 405 CURVE SMOOTH",
"381 405 OFFCURVE",
"401 344 OFFCURVE",
"401 267 CURVE SMOOTH",
"401 61 LINE SMOOTH",
"401 26 OFFCURVE",
"426 0 OFFCURVE",
"461 0 CURVE SMOOTH",
"496 0 OFFCURVE",
"521 26 OFFCURVE",
"521 61 CURVE SMOOTH",
"521 267 LINE SMOOTH",
"521 409 OFFCURVE",
"479 525 OFFCURVE",
"336 525 CURVE SMOOTH"
);
}
);
width = 586;
}
);
leftMetricsKey = "+10";
note = hbar;
rightMetricsKey = "+10";
unicode = 0127;
},
{
glyphname = i;
lastChange = "2016-07-18 22:27:04 +0000";
layers = (
{
anchors = (
{
name = bottom;
position = "{78, 0}";
}
);
components = (
{
name = idotless;
},
{
name = dotaccentcomb;
transform = "{1, 0, 0, 1, -7, -1}";
}
);
layerId = "254266E2-2911-423D-9D37-8CC6105656EE";
width = 156;
},
{
background = {
paths = (
{
closed = 1;
nodes = (
"70 680 LINE SMOOTH",
"70 647 OFFCURVE",
"87 630 OFFCURVE",
"120 630 CURVE SMOOTH",
"146 630 LINE SMOOTH",
"179 630 OFFCURVE",
"196 648 OFFCURVE",
"196 680 CURVE SMOOTH",
"196 699 LINE SMOOTH",
"196 732 OFFCURVE",
"179 749 OFFCURVE",
"146 749 CURVE SMOOTH",
"120 749 LINE SMOOTH",
"88 749 OFFCURVE",
"70 731 OFFCURVE",
"70 699 CURVE SMOOTH"
);
}
);
};
layerId = "8816CCA3-DDF9-4C51-BD56-64EE3675A105";
paths = (
{
closed = 1;
nodes = (
"189 699 LINE",
"189 728 OFFCURVE",
"163 750 OFFCURVE",
"127 750 CURVE",
"91 750 OFFCURVE",
"65 727 OFFCURVE",
"65 699 CURVE",
"65 680 LINE",
"65 651 OFFCURVE",
"91 629 OFFCURVE",
"127 629 CURVE",
"163 629 OFFCURVE",
"189 651 OFFCURVE",
"189 680 CURVE"
);
},
{
closed = 1;
nodes = (
"185 474 LINE SMOOTH",
"185 509 OFFCURVE",
"160 535 OFFCURVE",
"125 535 CURVE SMOOTH",
"90 535 OFFCURVE",
"65 509 OFFCURVE",
"65 474 CURVE SMOOTH",
"65 61 LINE SMOOTH",
"65 26 OFFCURVE",
"90 0 OFFCURVE",
"125 0 CURVE SMOOTH",
"160 0 OFFCURVE",
"185 26 OFFCURVE",
"185 61 CURVE SMOOTH"
);
}
);
width = 254;
}
);
leftMetricsKey = n;
note = i;
rightKerningGroup = i;
rightMetricsKey = n;
unicode = 0069;
},
{
glyphname = iacute;
lastChange = "2016-07-14 20:40:27 +0000";
layers = (
{
components = (
{
name = idotless;
},
{
name = acutecomb;
transform = "{1, 0, 0, 1, -36, 0}";
}
);
layerId = "254266E2-2911-423D-9D37-8CC6105656EE";
width = 156;
},
{
layerId = "8816CCA3-DDF9-4C51-BD56-64EE3675A105";
paths = (
{
closed = 1;
nodes = (
"85 660 LINE SMOOTH",
"63 626 OFFCURVE",
"71 600 OFFCURVE",
"104 600 CURVE SMOOTH",
"130 600 OFFCURVE",
"147 607 OFFCURVE",
"166 625 CURVE SMOOTH",
"216 672 LINE SMOOTH",
"244 698 OFFCURVE",
"239 725 OFFCURVE",
"204 741 CURVE",
"194 745 LINE",
"166 758 OFFCURVE",
"144 751 OFFCURVE",
"127 725 CURVE SMOOTH"
);
},
{
closed = 1;
nodes = (
"178 439 LINE SMOOTH",
"178 474 OFFCURVE",
"153 500 OFFCURVE",
"118 500 CURVE SMOOTH",
"83 500 OFFCURVE",
"58 474 OFFCURVE",
"58 439 CURVE SMOOTH",
"58 61 LINE SMOOTH",
"58 26 OFFCURVE",
"83 0 OFFCURVE",
"118 0 CURVE SMOOTH",
"153 0 OFFCURVE",
"178 26 OFFCURVE",
"178 61 CURVE SMOOTH"
);
}
);
width = 236;
}
);
leftMetricsKey = "+10";
note = iacute;
rightMetricsKey = "+10";
unicode = 00ED;
},
{
glyphname = icircumflex;
lastChange = "2016-07-16 20:27:38 +0000";
layers = (
{
components = (
{
name = idotless;
},
{
name = circumflexcomb;
transform = "{1, 0, 0, 1, -78, -11}";
}
);
layerId = "254266E2-2911-423D-9D37-8CC6105656EE";
width = 156;
},
{
layerId = "8816CCA3-DDF9-4C51-BD56-64EE3675A105";
paths = (
{
closed = 1;
nodes = (
"-1 661 LINE SMOOTH",
"-28 628 OFFCURVE",
"-23 600 OFFCURVE",
"9 600 CURVE SMOOTH",
"34 600 OFFCURVE",
"52 607 OFFCURVE",
"71 623 CURVE SMOOTH",
"86 636 LINE SMOOTH",
"109 657 OFFCURVE",
"133 657 OFFCURVE",
"156 636 CURVE SMOOTH",
"171 623 LINE SMOOTH",
"190 607 OFFCURVE",
"208 600 OFFCURVE",
"233 600 CURVE SMOOTH",
"246 600 LINE SMOOTH",
"272 600 OFFCURVE",
"272 628 OFFCURVE",
"245 661 CURVE SMOOTH",
"201 717 LINE SMOOTH",
"185 737 OFFCURVE",
"167 746 OFFCURVE",
"140 746 CURVE SMOOTH",
"104 746 LINE SMOOTH",
"77 746 OFFCURVE",
"59 737 OFFCURVE",
"43 717 CURVE SMOOTH"
);
},
{
closed = 1;
nodes = (
"178 439 LINE SMOOTH",
"178 474 OFFCURVE",
"153 500 OFFCURVE",
"118 500 CURVE SMOOTH",
"83 500 OFFCURVE",
"58 474 OFFCURVE",
"58 439 CURVE SMOOTH",
"58 61 LINE SMOOTH",
"58 26 OFFCURVE",
"83 0 OFFCURVE",
"118 0 CURVE SMOOTH",
"153 0 OFFCURVE",
"178 26 OFFCURVE",
"178 61 CURVE SMOOTH"
);
}
);
width = 236;
}
);
leftMetricsKey = "+10";
note = icircumflex;
rightMetricsKey = "+10";
unicode = 00EE;
},
